<svg xmlns="http://www.w3.org/2000/svg" width="790" height="430" viewBox="0 0 790 430" version="1.1">
	<path d="M 0 83.637 L 0 167.274 6.750 166.757 C 14.097 166.193, 12.640 167.463, 4.750 168.499 L -0 169.123 -0 181.168 C -0 191.348, 0.227 193.127, 1.468 192.651 C 2.275 192.341, 3.156 192.443, 3.424 192.878 C 4.390 194.440, 2.149 231.450, 1.067 231.811 C -0.290 232.263, -0.437 290, 0.918 290 C 1.423 290, 2.493 290.252, 3.296 290.560 C 4.358 290.968, 4.943 290.083, 5.446 287.310 C 5.826 285.214, 6.367 282.375, 6.649 281 C 7.053 279.032, 6.935 278.819, 6.096 280 C 5.510 280.825, 4.994 282.625, 4.948 284 C 4.888 285.843, 4.494 285.318, 3.448 282 C 1.051 274.391, 1.494 272.314, 6.567 267.383 L 11.134 262.944 12.993 265.222 C 16.101 269.032, 16.622 265.005, 13.597 260.548 L 11.079 256.837 10.371 259.659 C 9.981 261.211, 9.116 263.027, 8.447 263.695 C 6.754 265.389, 6.004 261.097, 5.986 249.625 C 5.979 244.606, 5.678 239.399, 5.318 238.054 C 4.707 235.767, 4.609 235.735, 3.818 237.554 C 3.214 238.944, 3.134 238.644, 3.537 236.500 C 4.832 229.626, 9.020 200.810, 10.001 192.026 C 11.072 182.435, 12.665 178.015, 18.798 167.612 C 20.384 164.923, 22.866 162.102, 24.315 161.343 C 26.894 159.992, 29 157.176, 29 155.079 C 29 154.500, 24.760 156.292, 19.578 159.061 C 10.270 164.034, 3.990 166.502, 4.010 165.180 C 4.016 164.806, 9.753 161.585, 16.760 158.023 L 29.500 151.545 45.250 151.185 L 61 150.824 61 147.412 C 61 145.046, 60.540 144, 59.500 144 C 58.675 144, 58 143.550, 58 143 C 58 142.450, 58.698 142, 59.550 142 C 60.786 142, 61.050 140.934, 60.850 136.750 C 60.713 133.863, 60.176 130.927, 59.657 130.226 C 58.456 128.601, 59.158 127.862, 60.888 128.931 C 61.791 129.489, 62.183 131.801, 62.107 136.127 C 62.046 139.632, 62.273 144.412, 62.612 146.750 L 63.227 151 70.716 151 L 78.205 151 77.853 141.250 L 77.500 131.500 80 131.315 C 81.375 131.214, 81.770 131.348, 80.878 131.614 C 79.486 132.029, 79.328 133.401, 79.758 141.299 C 80.034 146.359, 80.394 150.655, 80.558 150.845 C 80.723 151.035, 85.727 151.600, 91.679 152.101 C 97.630 152.602, 104.750 153.350, 107.500 153.763 C 112.177 154.465, 112.520 154.716, 112.804 157.634 C 112.971 159.349, 114.194 161.773, 115.520 163.019 C 116.846 164.265, 118.907 168.258, 120.099 171.892 C 121.291 175.526, 122.616 178.950, 123.044 179.500 C 123.472 180.050, 123.593 181.697, 123.312 183.159 C 122.738 186.152, 120.768 186.966, 114.052 186.986 C 108.492 187.003, 94.156 191.303, 90.766 193.970 C 89.368 195.069, 87.337 197.663, 86.251 199.734 C 85.166 201.805, 81.949 207.775, 79.104 213 C 76.258 218.225, 73.686 223.625, 73.388 225 C 73.091 226.375, 74.937 223.675, 77.492 219 C 85.346 204.628, 87.853 201.200, 91.319 200.098 C 95.109 198.892, 119.537 196.885, 121.457 197.622 C 123.053 198.234, 123.786 203.310, 122.883 207.500 C 122.528 209.150, 122.181 213.200, 122.113 216.500 C 121.947 224.545, 120.411 229.735, 117.968 230.510 C 116.884 230.854, 115.526 232.018, 114.949 233.096 C 114.372 234.174, 113.525 234.825, 113.067 234.542 C 112.610 234.259, 111.062 234.950, 109.627 236.079 C 108.193 237.207, 106.565 237.849, 106.010 237.506 C 105.454 237.163, 105 237.328, 105 237.874 C 105 238.419, 99.807 241.362, 93.461 244.413 C 82.335 249.762, 81.706 249.939, 75.914 249.333 C 71.674 248.890, 69.521 248.154, 68.594 246.831 C 67.373 245.088, 67.184 245.073, 65.891 246.629 C 64.873 247.852, 64.500 251.524, 64.500 260.313 C 64.500 272.532, 65.490 275.610, 67.794 270.553 C 69.417 266.990, 73.189 266.336, 77.337 268.899 C 79.207 270.055, 81.493 271, 82.418 271 C 85.608 271, 90.018 267.931, 92.518 263.972 C 96.703 257.342, 102.236 258.793, 104.945 267.230 C 106.270 271.358, 105.760 273, 103.154 273 C 102.120 273, 101.363 272.164, 101.269 270.920 C 101.078 268.388, 99.222 266, 97.445 266 C 95.603 266, 94.688 269.548, 95.931 271.872 C 96.941 273.759, 96.508 273.823, 81.830 273.947 C 73.501 274.018, 66.307 274.310, 65.843 274.597 C 65.380 274.883, 65.048 276.779, 65.106 278.809 C 65.207 282.303, 65.266 282.367, 66.215 280 L 67.217 277.500 93.359 277.298 C 107.736 277.187, 121.075 277.075, 123 277.049 L 126.500 277.002 126.155 266.751 C 125.962 261.035, 125.298 255.862, 124.655 255.058 C 123.762 253.944, 123.784 253.787, 124.750 254.367 C 125.438 254.780, 126 254.641, 126 254.059 C 126 253.477, 125.641 253, 125.202 253 C 124.049 253, 125.144 229.714, 127.634 201.318 L 128.263 194.136 124.382 193.736 L 120.500 193.336 124.281 193.168 C 126.777 193.057, 128.251 193.491, 128.617 194.445 C 128.922 195.240, 128.653 202.552, 128.018 210.695 C 126.674 227.960, 126.614 266.143, 127.925 270.500 C 128.789 273.371, 128.836 273.393, 129.014 271 L 129.199 268.500 130 271 C 130.580 272.811, 130.811 271.708, 130.837 267 C 130.864 262.159, 130.642 261.074, 129.969 262.750 C 128.782 265.704, 128.542 265.591, 128.287 261.962 C 128.166 260.226, 128.486 259.183, 129.037 259.523 C 129.631 259.890, 130.051 255.588, 130.133 248.309 L 130.267 236.500 131.541 254.037 C 133.221 277.159, 134.777 289.808, 137.023 298.589 C 138.828 305.648, 138.970 310.756, 137.513 316.250 L 136.783 319 143.892 319 C 147.801 319, 150.947 319.337, 150.882 319.750 C 150.274 323.598, 151.435 323.421, 152.523 319.500 C 154.388 312.785, 154.450 313, 150.635 313 C 146.795 313, 142.105 309.800, 142.175 307.228 C 142.201 306.277, 141.266 298.350, 140.098 289.611 C 138.930 280.873, 137.687 267.082, 137.336 258.966 L 136.697 244.209 146.098 243.629 C 151.269 243.310, 161.629 242.779, 169.120 242.451 L 182.739 241.853 184.716 244.365 C 186.301 246.381, 186.825 249.116, 187.362 258.189 C 188.223 272.704, 191.737 301.552, 193.450 308.152 L 194.774 313.257 175.887 312.804 C 158.939 312.399, 157 312.519, 157 313.976 C 157 314.869, 156.475 316.125, 155.833 316.767 C 154.078 318.522, 155.323 318.701, 178.290 320.001 C 193.379 320.855, 199.443 320.877, 200.402 320.082 C 202.069 318.698, 201.802 312.506, 199.540 300.046 C 198.442 294.002, 197.224 290.135, 196.161 289.327 C 195.248 288.632, 194.806 288.049, 195.180 288.032 C 195.554 288.014, 195.475 286.655, 195.003 285.012 C 194.532 283.368, 193.857 277.631, 193.503 272.262 C 193.149 266.893, 192.445 257.550, 191.938 251.500 C 191.432 245.450, 190.973 237.800, 190.918 234.500 C 190.829 229.052, 190.733 228.798, 189.883 231.745 C 188.170 237.674, 186.515 238.085, 161.739 238.723 L 139.350 239.300 136.925 235.900 C 134.685 232.759, 134.475 231.435, 134.170 218.523 C 133.650 196.433, 135.143 191.860, 142.789 192.132 L 146.500 192.263 143.116 192.882 C 141.042 193.261, 139.120 194.468, 138.150 196 C 136.587 198.471, 136.592 198.480, 138.613 196.750 C 139.737 195.788, 141.297 195.007, 142.079 195.015 C 143.297 195.028, 143.295 195.161, 142.064 195.939 C 141.037 196.589, 140.703 198.451, 140.889 202.481 C 141.048 205.909, 140.657 208.709, 139.889 209.633 C 139.019 210.682, 138.959 211.361, 139.697 211.826 C 140.572 212.377, 141.142 234.982, 140.282 234.996 C 140.162 234.998, 139.393 233.762, 138.572 232.250 C 136.744 228.881, 136.484 231.439, 138.250 235.417 L 139.500 238.232 161.476 237.567 C 184.737 236.862, 185.487 236.696, 188.187 231.650 C 188.738 230.621, 189.518 218.916, 189.921 205.639 C 190.386 190.287, 191.084 180.697, 191.838 179.293 C 193.345 176.489, 197.101 175.801, 208.500 176.241 L 217.500 176.589 206.941 176.794 C 199.894 176.932, 195.762 177.453, 194.518 178.363 C 192.170 180.080, 191.305 189, 193.487 189 C 194.356 189, 194.836 187.944, 194.785 186.144 C 194.680 182.436, 195.631 181, 198.193 181 C 199.334 181, 201.895 180.564, 203.884 180.030 C 205.873 179.497, 213.350 178.763, 220.500 178.399 C 228.606 177.987, 232.747 177.437, 231.500 176.939 C 229.582 176.173, 229.590 176.138, 231.693 176.070 C 235.180 175.959, 237.084 179.659, 236.533 185.478 L 236.058 190.500 237.047 186 C 237.590 183.525, 237.794 180.487, 237.499 179.250 C 236.847 176.520, 236.647 176.528, 241.926 179.078 C 244.292 180.222, 246.461 182.047, 246.746 183.135 C 247.033 184.234, 247.840 184.892, 248.560 184.615 C 249.274 184.341, 251.577 183.865, 253.679 183.558 L 257.500 182.998 254.500 184.454 C 252.850 185.255, 250.993 185.930, 250.372 185.955 C 249.752 185.980, 248.685 186.675, 248 187.500 C 246.898 188.827, 247.144 188.842, 250.127 187.629 C 252.022 186.859, 259.635 185.947, 267.500 185.549 C 275.200 185.160, 283.412 184.711, 285.750 184.553 C 288.087 184.394, 290 184.655, 290 185.132 C 290 185.610, 288.407 186, 286.460 186 C 284.458 186, 281.713 186.892, 280.146 188.050 C 278.192 189.495, 275.618 190.160, 271.436 190.300 C 265.988 190.484, 265.519 190.679, 265.725 192.678 C 265.939 194.740, 265.806 194.780, 263.225 193.434 C 261.726 192.652, 258.587 192.010, 256.250 192.006 L 252 192 252 198.045 L 252 204.091 255.750 203.441 C 257.813 203.084, 260.117 201.939, 260.872 200.896 C 261.666 199.799, 263.352 199.042, 264.872 199.100 L 267.500 199.199 265.074 199.877 C 263.740 200.250, 262.465 201.105, 262.241 201.778 C 261.742 203.274, 261.902 203.279, 265.912 201.881 C 268.214 201.078, 268.951 200.316, 268.518 199.187 C 268.020 197.888, 268.254 197.920, 269.858 199.371 C 270.965 200.374, 272.057 200.717, 272.395 200.169 C 272.743 199.607, 274.409 199.528, 276.415 199.981 C 278.299 200.406, 281.001 200.531, 282.420 200.260 C 284.755 199.814, 285 200.068, 285 202.942 C 285 204.708, 285.425 205.856, 285.956 205.527 C 286.482 205.202, 286.712 204.388, 286.467 203.718 C 285.795 201.884, 287.184 200.385, 290.250 199.635 C 292.638 199.051, 293.002 199.261, 293.014 201.231 C 293.021 202.479, 293.296 204.501, 293.624 205.725 C 294.214 207.928, 294.236 207.930, 295.860 205.974 C 296.762 204.887, 298.850 203.833, 300.500 203.631 C 302.150 203.428, 304.312 202.921, 305.305 202.503 C 306.297 202.086, 310.500 201.962, 314.644 202.228 L 322.178 202.711 321.713 200.278 C 321.304 198.139, 321.534 197.917, 323.624 198.442 C 325.723 198.969, 326 198.695, 326 196.086 C 326 194.463, 324.905 190.974, 323.567 188.334 C 322.228 185.694, 321.390 183.301, 321.703 183.017 C 322.017 182.733, 322.476 183.065, 322.722 183.756 C 322.969 184.447, 323.531 184.790, 323.972 184.517 C 326.316 183.069, 327.143 187.792, 327.628 205.399 L 328.140 223.951 325.416 226.675 L 322.692 229.399 321.781 226.950 C 321.280 225.602, 321.062 223.487, 321.297 222.250 C 321.531 221.012, 321.335 220, 320.861 220 C 320.388 220, 319.985 221.012, 319.967 222.250 C 319.948 223.488, 319.089 225.513, 318.056 226.750 C 316.377 228.763, 315.275 229, 307.590 229 C 302.865 229, 299 228.610, 299 228.134 C 299 227.658, 297.118 227.613, 294.818 228.033 C 288.243 229.236, 288.027 228.994, 286.710 219 C 286.529 217.625, 286.018 219.537, 285.574 223.250 L 284.767 230 278.134 230.152 C 274.485 230.236, 266.590 230.421, 260.588 230.562 C 252.103 230.762, 249.353 230.496, 248.219 229.362 C 245.705 226.848, 245.536 228.877, 248.038 231.540 L 250.416 234.072 266.458 233.571 C 275.281 233.295, 286.325 232.846, 291 232.571 C 295.675 232.297, 305.125 231.814, 312 231.498 C 323.588 230.966, 324.682 230.742, 327 228.438 C 329.472 225.981, 329.501 225.756, 329.580 208.226 C 329.624 198.477, 329.272 188.820, 328.796 186.767 C 327.314 180.365, 326.282 180.190, 297 181.377 C 289.025 181.700, 282.950 181.779, 283.500 181.552 C 284.767 181.030, 312.608 178.974, 320.239 178.839 C 330.542 178.657, 331.599 180.937, 332.361 205 C 332.927 222.899, 332.873 223.630, 330.692 227.500 C 329.452 229.700, 327.327 232.013, 325.969 232.640 C 324.492 233.321, 314.258 234.028, 300.500 234.397 C 287.850 234.737, 271.875 235.278, 265 235.601 C 256.588 235.996, 251.526 235.810, 249.521 235.031 C 247.453 234.229, 246.433 234.200, 246.187 234.938 C 245.993 235.522, 245.308 236, 244.667 236 C 243.264 236, 243.025 232.968, 242.583 209.608 C 242.298 194.521, 241.996 191.577, 240.654 190.826 C 239.225 190.026, 239.109 191.242, 239.519 202.718 C 240.449 228.746, 241.372 269.708, 241.176 276.250 C 240.978 282.855, 241.028 283, 243.499 283 L 246.025 283 245.530 270.750 C 245.257 264.012, 244.610 254.015, 244.092 248.534 C 243.573 243.053, 243.367 238.215, 243.634 237.784 C 244.844 235.826, 245.823 237.313, 245.329 240.357 C 245.030 242.204, 245.332 248.391, 246.001 254.107 C 246.670 259.823, 247.588 268.325, 248.042 273 C 248.495 277.675, 249.173 283.354, 249.548 285.620 C 249.985 288.268, 249.830 289.987, 249.114 290.429 C 248.501 290.808, 248 291.965, 248 293 C 248 294.035, 247.539 295.167, 246.975 295.515 C 246.412 295.864, 246.074 295.609, 246.225 294.949 C 246.376 294.290, 245.983 293.559, 245.350 293.325 C 244.601 293.048, 244.290 294.051, 244.456 296.200 C 245.422 308.703, 246.420 316.142, 247.195 316.620 C 247.700 316.933, 247.586 317.793, 246.937 318.576 C 244.168 321.913, 246.431 322.703, 259.162 322.844 C 273.272 323, 291.075 323.638, 312 324.738 C 319.975 325.157, 330.571 325.500, 335.547 325.500 C 344.131 325.500, 344.738 325.356, 347.403 322.689 C 348.948 321.144, 350.052 319.742, 349.856 319.575 C 349.660 319.408, 348.524 318.764, 347.331 318.143 C 345.673 317.282, 345.063 317.309, 344.745 318.258 C 344.432 319.194, 339.236 319.500, 323.664 319.500 C 311.279 319.500, 302.999 319.881, 302.999 320.450 C 303 320.973, 302.460 320.860, 301.800 320.200 C 300.995 319.395, 296.499 319, 288.145 319 C 276.136 319, 275.749 318.934, 277.347 317.169 C 278.259 316.162, 278.703 315.037, 278.336 314.669 C 277.968 314.301, 278.235 314, 278.929 314 C 279.623 314, 281.386 313.182, 282.846 312.182 C 286.617 309.600, 298.007 304.886, 298.998 305.499 C 299.455 305.781, 299.980 305.589, 300.165 305.070 C 300.695 303.580, 314.953 306.460, 328.899 310.873 C 335.829 313.066, 343.200 315.140, 345.278 315.481 C 347.706 315.879, 348.808 316.501, 348.364 317.220 C 347.913 317.950, 348.252 318.117, 349.336 317.701 C 350.251 317.350, 351 317.507, 351 318.050 C 351 318.594, 352.012 318.809, 353.250 318.528 C 355.917 317.924, 374.723 315.836, 377.272 315.862 C 378.253 315.871, 378.755 315.412, 378.396 314.832 C 377.975 314.150, 378.533 314.035, 380 314.500 C 381.410 314.948, 382.020 314.841, 381.632 314.214 C 381.292 313.664, 382.081 312.945, 383.386 312.618 C 384.691 312.290, 389.240 309.525, 393.494 306.472 L 401.230 300.922 427.365 301.312 C 441.739 301.527, 454.361 302.071, 455.414 302.521 C 456.651 303.050, 457.104 302.978, 456.695 302.315 C 456.312 301.696, 457.236 301.332, 459.028 301.395 C 460.660 301.453, 461.996 301.795, 461.998 302.156 C 461.999 302.517, 462.970 302.559, 464.156 302.249 C 465.484 301.902, 466.071 302.076, 465.683 302.703 C 465.019 303.778, 470.818 302.950, 474.414 301.455 C 475.533 300.991, 476.091 301.042, 475.758 301.580 C 475.433 302.104, 477.407 302.410, 480.344 302.292 C 483.180 302.177, 493.825 301.835, 504 301.532 C 514.175 301.229, 522.950 300.961, 523.500 300.936 C 524.050 300.910, 529.788 300.938, 536.250 300.996 C 547.355 301.097, 548 300.994, 548 299.111 C 548 298.015, 548.369 296.890, 548.819 296.612 C 549.270 296.333, 549.443 297.432, 549.206 299.053 C 548.967 300.681, 549.232 302, 549.799 302 C 550.363 302, 551.128 303.798, 551.499 305.995 C 551.870 308.192, 552.603 310.255, 553.127 310.579 C 553.672 310.915, 553.876 310.168, 553.603 308.834 C 553.340 307.550, 552.860 305.246, 552.535 303.714 L 551.944 300.929 561.996 301.322 C 567.525 301.538, 572.314 301.980, 572.638 302.305 C 573.872 303.538, 575.372 319.028, 574.356 320.044 C 572.988 321.412, 559.052 321.452, 557.692 320.092 C 556.323 318.723, 553.664 318.647, 554.500 320 C 555.415 321.481, 553.663 321.213, 551.441 319.532 C 548.966 317.660, 548 317.632, 548 319.433 C 548 320.221, 547.137 321.139, 546.082 321.474 C 544.554 321.959, 543.535 324.743, 541.082 335.130 C 539.387 342.306, 538 348.560, 538 349.028 C 538 349.496, 539.687 350.056, 541.750 350.272 C 545.315 350.644, 545.274 350.672, 540.917 350.832 C 535.480 351.031, 534.832 350.573, 536.042 347.389 C 536.938 345.033, 536.869 344.996, 532.728 345.602 C 530.403 345.942, 526.700 346.600, 524.500 347.065 C 522.057 347.581, 520.370 347.538, 520.167 346.955 C 519.983 346.430, 518.468 346, 516.800 346 C 514.102 346, 513.820 346.277, 514.246 348.506 C 514.546 350.076, 514.030 351.813, 512.862 353.159 C 511.838 354.340, 511 355.507, 511 355.752 C 511 356.267, 542.751 355.149, 548 354.449 C 551.440 353.991, 558.142 353.507, 575 352.499 C 579.675 352.219, 587.325 351.756, 592 351.470 C 596.675 351.184, 603.875 350.744, 608 350.492 C 619.744 349.775, 625.971 348.856, 626.662 347.737 C 627.073 347.072, 626.353 346.946, 624.627 347.379 C 622.705 347.861, 621.792 347.622, 621.371 346.525 C 620.764 344.943, 617.875 344.458, 616.607 345.726 C 615.890 346.443, 609.535 346.863, 593 347.284 C 588.325 347.403, 584.203 347.910, 583.841 348.412 C 583.121 349.409, 580.674 347.362, 579.740 344.982 C 579.370 344.041, 579.129 344.382, 579.079 345.917 C 579.036 347.246, 578.704 348.037, 578.342 347.675 C 577.980 347.313, 577.193 347.411, 576.592 347.892 C 575.991 348.373, 570.100 349.025, 563.500 349.341 C 555.830 349.708, 552.763 349.601, 555 349.044 C 556.925 348.564, 562.325 347.973, 567 347.730 L 575.500 347.288 575.616 340.599 C 575.751 332.823, 577.939 319, 579.034 319 C 580.207 319, 583.279 305.271, 582.434 303.806 C 582.019 303.088, 582.045 302.831, 582.491 303.234 C 582.937 303.638, 583.818 303.263, 584.449 302.400 C 585.376 301.133, 587.510 300.868, 595.548 301.021 C 601.022 301.125, 606.175 301.175, 607 301.133 C 607.825 301.090, 611.500 300.930, 615.167 300.778 C 618.833 300.625, 622.130 300.204, 622.492 299.841 C 622.854 299.479, 624.554 299.585, 626.270 300.077 C 629.755 301.077, 640.812 300.120, 638.965 298.979 C 638.294 298.564, 638.065 297.370, 638.435 296.206 C 638.896 294.753, 638.597 294.067, 637.400 293.831 C 636.475 293.649, 625.544 293.725, 613.109 294 C 600.674 294.275, 589.487 294.356, 588.250 294.180 C 586.215 293.891, 586 293.312, 586 288.114 C 586 279.510, 584.193 271.312, 580.575 263.500 C 575.090 251.660, 561.072 235.865, 551.421 230.652 C 549.539 229.636, 548 228.491, 548 228.108 C 548 226.802, 534.524 226.908, 493.733 228.537 C 454.400 230.107, 452.856 230.100, 449.831 228.332 C 444.359 225.135, 443.243 221.339, 442.674 203.999 C 442.395 195.473, 442.075 188.048, 441.965 187.499 C 441.297 184.188, 442.233 177.091, 443.555 175.441 C 445.057 173.566, 445.074 173.574, 444.055 175.684 C 442.197 179.531, 442.910 179.297, 446.615 174.845 C 451.108 169.446, 451.816 169.157, 460.750 169.070 C 464.993 169.029, 468 168.574, 468 167.974 C 468 167.317, 465.215 167.133, 460.250 167.463 C 455.988 167.747, 451.490 168.031, 450.257 168.095 C 448.966 168.163, 448.288 168.658, 448.661 169.261 C 449.024 169.848, 448.832 170.014, 448.224 169.638 C 447.627 169.269, 446.856 169.425, 446.510 169.984 C 446.165 170.543, 446.385 171, 447 171 C 447.615 171, 447.810 171.498, 447.434 172.107 C 446.955 172.882, 446.505 172.817, 445.932 171.890 C 445.482 171.163, 445.561 170.030, 446.106 169.373 C 447.431 167.776, 445.796 166.817, 442.705 167.377 C 441.389 167.616, 439.732 167.452, 439.022 167.014 C 438.311 166.574, 443.512 165.913, 450.616 165.540 C 457.702 165.168, 471.825 164.257, 482 163.516 C 492.175 162.775, 501.175 162.194, 502 162.225 C 502.825 162.256, 511.349 161.982, 520.943 161.615 C 538.687 160.936, 543.955 161.447, 529.470 162.441 C 525.086 162.741, 518.498 163.257, 514.828 163.587 C 507.687 164.229, 505.572 164.370, 485.500 165.537 C 478.350 165.953, 471.600 166.688, 470.500 167.170 C 468.086 168.228, 489.010 167.232, 528.500 164.408 C 548.388 162.987, 552.471 163.726, 555.869 169.368 C 558.434 173.625, 558.800 176.512, 559.585 198.718 L 560.264 217.936 556.634 221.566 C 554.637 223.563, 553.228 225.560, 553.503 226.005 C 553.778 226.450, 552.990 226.637, 551.751 226.421 C 550.513 226.205, 550.850 226.436, 552.500 226.934 C 554.150 227.433, 561.873 228.775, 569.661 229.916 C 590.144 232.919, 602.101 238.266, 614.382 249.919 C 624.849 259.851, 632.086 271.104, 637.069 285.195 C 638.681 289.753, 640 294.500, 640 295.742 C 640 297.158, 640.605 298, 641.622 298 C 642.945 298, 643.017 298.275, 642.011 299.487 C 641.304 300.339, 641.093 301.728, 641.518 302.737 C 641.926 303.707, 642.869 306.975, 643.612 310 L 644.965 315.500 644.539 310.500 C 644.259 307.222, 644.400 306.205, 644.948 307.546 C 646.107 310.382, 648.329 331.195, 647.725 333.564 C 647.454 334.629, 647.180 333.288, 647.116 330.583 C 647.052 327.879, 646.720 325.947, 646.378 326.289 C 646.036 326.631, 646.076 330.756, 646.468 335.455 L 647.180 344 654.256 344 C 666.604 344, 661.080 344.805, 645.334 345.301 C 630.268 345.775, 628 346.150, 628 348.173 C 628 348.838, 629.569 349.012, 632.250 348.645 C 636.828 348.017, 647.792 347.399, 671.490 346.433 C 679.734 346.096, 686.745 345.658, 687.069 345.458 C 687.392 345.257, 692.186 344.992, 697.721 344.868 C 706.388 344.673, 707.589 344.446, 706.373 343.230 C 705.365 342.222, 704.180 342.062, 702.230 342.671 C 700.729 343.140, 697.025 343.254, 694 342.925 C 690.690 342.565, 689.768 342.261, 691.685 342.163 C 698.779 341.800, 702.484 338.048, 700.485 333.252 C 699.675 331.309, 699.981 306.210, 700.894 299.750 C 700.952 299.337, 701.891 299, 702.981 299 C 705.184 299, 706.657 295.154, 705.554 292.280 C 704.988 290.805, 704.760 290.769, 703.976 292.028 C 703.211 293.255, 699.785 293.465, 683.361 293.286 C 669.938 293.141, 663.439 292.711, 662.961 291.936 C 662.100 290.544, 660.584 252.082, 661.360 251.307 C 661.664 251.002, 662.721 251.101, 663.707 251.525 C 665.792 252.424, 672.524 252.818, 675.678 252.228 C 678.274 251.741, 679.595 248.994, 677.784 247.845 C 675.786 246.577, 672.184 246.857, 671.300 248.349 C 669.887 250.731, 665.427 251.166, 662.952 249.162 C 660.956 247.546, 660.646 246.198, 660.229 237.303 C 659.970 231.783, 660.150 227.029, 660.629 226.738 C 661.108 226.447, 670.163 225.880, 680.750 225.477 L 700 224.745 700 227.733 C 700 232.505, 701.208 240, 701.977 240 C 702.364 240, 702.764 234.296, 702.866 227.323 C 702.967 220.351, 703.298 213.662, 703.600 212.459 C 703.974 210.966, 703.606 210.063, 702.438 209.615 C 700.903 209.025, 700.883 208.781, 702.242 207.229 C 703.074 206.278, 704.114 203.250, 704.553 200.500 C 704.992 197.750, 705.391 195.275, 705.441 195 C 705.490 194.725, 705.808 194.050, 706.146 193.500 C 706.485 192.950, 706.786 190.700, 706.816 188.500 C 706.847 186.300, 707.272 181.441, 707.763 177.702 C 708.253 173.963, 708.299 170.685, 707.865 170.417 C 707.431 170.149, 707.436 168.933, 707.876 167.715 C 708.315 166.497, 708.773 163.279, 708.893 160.564 C 709.013 157.850, 709.324 155.285, 709.583 154.865 C 710.707 153.047, 691.215 151.588, 689 153.324 C 685.053 156.418, 684.807 157.626, 687.356 161.383 C 689.197 164.096, 689.974 166.980, 690.548 173.234 C 690.966 177.780, 691.233 183.075, 691.142 185 C 691.051 186.925, 691.412 193, 691.945 198.500 C 692.830 207.628, 692.739 208.864, 690.908 212.667 C 689.805 214.959, 687.757 217.585, 686.357 218.501 C 683.177 220.585, 672.236 221.616, 644 222.492 C 632.175 222.859, 620.143 223.319, 617.262 223.512 C 614.381 223.706, 603.343 224.175, 592.733 224.554 L 573.443 225.244 570.085 222.418 C 564.385 217.622, 563.844 215.046, 562.434 186 C 562.100 179.125, 561.659 173.330, 561.453 173.123 C 561.248 172.916, 561.779 171.394, 562.634 169.741 C 563.924 167.247, 563.960 166.576, 562.844 165.802 C 561.918 165.159, 562.199 165.066, 563.750 165.502 C 565.126 165.889, 566 165.697, 566 165.008 C 566 164.389, 566.410 164.135, 566.911 164.445 C 567.413 164.755, 569.100 164.360, 570.661 163.568 C 572.223 162.775, 575.075 161.702, 577 161.183 C 579.873 160.409, 578.977 160.264, 572 160.370 C 567.325 160.442, 563.176 160.950, 562.781 161.500 C 562.312 162.151, 561.356 162.063, 560.044 161.250 C 558.935 160.563, 557.234 159.986, 556.264 159.970 C 554.707 159.943, 554.734 159.801, 556.500 158.762 C 557.662 158.078, 563.319 157.508, 570 157.400 C 576.325 157.299, 586.675 156.728, 593 156.132 C 599.325 155.536, 609.450 154.795, 615.500 154.484 C 621.550 154.174, 628.975 153.730, 632 153.498 C 635.025 153.266, 645.600 152.580, 655.500 151.973 C 665.400 151.367, 674.288 150.717, 675.251 150.529 C 676.235 150.337, 676.730 150.628, 676.381 151.193 C 675.979 151.843, 676.446 151.832, 677.697 151.162 C 679.598 150.145, 682.373 149.794, 698.500 148.528 C 710.426 147.592, 711.002 147.394, 710.986 144.231 C 710.968 140.496, 709.951 137, 708.883 137 C 708.398 137, 708 138.070, 708 139.378 C 708 140.685, 707.314 142.324, 706.476 143.020 C 704.432 144.717, 704.017 144.025, 705.263 141 C 705.829 139.625, 706.196 137.495, 706.077 136.267 C 705.782 133.211, 706.983 131.365, 708.110 133.143 C 708.709 134.090, 708.974 133.658, 708.985 131.715 C 708.993 130.183, 709.714 127.840, 710.586 126.509 C 711.459 125.177, 711.888 123.627, 711.540 123.065 C 711.192 122.502, 711.360 121.196, 711.913 120.163 C 712.567 118.940, 712.585 117.081, 711.963 114.829 L 711.009 111.373 699.755 112.672 C 681.918 114.730, 634.690 118.709, 595 121.499 C 546.268 124.924, 520.876 126.798, 507 127.994 C 500.675 128.539, 489.304 129.439, 481.731 129.994 C 460.507 131.550, 454.751 132.027, 451.500 132.500 C 449.850 132.740, 445.575 133.176, 442 133.468 C 422.446 135.065, 410.382 136.135, 391.005 137.992 C 379.183 139.125, 367.708 140.246, 365.505 140.483 C 363.302 140.720, 355.200 141.396, 347.500 141.984 C 339.800 142.573, 328.100 143.565, 321.500 144.189 C 314.900 144.813, 307.700 145.434, 305.500 145.567 C 303.300 145.701, 288.900 146.955, 273.500 148.355 C 258.100 149.754, 242.575 151.127, 239 151.405 C 225.281 152.473, 211.043 153.916, 199.500 155.410 C 180.263 157.899, 143.745 161.762, 140.750 161.626 C 136.300 161.422, 137.605 160.001, 142.250 159.992 C 144.588 159.988, 151.900 159.286, 158.500 158.433 C 180.432 155.599, 216.767 151.677, 240.500 149.584 C 249.850 148.759, 267.400 147.132, 279.500 145.967 C 291.600 144.803, 303.571 143.689, 306.103 143.491 C 308.634 143.294, 315.159 142.656, 320.603 142.074 C 326.046 141.492, 348.725 139.433, 371 137.500 C 393.275 135.567, 412.625 133.779, 414 133.526 C 415.375 133.273, 419.425 132.841, 423 132.566 C 426.575 132.291, 433.100 131.747, 437.500 131.357 C 441.900 130.967, 445.770 130.705, 446.101 130.774 C 446.674 130.895, 470.101 128.628, 479.184 127.573 C 481.558 127.297, 486.875 126.829, 491 126.533 C 502.761 125.688, 510.321 125.049, 527 123.489 C 535.525 122.692, 547.450 121.596, 553.500 121.054 C 565.131 120.011, 571.184 119.121, 571.987 118.336 C 572.255 118.074, 569.343 118.091, 565.517 118.375 C 561.322 118.686, 559.124 118.541, 559.982 118.011 C 560.764 117.528, 561.732 117.335, 562.133 117.582 C 562.534 117.830, 563.126 117.605, 563.449 117.083 C 563.774 116.557, 562.688 116.171, 561.018 116.219 C 559.358 116.266, 558 116.656, 558 117.085 C 558 117.993, 554.928 119.074, 551.181 119.486 C 548.619 119.767, 548.606 119.737, 550.551 118.137 C 552.170 116.805, 552.474 115.548, 552.183 111.388 L 551.826 106.276 559.163 105.581 C 563.198 105.198, 567.981 104.365, 569.790 103.727 C 572.361 102.823, 573.530 102.850, 575.138 103.854 C 578.496 105.951, 578.459 104.391, 575.024 99.038 L 571.792 94 565.896 94 C 560.034 94, 560 94.017, 560 96.950 C 560 98.715, 560.700 100.292, 561.742 100.875 C 563.847 102.054, 562.956 103.304, 560.643 102.417 C 558.609 101.636, 558.253 93.044, 560.250 92.926 C 560.938 92.885, 562.625 92.590, 564 92.271 C 565.375 91.951, 568.040 91.647, 569.922 91.595 C 573.076 91.507, 573.617 91.965, 576.812 97.412 C 579.779 102.473, 580.101 103.609, 579.046 105.298 C 578.019 106.943, 578.138 107.709, 579.760 109.886 C 581.549 112.287, 582.386 112.524, 590.020 112.793 C 594.592 112.954, 598.828 112.896, 599.433 112.664 C 600.639 112.201, 599.118 90.763, 597.785 89.444 C 596.900 88.568, 598.713 85, 600.044 85 C 600.601 85, 600.969 88.315, 600.905 92.750 C 600.843 97.013, 601.120 103.121, 601.521 106.324 L 602.249 112.148 608.781 111.824 C 614.089 111.561, 615.360 111.172, 615.568 109.750 C 615.708 108.788, 615.511 108, 615.129 108 C 614.747 108, 614.343 105.862, 614.231 103.250 C 614.007 98.007, 612.309 93, 610.756 93 C 610.090 93, 610.092 92.581, 610.760 91.750 C 611.852 90.393, 611.245 84, 610.025 84 C 609.614 84, 609.496 82.856, 609.763 81.458 C 610.540 77.396, 612.428 79.213, 613.336 84.897 C 613.972 88.874, 614.692 90.338, 616.336 91.001 C 617.526 91.481, 617.889 91.902, 617.143 91.937 C 616.337 91.974, 616.028 92.630, 616.382 93.552 C 616.771 94.566, 616.575 94.856, 615.819 94.388 C 615.081 93.932, 614.861 94.195, 615.213 95.112 C 616.471 98.390, 618.149 108.321, 617.722 109.956 C 617.292 111.601, 617.702 111.633, 623.881 110.438 C 627.521 109.734, 632.547 108.691, 635.048 108.120 C 637.550 107.549, 640.658 107.359, 641.955 107.698 C 643.599 108.128, 644.096 107.965, 643.597 107.158 C 643.179 106.480, 643.495 106, 644.359 106 C 645.172 106, 646.626 105.697, 647.592 105.326 C 648.929 104.813, 649.199 105.039, 648.725 106.275 C 648.286 107.418, 648.531 107.734, 649.551 107.342 C 650.348 107.036, 651 106.398, 651 105.924 C 651 105.451, 651.629 105.304, 652.399 105.600 C 653.168 105.895, 654.095 105.656, 654.458 105.068 C 655.246 103.793, 661 103.620, 661 104.872 C 661 105.352, 659.087 106.090, 656.750 106.512 C 651.706 107.424, 651.038 107.591, 648.750 108.510 C 647.682 108.940, 647 108.760, 647 108.048 C 647 107.407, 646.543 107.165, 645.984 107.510 C 645.425 107.856, 645.226 108.557, 645.543 109.069 C 645.859 109.581, 645.004 110, 643.642 110 C 642.281 110, 641.017 109.589, 640.833 109.086 C 640.353 107.768, 629.670 110.035, 628.700 111.660 C 628.260 112.397, 627.360 112.993, 626.700 112.985 C 625.949 112.975, 626.061 112.572, 627 111.906 C 628.142 111.097, 627.783 110.988, 625.500 111.450 C 623.850 111.783, 618.675 112.325, 614 112.653 C 609.325 112.981, 604.632 113.571, 603.570 113.964 C 600.676 115.034, 622.254 114.424, 632 113.160 C 639.421 112.198, 646.484 111.528, 660 110.503 C 661.925 110.357, 665.075 109.973, 667 109.649 C 668.925 109.326, 675 108.806, 680.500 108.495 C 686 108.184, 692.862 107.678, 695.750 107.371 C 699.223 107.001, 701 107.183, 701 107.906 C 701 108.575, 703.305 109, 706.933 109 C 712.059 109, 712.955 108.718, 713.524 106.925 C 713.886 105.783, 713.955 104.621, 713.676 104.343 C 713.398 104.065, 713.867 102.186, 714.720 100.168 C 715.572 98.151, 716.352 95.825, 716.453 95 C 716.846 91.789, 719.023 88, 720.475 88 C 722.385 88, 722.379 88.694, 720.426 94.124 C 719.560 96.531, 718.736 100.525, 718.595 103 C 718.454 105.475, 717.728 108.927, 716.980 110.670 C 715.746 113.549, 715.866 114.469, 718.284 120.670 C 719.749 124.427, 722.577 134.700, 724.570 143.500 C 726.562 152.300, 728.516 159.844, 728.911 160.265 C 729.306 160.685, 733.875 160.638, 739.065 160.160 C 744.254 159.681, 749.175 159.661, 750 160.114 C 751.209 160.779, 751.113 160.961, 749.500 161.051 C 748.400 161.112, 745.925 161.257, 744 161.372 C 742.075 161.488, 737.913 161.676, 734.750 161.791 L 729 162 729 165.364 C 729 167.213, 729.455 171.127, 730.012 174.061 C 730.568 176.994, 731.047 184.481, 731.077 190.697 C 731.128 201.377, 731.243 202, 733.163 202 C 735.037 202, 735.152 202.451, 734.633 207.750 C 734.324 210.912, 733.785 217.488, 733.436 222.363 L 732.802 231.226 740.651 230.630 C 760.878 229.096, 778 228.770, 778 229.919 C 778 230.557, 777.166 232.749, 776.148 234.790 C 775.129 236.830, 773.762 240.679, 773.110 243.343 C 771.496 249.935, 769.637 252.470, 763.358 256.638 C 760.411 258.594, 758 260.589, 758 261.072 C 758 262.500, 752.163 265.092, 747.749 265.624 C 745.493 265.896, 742.801 266.571, 741.765 267.126 C 739.720 268.220, 733.677 267.332, 734.467 266.053 C 734.734 265.621, 736.017 265.472, 737.318 265.721 C 738.684 265.982, 740.361 265.497, 741.283 264.574 C 742.163 263.694, 744.273 262.813, 745.971 262.615 C 747.670 262.417, 749.942 261.457, 751.019 260.482 C 752.957 258.729, 752.951 258.684, 750.438 256.355 C 747.562 253.689, 747.155 253.610, 743.479 255.008 C 741.451 255.779, 740.925 255.720, 741.242 254.758 C 741.470 254.066, 742.604 253.360, 743.762 253.189 C 744.984 253.009, 745.839 252.170, 745.800 251.189 C 745.763 250.260, 746.066 248.712, 746.473 247.750 C 747.355 245.667, 745.451 245.469, 739.750 247.053 C 735.516 248.228, 735.467 248.425, 737.500 256 C 739.543 263.612, 739.469 264.016, 736.097 263.623 C 733.567 263.328, 733.116 263.669, 732.597 266.267 C 732.268 267.908, 732 270.719, 732 272.514 C 732 275.452, 732.349 275.843, 735.500 276.434 C 737.425 276.795, 739 277.538, 739 278.085 C 739 278.632, 739.630 278.499, 740.399 277.789 C 741.169 277.080, 741.635 276.328, 741.434 276.119 C 740.733 275.383, 743.083 272, 744.285 272.015 C 745.061 272.025, 744.968 272.367, 744.029 272.961 C 741.558 274.524, 743.312 274.898, 746.500 273.489 C 748.534 272.590, 748.917 272.136, 747.691 272.081 C 743.922 271.912, 747.093 270.369, 751.692 270.134 C 754.336 269.999, 757.733 269.275, 759.241 268.525 C 760.749 267.776, 762.215 267.539, 762.500 268 C 762.785 268.460, 761.664 269.135, 760.009 269.498 C 758.354 269.862, 757 270.807, 757 271.599 C 757 272.606, 756.302 272.863, 754.676 272.455 C 753.201 272.084, 751.877 272.443, 751.053 273.436 C 750.339 274.296, 749.162 275, 748.437 275 C 747.711 275, 746.816 275.489, 746.447 276.086 C 746.003 276.805, 746.919 277.074, 749.152 276.882 C 751.009 276.722, 753.115 276.953, 753.831 277.396 C 754.547 277.838, 755.403 277.930, 755.733 277.600 C 756.063 277.270, 755.808 277, 755.167 277 C 754.525 277, 754 276.550, 754 276 C 754 275.450, 755.764 275, 757.919 275 C 762.367 275, 767.729 272.356, 768.571 269.748 C 768.992 268.441, 769.776 268.157, 771.657 268.629 C 773.908 269.194, 774.142 268.989, 773.843 266.711 C 773.632 265.099, 774.253 263.487, 775.532 262.330 C 777.772 260.304, 781.429 249.756, 783.101 240.500 C 784.390 233.361, 785.503 231.594, 784.674 238 C 784.355 240.475, 784.430 244.300, 784.843 246.500 L 785.593 250.500 787.262 245 C 788.180 241.975, 789.155 238.600, 789.429 237.500 C 789.703 236.400, 789.687 238.650, 789.395 242.500 C 789.103 246.350, 788.931 251.075, 789.015 253 C 789.098 254.925, 789.241 263.250, 789.333 271.500 C 789.493 285.907, 789.421 286.493, 787.515 286.322 C 786.423 286.224, 785.192 286.674, 784.780 287.322 C 784.283 288.103, 784.025 287.910, 784.015 286.750 C 784.007 285.788, 784.675 285, 785.500 285 C 788.140 285, 787.107 283.523, 783.726 282.465 C 779.195 281.047, 771.439 281.184, 771.726 282.677 C 771.869 283.423, 770.681 283.790, 768.480 283.677 C 766.150 283.558, 765.002 283.007, 764.989 282 C 764.973 280.745, 764.825 280.728, 764.086 281.896 C 763.600 282.663, 762.481 283.015, 761.601 282.677 C 760.720 282.339, 760 282.451, 760 282.924 C 760 283.398, 760.675 284.045, 761.500 284.362 C 762.325 284.678, 763 286.051, 763 287.412 C 763 288.844, 763.947 290.550, 765.250 291.462 C 767.315 292.909, 767.603 292.895, 768.772 291.298 C 769.472 290.341, 769.838 289.019, 769.585 288.361 C 769.103 287.104, 771.877 285.543, 772.855 286.522 C 773.168 286.835, 772.848 288.014, 772.143 289.143 C 770.684 291.480, 771.047 292.303, 773.178 291.485 C 774.147 291.114, 774.500 289.951, 774.221 288.052 C 773.989 286.473, 774.301 284.353, 774.913 283.340 C 775.882 281.740, 775.954 281.830, 775.462 284.025 C 775.037 285.921, 775.534 287.103, 777.456 288.775 C 778.863 289.999, 780.462 291, 781.008 291 C 782.943 291, 781.961 289.042, 779.250 287.495 C 776.813 286.106, 776.770 286, 778.868 286.568 C 780.608 287.040, 781.111 286.850, 780.765 285.855 C 780.505 285.110, 779.484 284.648, 778.497 284.828 C 776.828 285.133, 776.818 285.040, 778.350 283.507 C 779.817 282.040, 780.167 282.024, 781.500 283.357 C 783.326 285.183, 783.424 286.692, 781.753 287.249 C 779.287 288.071, 784.848 289.980, 787.918 289.366 L 791 288.750 790.930 259.625 C 790.883 240.438, 790.535 231.182, 789.909 232.500 C 789.106 234.190, 789.055 234.113, 789.582 232 C 789.924 230.625, 790.436 177.891, 790.718 114.814 L 791.232 0.128 767.950 0.060 C 747.389 -0, 744.448 0.190, 742.790 1.690 C 741.030 3.282, 740.954 3.283, 741.564 1.694 C 742.162 0.136, 740.562 0, 721.607 0 C 709.993 0, 701 0.395, 701 0.904 C 701 1.401, 698.187 5.339, 694.748 9.654 C 691.309 13.969, 685.452 21.415, 681.732 26.201 C 678.012 30.986, 674.422 35.239, 673.754 35.652 C 672.385 36.498, 672.406 36.469, 687.554 16.831 C 693.634 8.949, 698.948 1.937, 699.363 1.250 C 699.949 0.280, 697.693 0, 689.309 0.002 L 678.500 0.004 675.600 4.752 C 668.474 16.417, 655.768 36, 655.325 36 C 654.818 36, 656.900 32.402, 662.844 23 C 664.756 19.975, 668.714 13.563, 671.639 8.750 L 676.957 0 665.192 0 L 653.427 0 648.016 10.968 C 645.039 17.001, 642.463 21.796, 642.290 21.624 C 642.118 21.451, 644.007 16.731, 646.488 11.135 C 648.970 5.538, 651 0.743, 651 0.480 C 651 0.216, 504.525 0, 325.500 0 L 0 0 0 83.637 M 0.477 84 C 0.477 129.925, 0.600 148.713, 0.750 125.750 C 0.899 102.788, 0.899 65.213, 0.750 42.250 C 0.600 19.288, 0.477 38.075, 0.477 84 M 697 93.979 C 679.121 98.312, 666.055 101.845, 667.500 101.955 C 668.050 101.996, 667.825 102.467, 667 103 C 665.729 103.821, 665.778 103.972, 667.316 103.985 C 668.314 103.993, 670.001 103.535, 671.064 102.966 C 672.127 102.397, 674.685 101.752, 676.748 101.534 C 682.316 100.944, 698.828 98.093, 704.131 96.806 C 708.408 95.769, 717.017 89.860, 713.886 90.111 C 713.123 90.172, 705.525 91.913, 697 93.979 M 554.848 91.955 C 554.463 93.110, 544.463 94.270, 497.750 98.579 L 479 100.309 479.150 105.404 L 479.300 110.500 479.900 106.090 C 480.287 103.244, 481.032 101.611, 482 101.485 C 485.059 101.086, 497.676 99.852, 503 99.430 C 506.025 99.191, 518.158 98.062, 529.963 96.922 C 541.767 95.781, 552.432 95.041, 553.663 95.276 C 556.084 95.739, 557.292 94.090, 556.029 92.046 C 555.446 91.103, 555.140 91.080, 554.848 91.955 M 469.500 101.107 C 466.200 101.572, 459.225 102.155, 454 102.402 C 448.775 102.649, 443.825 103.090, 443 103.381 C 442.175 103.672, 433.850 104.609, 424.500 105.463 C 399.389 107.759, 401.404 107.108, 401.920 112.750 C 402.159 115.362, 402.537 116.694, 402.759 115.708 C 403.059 114.379, 403.722 114.091, 405.331 114.593 C 406.524 114.965, 407.772 115.692, 408.104 116.207 C 408.436 116.723, 410.349 116.838, 412.354 116.461 C 414.772 116.008, 416 116.152, 416 116.889 C 416 117.500, 415.438 118.032, 414.750 118.071 C 413.637 118.135, 420.322 120.222, 435.500 124.550 C 438.250 125.335, 441.873 125.982, 443.550 125.988 C 445.228 125.995, 447.231 126.563, 448.002 127.250 C 449.182 128.302, 449.208 128.240, 448.170 126.859 C 447.491 125.956, 445.713 124.974, 444.218 124.677 C 438.756 123.591, 425.746 120.079, 425.214 119.547 C 423.783 118.117, 430.283 119.306, 439.888 122.234 C 450.840 125.571, 454.699 125.869, 469 124.479 C 472.575 124.132, 477.750 123.677, 480.500 123.469 C 483.250 123.261, 487.975 122.871, 491 122.603 C 494.025 122.336, 502.924 121.874, 510.776 121.577 C 521.098 121.186, 525.807 120.603, 527.776 119.472 C 529.274 118.611, 529.829 118.076, 529.009 118.284 C 528.189 118.491, 526.967 118.175, 526.294 117.580 C 523.005 114.678, 521.998 114, 520.976 114 C 520.367 114, 518.886 113.441, 517.684 112.757 C 515.653 111.600, 515.815 111.475, 520 110.969 C 524.726 110.398, 528.465 111.439, 527.469 113.050 C 527.146 113.573, 528.146 114.014, 529.691 114.032 C 533.625 114.076, 536.669 116.488, 535.131 118.342 C 534.153 119.521, 534.733 119.701, 538.732 119.460 C 541.355 119.302, 543.725 119.081, 544 118.968 C 544.275 118.855, 544.837 118.816, 545.250 118.882 C 545.663 118.947, 546 118.550, 546 118 C 546 117.450, 546.900 117, 548 117 C 550.140 117, 550.529 114.896, 549.417 109.333 L 548.833 106.416 541.167 107.148 C 536.950 107.550, 520.900 109.025, 505.500 110.425 C 464.672 114.138, 464.792 114.125, 465.417 114.751 C 465.733 115.067, 467.441 115.484, 469.211 115.678 C 472.374 116.024, 474.840 117.493, 473.877 118.456 C 473.608 118.725, 471.613 118.426, 469.444 117.791 C 467.275 117.156, 465.163 116.718, 464.750 116.818 C 464.337 116.918, 464 116.495, 464 115.878 C 464 115.111, 463.516 115.157, 462.473 116.022 C 461.131 117.137, 461.211 117.422, 463.144 118.395 C 464.353 119.003, 465.515 120.024, 465.726 120.665 C 466.499 123.009, 462.084 122.984, 453.148 120.592 C 442.943 117.861, 440.446 118.637, 450.250 121.493 C 453.815 122.531, 455.737 123.494, 454.724 123.735 C 453.747 123.967, 450.053 123.221, 446.515 122.078 C 442.977 120.935, 439.340 120, 438.434 120 C 437.380 120, 436.993 119.459, 437.362 118.500 C 437.778 117.414, 437.187 116.951, 435.219 116.822 C 431.168 116.556, 429.908 116.618, 425.250 117.310 C 421.317 117.894, 419.370 116.825, 422.250 115.662 C 422.938 115.385, 422.502 115.122, 421.281 115.079 C 419.578 115.018, 419.211 115.407, 419.701 116.750 C 420.297 118.384, 420.211 118.390, 418.420 116.853 C 417.364 115.947, 413.675 114.422, 410.223 113.464 C 404.418 111.852, 402.137 110.529, 403.249 109.418 C 403.756 108.910, 432.887 106.007, 437.500 106.004 L 440.500 106.002 437.500 108.615 C 435.850 110.052, 433.473 111.912, 432.219 112.749 C 430.964 113.586, 430.173 114.506, 430.460 114.793 C 430.747 115.080, 433.622 113.020, 436.848 110.214 C 442.070 105.671, 443.268 105.087, 447.775 104.881 C 452.223 104.678, 453.285 105.043, 456.524 107.887 C 458.551 109.667, 460.497 110.837, 460.847 110.487 C 461.197 110.136, 460.772 109.452, 459.902 108.965 C 459.032 108.478, 457.262 107.223, 455.970 106.177 L 453.620 104.274 460.560 103.595 C 472.394 102.438, 476 101.806, 476 100.886 C 476 100.399, 475.887 100.059, 475.750 100.131 C 475.613 100.203, 472.800 100.642, 469.500 101.107 M 558.150 107.900 L 553.800 108.500 556.979 110.838 C 558.727 112.124, 560.446 112.887, 560.800 112.534 C 561.153 112.180, 560.855 111.528, 560.137 111.085 C 559.119 110.456, 559.198 110.138, 560.498 109.639 C 563.067 108.653, 563.268 108.818, 562.755 111.500 C 562.336 113.696, 562.626 114, 565.139 114 C 567.306 114, 568 113.528, 568 112.057 C 568 110.327, 564.388 106.763, 563.027 107.150 C 562.737 107.233, 560.543 107.570, 558.150 107.900 M 530.441 111.532 C 531.509 112.339, 532.971 113, 533.691 113 C 534.411 113, 535 113.450, 535 114 C 535 114.550, 535.653 115, 536.450 115 C 537.248 115, 538.321 115.751, 538.835 116.669 C 539.650 118.126, 540.166 118.174, 542.884 117.048 C 544.598 116.338, 545.997 115.474, 545.992 115.129 C 545.970 113.315, 537.723 110.003, 533.302 110.032 C 528.862 110.061, 528.646 110.174, 530.441 111.532 M 485.435 114.105 C 485.151 114.565, 486.174 115.247, 487.709 115.622 C 489.244 115.996, 492.915 117.396, 495.867 118.734 C 499.719 120.479, 501.540 120.860, 502.317 120.083 C 503.822 118.578, 502.432 117.532, 496.500 115.709 C 489.749 113.634, 486.057 113.099, 485.435 114.105 M 475.592 114.852 C 475.302 115.320, 477.772 116.523, 481.080 117.524 C 484.389 118.526, 487.326 119.718, 487.607 120.173 C 488.245 121.205, 495.004 121.275, 494.990 120.250 C 494.980 119.484, 479.461 114, 477.305 114 C 476.652 114, 475.881 114.383, 475.592 114.852 M 365.127 120.267 C 359.972 122, 356.260 123.587, 356.877 123.792 C 358.267 124.256, 358.379 129, 357 129 C 356.450 129, 356 129.956, 356 131.125 C 356 132.972, 356.409 133.168, 359.125 132.625 C 360.844 132.281, 362.644 132, 363.125 132 C 363.606 132, 364 131.564, 364 131.031 C 364 130.499, 363.325 130.322, 362.500 130.638 C 361.403 131.059, 361 130.513, 361 128.607 C 361 127.173, 360.967 125.678, 360.927 125.285 C 360.836 124.397, 371.153 120.820, 371.837 121.503 C 372.454 122.121, 372.300 122.236, 368 124.365 L 364.500 126.099 367.750 125.470 C 370.332 124.970, 371 125.172, 371 126.452 C 371 127.338, 370.400 128.293, 369.667 128.574 C 368.933 128.856, 368.333 129.686, 368.333 130.419 C 368.333 131.787, 373.741 131.816, 384 130.501 C 392.604 129.398, 394.170 128.886, 393.587 127.365 C 393.266 126.529, 393.552 126.039, 394.266 126.203 C 394.945 126.359, 395.699 126.039, 395.943 125.493 C 396.187 124.947, 395.107 124.275, 393.543 124 C 391.942 123.719, 390.358 122.626, 389.920 121.500 C 389.245 119.767, 389.131 119.868, 389.070 122.250 C 388.987 125.521, 388.096 125.685, 385 123 C 382.211 120.581, 382.268 120.585, 380.179 122.694 C 378.607 124.280, 378.611 124.346, 380.250 123.725 C 381.976 123.072, 382.752 124.417, 381.202 125.375 C 379.223 126.598, 377.382 123.421, 377.074 118.250 C 376.970 116.493, 375.725 116.703, 365.127 120.267 M 410.807 123.250 C 410.526 127.137, 410.260 127.509, 407.698 127.602 C 406.157 127.658, 404.357 128.251, 403.698 128.920 C 402.758 129.875, 403.898 129.961, 409 129.319 C 412.575 128.868, 418.945 128.500, 423.155 128.500 C 431.710 128.500, 432.669 127.595, 425.068 126.694 C 418.566 125.924, 412 123.935, 412 122.735 C 412 122.213, 412.788 122.096, 413.750 122.475 C 416.822 123.684, 429.343 126.188, 434 126.523 C 436.475 126.702, 437.375 126.638, 436 126.382 C 434.625 126.126, 432.600 125.535, 431.500 125.069 C 428.765 123.908, 422.370 122.305, 417.250 121.496 C 414.913 121.126, 413 120.414, 413 119.912 C 413 119.410, 412.576 119, 412.057 119 C 411.539 119, 410.977 120.912, 410.807 123.250 M 395.500 120.713 C 391.995 121.556, 391.406 122.998, 394.550 123.036 C 396.173 123.055, 400.114 123.696, 403.309 124.459 C 408.397 125.675, 409.079 125.664, 408.809 124.371 C 408.639 123.559, 408.169 122.900, 407.764 122.908 C 407.359 122.915, 405.165 122.264, 402.888 121.461 C 400.611 120.657, 398.468 120.052, 398.124 120.116 C 397.781 120.180, 396.600 120.448, 395.500 120.713 M 624.250 121.663 C 621.371 122.074, 619.487 124, 621.965 124 C 622.496 124, 624.480 125.361, 626.375 127.024 C 629.690 129.935, 630.002 130.008, 634.659 128.964 C 641.712 127.384, 657.512 127.700, 664.500 129.561 C 677.478 133.017, 681.394 133.939, 681.718 133.615 C 682.606 132.727, 663.328 124, 660.479 124 C 658.637 124, 655.869 123.521, 654.328 122.935 C 651.346 121.801, 629.701 120.886, 624.250 121.663 M 613 125.184 C 613 125.836, 612.055 128.320, 610.901 130.705 L 608.802 135.041 605.651 133.129 C 603.387 131.755, 601.092 131.306, 597.500 131.535 C 593.174 131.811, 587 133.393, 587 134.225 C 587 134.376, 589.913 134.500, 593.472 134.500 C 598.760 134.500, 600.338 134.893, 602.093 136.648 L 604.241 138.796 601.399 140.648 C 599.084 142.157, 596.735 142.479, 588.721 142.388 C 583.311 142.326, 577.898 141.784, 576.692 141.183 C 574.202 139.941, 566.950 137, 566.378 137 C 566.170 137, 566 137.475, 566 138.056 C 566 138.637, 568.006 140, 570.459 141.085 C 572.911 142.169, 575.169 143.465, 575.478 143.964 C 576.391 145.441, 586.969 149.058, 592.951 149.939 C 598.166 150.707, 598.259 150.768, 594.500 150.948 C 592.300 151.054, 589.675 151.465, 588.668 151.862 C 586.203 152.833, 611.759 152.540, 615.251 151.557 C 617.227 151.001, 618.566 149.509, 620.001 146.264 C 621.101 143.779, 622 141.603, 622 141.429 C 622 141.255, 620.570 142.419, 618.821 144.016 C 615.259 147.269, 610.910 148.608, 608.423 147.217 C 606.924 146.378, 606.961 146.115, 608.818 144.384 C 611.439 141.942, 615.609 135.808, 616.451 133.154 C 617.689 129.255, 624.352 134.462, 623.642 138.774 C 623.437 140.024, 623.658 141.289, 624.134 141.583 C 625.417 142.376, 625.184 147.416, 623.800 148.800 C 622.867 149.733, 622.922 150.026, 624.050 150.118 C 624.847 150.184, 625.898 150.163, 626.384 150.074 C 626.870 149.984, 632.045 149.725, 637.884 149.499 C 652.526 148.930, 669.307 147.940, 671.596 147.511 C 672.643 147.314, 674.288 147.119, 675.250 147.077 C 676.212 147.034, 677 146.277, 677 145.393 C 677 144.244, 676.501 143.999, 675.250 144.534 C 667.910 147.674, 653.931 145.084, 649.446 139.753 L 646.719 136.512 649.956 135.584 C 652.200 134.940, 656.593 135.166, 664.271 136.320 C 670.364 137.235, 675.535 137.798, 675.763 137.571 C 675.990 137.344, 673.549 136.415, 670.338 135.507 C 667.127 134.599, 663.150 133.410, 661.500 132.865 C 655.178 130.777, 643.857 130.757, 636.221 132.820 L 628.941 134.787 627.448 131.899 C 625.169 127.492, 613 121.837, 613 125.184 M 635 140.954 C 631.233 142.963, 624.965 149, 626.646 149 C 627.207 149, 627.914 148.753, 628.216 148.451 C 628.518 148.149, 632.384 147.807, 636.808 147.692 C 644.584 147.489, 647.515 146.642, 645.448 145.196 C 644.901 144.813, 643.666 143.262, 642.704 141.750 C 640.660 138.538, 639.715 138.441, 635 140.954 M 655 155.116 C 643.983 156.374, 643.150 156.980, 653.500 156.206 C 658.450 155.836, 666.438 155.580, 671.250 155.638 C 676.063 155.696, 680 155.351, 680 154.871 C 680 153.805, 665.216 153.949, 655 155.116 M 479.882 155.750 C 479.816 156.162, 479.816 156.838, 479.882 157.250 C 479.947 157.662, 479.564 158, 479.031 158 C 478.499 158, 478.283 158.574, 478.552 159.275 C 478.923 160.242, 480.906 160.380, 486.771 159.846 C 495.868 159.018, 495 159.191, 495 158.201 C 495 157.761, 493.425 157.585, 491.500 157.810 C 489.575 158.035, 488 157.776, 488 157.236 C 488 156.680, 490.824 156.306, 494.500 156.376 C 498.075 156.444, 501 156.162, 501 155.750 C 501 155.338, 496.275 155, 490.500 155 C 484.725 155, 479.947 155.338, 479.882 155.750 M 620.347 157.053 C 619.811 157.589, 611.992 158.493, 602.971 159.063 C 593.949 159.632, 586.365 160.301, 586.117 160.549 C 585.421 161.246, 588.679 161.117, 614.472 159.428 C 637.880 157.895, 647.421 156.633, 631.463 157.180 C 627.083 157.330, 623.010 157.144, 622.410 156.766 C 621.811 156.389, 620.882 156.518, 620.347 157.053 M 678.579 160.419 C 682.722 162.223, 683.757 165.405, 684.553 178.804 C 684.923 185.021, 685.474 189.859, 685.778 189.556 C 687.030 188.304, 685.966 167.834, 684.501 165.003 C 682.830 161.770, 679.333 158.980, 677.027 159.039 C 676.187 159.061, 676.885 159.682, 678.579 160.419 M 594.500 163.587 C 584.050 164.319, 574.449 165.179, 573.164 165.499 C 570.121 166.257, 565.995 170.417, 566.017 172.705 C 566.029 173.997, 566.598 173.620, 568.046 171.359 C 570.768 167.110, 573.557 166.242, 587 165.463 C 593.325 165.096, 604.800 164.221, 612.500 163.519 C 631.175 161.816, 619.149 161.862, 594.500 163.587 M 613 167.972 C 613 169.023, 612.519 170.179, 611.932 170.542 C 611.344 170.905, 611.105 171.832, 611.400 172.601 C 611.696 173.371, 611.487 174, 610.937 174 C 610.387 174, 609.678 173.325, 609.362 172.500 C 608.921 171.353, 607.037 171, 601.348 171 C 594.682 171, 593.641 171.269, 591.325 173.584 C 589.058 175.851, 588.810 176.746, 589.300 180.889 C 589.979 186.621, 588.925 189.012, 586.576 187.063 C 585.271 185.980, 585.012 185.991, 585.070 187.128 C 585.109 187.882, 585.487 189.386, 585.910 190.469 C 586.439 191.822, 586.133 192.918, 584.933 193.969 C 583.962 194.820, 582.881 197.722, 582.499 200.500 C 581.768 205.824, 582.728 205.902, 584.700 200.678 C 585.879 197.554, 585.892 197.577, 585.428 202 C 584.891 207.128, 585.976 205.465, 588.038 198 C 588.722 195.525, 589.480 194.063, 589.724 194.750 C 589.967 195.438, 591.367 196.029, 592.833 196.063 C 595.425 196.125, 595.437 196.152, 593.250 197.031 C 591.512 197.730, 591 198.739, 591 201.468 C 591 204.753, 591.217 205, 594.107 205 C 596.362 205, 597.066 205.385, 596.676 206.403 C 596.380 207.174, 596.693 208.565, 597.372 209.494 C 598.355 210.839, 599.509 211.046, 603.054 210.515 L 607.502 209.848 607.140 205.296 C 606.889 202.140, 607.119 200.955, 607.889 201.431 C 608.500 201.809, 609 202.991, 609 204.059 C 609 205.127, 609.623 206, 610.385 206 C 612.570 206, 614.999 210.571, 615.015 214.715 C 615.026 217.261, 615.316 218.049, 615.904 217.122 C 616.384 216.364, 617.277 216.053, 617.888 216.431 C 618.500 216.809, 619 216.641, 619 216.059 C 619 215.477, 618.602 215, 618.117 215 C 616.537 215, 616.065 210.912, 617.578 210.332 C 618.360 210.032, 619 208.934, 619 207.893 C 619 206.852, 619.436 206, 619.969 206 C 620.501 206, 620.678 206.675, 620.362 207.500 C 619.821 208.910, 621.133 209.542, 623.500 209.013 C 624.050 208.890, 625.132 208.688, 625.904 208.564 C 629.344 208.010, 631 203.967, 631 196.121 C 631 189.579, 631.368 187.923, 633.528 184.744 C 635.028 182.536, 637.162 180.782, 638.778 180.429 C 640.275 180.101, 642.086 179.651, 642.802 179.428 C 643.518 179.205, 643.829 179.468, 643.493 180.011 C 643.157 180.555, 643.809 181, 644.941 181 C 646.333 181, 647 180.352, 647 179 C 647 177.667, 647.667 177, 649 177 C 651.264 177, 651.533 178.736, 649.843 182.444 C 649.041 184.206, 648.994 185.672, 649.691 187.234 C 650.399 188.820, 650.326 190.373, 649.443 192.492 C 648.755 194.147, 647.947 196.850, 647.648 198.500 C 647.349 200.150, 646.797 203.188, 646.421 205.250 L 645.738 209 654.619 208.927 C 666.354 208.831, 673.713 207.715, 675.696 205.732 C 677.005 204.423, 677.273 202.159, 677.106 193.808 C 676.664 171.740, 676.137 168.584, 672.717 167.537 C 670.559 166.876, 660.499 166.830, 657.162 167.465 C 656.248 167.639, 650.775 168.075, 645 168.433 C 639.225 168.792, 633.224 169.335, 631.664 169.641 C 630.104 169.947, 625.693 170.265, 621.862 170.348 C 615.780 170.481, 614.952 170.286, 615.338 168.815 C 615.580 167.888, 615.154 166.889, 614.389 166.596 C 613.502 166.256, 613 166.753, 613 167.972 M 531.917 167.391 C 531.688 167.607, 514.625 168.769, 494 169.975 C 473.375 171.181, 454.811 172.597, 452.747 173.123 C 446.299 174.765, 445.791 176.518, 445.926 196.682 C 446.067 217.887, 446.509 221.190, 449.596 224.091 C 451.865 226.221, 452.635 226.301, 469.140 226.114 C 478.590 226.007, 486.587 225.765, 486.911 225.577 C 487.235 225.389, 496.050 224.948, 506.500 224.598 C 533.526 223.691, 546.124 223.007, 549 222.288 C 550.375 221.944, 551.950 221.626, 552.500 221.582 C 553.050 221.537, 553.538 221.050, 553.584 220.500 C 553.630 219.950, 554.237 218.150, 554.932 216.500 C 555.830 214.371, 556.004 210.742, 555.534 204 C 555.169 198.775, 554.675 190.675, 554.437 186 C 553.779 173.090, 553.964 173.440, 547.976 173.851 C 543.983 174.125, 542.987 174.523, 543.426 175.667 C 543.847 176.765, 543.478 176.969, 541.944 176.482 C 540.013 175.869, 539.917 176.183, 540.200 182.167 C 540.470 187.866, 540.725 188.532, 542.750 188.820 C 543.987 188.995, 545 189.799, 545 190.605 C 545 191.744, 544.569 191.840, 543.066 191.035 C 542.002 190.466, 540.989 189.999, 540.816 189.998 C 540.642 189.997, 540.651 192.922, 540.835 196.498 C 541.160 202.794, 541.255 203, 543.835 202.986 C 548.164 202.964, 551.155 201.847, 550.620 200.451 C 550.348 199.744, 550.736 198.932, 551.480 198.646 C 553.418 197.902, 554 200.165, 554 208.436 C 554 214.769, 553.683 216.050, 551.548 218.354 C 550.199 219.809, 548.062 221.024, 546.798 221.054 C 545.534 221.084, 541.800 221.305, 538.500 221.545 C 535.200 221.786, 518.550 222.450, 501.500 223.022 C 484.450 223.595, 466.650 224.327, 461.945 224.651 C 453.922 225.202, 453.227 225.091, 450.787 222.870 C 448.197 220.512, 448.181 220.404, 447.583 200.839 C 447.224 189.098, 447.369 180.160, 447.943 178.650 C 449.763 173.863, 446.744 174.285, 507.500 170.333 C 522.350 169.367, 537.945 168.559, 542.155 168.538 C 546.364 168.517, 549.289 168.169, 548.655 167.765 C 547.474 167.014, 532.670 166.683, 531.917 167.391 M 398 173.003 C 383.975 174.005, 366.350 175.255, 358.833 175.780 C 343.488 176.851, 338.889 178.628, 336.469 184.420 C 334.930 188.102, 335.482 220.348, 337.177 225.827 C 338.322 229.530, 343.042 232.982, 347 233.011 L 349.500 233.029 347 234.288 C 345.118 235.235, 344.461 236.405, 344.341 239.023 L 344.182 242.500 344.841 239 C 345.364 236.221, 346.015 235.444, 348 235.227 C 349.375 235.077, 355.450 234.317, 361.500 233.538 C 367.550 232.760, 385.100 231.844, 400.500 231.503 C 431.769 230.812, 433.759 230.408, 437.472 224 C 439.356 220.748, 439.476 219.120, 439.161 201.004 C 438.799 180.211, 438.056 176.392, 433.834 173.628 C 430.073 171.167, 424.946 171.077, 398 173.003 M 568.629 174.256 C 568.298 175.490, 568.021 177.974, 568.014 179.775 C 568.003 182.382, 568.526 183.250, 570.584 184.032 C 573.455 185.124, 575 184.588, 575 182.500 C 575 180.457, 577.088 179.532, 578.110 181.122 C 578.664 181.983, 578.762 181.186, 578.371 179 C 577.585 174.603, 576.318 173.243, 572.365 172.557 C 569.728 172.099, 569.135 172.369, 568.629 174.256 M 417.917 174.395 C 417.688 174.612, 402.875 175.534, 385 176.444 C 343.303 178.567, 343.185 178.584, 340.285 182.898 C 339.028 184.767, 338.026 186.792, 338.059 187.398 C 338.091 188.004, 338.654 187.659, 339.309 186.631 C 342.949 180.921, 343.287 180.755, 352.065 180.344 C 359.387 180.001, 360.269 180.132, 358.750 181.335 C 357.788 182.097, 357 183.194, 357 183.772 C 357 185.038, 350.389 186.273, 345.751 185.873 C 343.377 185.669, 341.777 186.223, 340.207 187.793 C 338.246 189.754, 338.013 190.976, 338.112 198.750 L 338.224 207.500 339.472 202 L 340.720 196.500 341.110 203 L 341.500 209.500 342.789 205.250 C 343.497 202.912, 344.480 201, 344.973 201 C 345.466 201, 347.137 200.478, 348.685 199.840 C 350.233 199.201, 352.096 198.779, 352.824 198.901 C 353.552 199.022, 354.790 198.589, 355.574 197.938 C 356.752 196.961, 357.003 197.255, 357.015 199.628 C 357.024 201.207, 357.467 203.175, 358 204 C 358.784 205.213, 358.972 205.069, 358.985 203.250 C 358.993 202.012, 359.450 201, 360 201 C 360.550 201, 361 201.990, 361 203.200 C 361 206.082, 362.719 204.336, 363.165 201 C 363.465 198.763, 364.025 198.467, 368.495 198.188 C 371.538 197.997, 373.806 197.311, 374.298 196.432 C 375.156 194.899, 379.358 195.375, 381.774 197.280 C 383.223 198.423, 383.185 198.454, 384.776 194.750 C 385.473 193.128, 386.684 192.048, 387.729 192.116 C 389.397 192.225, 389.398 192.259, 387.750 192.689 C 386.077 193.127, 385.826 193.531, 385.600 196.163 C 385.454 197.860, 391.119 197.854, 391.771 196.155 C 392.070 195.374, 391.791 193.895, 391.149 192.868 C 390.393 191.656, 390.348 191, 391.023 191 C 392.559 191, 393.758 194.715, 393.927 200 C 394.005 202.429, 394.064 202.407, 396.004 199.225 C 397.285 197.124, 399.060 195.738, 400.955 195.359 C 403.768 194.796, 403.884 194.571, 403.386 190.634 C 402.662 184.907, 399.463 182.141, 394.090 182.597 C 390.771 182.878, 389.988 182.619, 389.937 181.222 C 389.893 180.036, 389.551 180.279, 388.839 182 L 387.804 184.500 386.897 182.149 C 385.997 179.816, 385.895 179.802, 373.745 180.327 C 366.127 180.656, 362.634 180.530, 364.500 179.993 C 367.140 179.234, 418.330 175.931, 426.679 175.981 C 430.151 176.002, 432.999 178.182, 433.002 180.821 C 433.004 182.255, 432.057 182.451, 426.510 182.165 C 420.272 181.843, 419.975 181.935, 419.008 184.480 C 418.453 185.938, 418 188.226, 418 189.565 C 418 191.718, 418.440 192, 421.800 192 C 423.890 192, 426.085 191.515, 426.678 190.922 C 427.271 190.329, 429.049 189.991, 430.628 190.172 L 433.500 190.500 434.308 204.476 C 434.830 213.523, 434.758 219.235, 434.103 220.673 C 431.911 225.485, 430.231 225.779, 401 226.463 C 360.898 227.402, 344.704 227.963, 344.240 228.427 C 344.014 228.653, 344.655 229.264, 345.664 229.786 C 347.380 230.672, 355.689 230.501, 406 228.549 C 414.525 228.219, 423.914 227.887, 426.864 227.811 C 431.707 227.688, 432.415 227.375, 434.158 224.587 C 435.932 221.752, 436.065 219.824, 435.793 201 C 435.475 179.110, 435.083 177.270, 430.257 175.071 C 428.030 174.056, 418.808 173.551, 417.917 174.395 M 532.250 176.706 C 528.465 177.435, 529.455 183.353, 533.500 184.175 C 534.936 184.467, 535.433 185.276, 535.263 187.041 C 535.054 189.213, 535.174 189.308, 536.297 187.854 C 538.251 185.324, 537.343 175.712, 535.191 176.136 C 534.811 176.211, 533.487 176.467, 532.250 176.706 M 508.452 178.420 C 508.257 179.014, 507.929 180.625, 507.722 182 L 507.347 184.500 506.237 182 L 505.127 179.500 505.063 182.250 C 505.021 184.101, 505.510 185, 506.559 185 C 507.416 185, 507.866 185.408, 507.558 185.906 C 507.250 186.404, 506.098 186.577, 504.999 186.289 C 503.609 185.926, 503 184.925, 503 183.006 C 503 179.532, 500.301 176.912, 498.939 179.064 C 498.439 179.854, 498.024 181.904, 498.015 183.620 C 498.001 186.591, 498.221 186.765, 502.624 187.261 C 505.167 187.548, 507.626 188.394, 508.088 189.141 C 508.702 190.133, 509.234 189.623, 510.062 187.250 C 511.335 183.599, 511.698 183.457, 514.441 185.532 C 516.998 187.466, 520.450 187.387, 525.211 185.287 C 528.635 183.776, 529.060 183.214, 528.797 180.537 L 528.500 177.500 518.653 177.420 C 512.423 177.370, 508.676 177.737, 508.452 178.420 M 466.874 178.739 L 460.248 179.086 459.635 182.793 C 458.231 191.284, 459.664 195.026, 462.194 189.474 C 462.827 188.085, 463.830 187.126, 464.422 187.344 C 465.015 187.561, 466.288 187.053, 467.250 186.215 C 468.795 184.869, 469.205 184.863, 470.750 186.166 C 471.712 186.978, 473.837 187.726, 475.471 187.828 C 477.106 187.930, 479.131 188.710, 479.971 189.561 C 481.345 190.951, 481.312 191.037, 479.649 190.408 C 477.151 189.464, 475.886 191.699, 476.628 195.750 C 477.033 197.965, 476.834 199, 476.003 199 C 474.674 199, 475.210 202.413, 477.300 207.250 C 478.718 210.531, 479.131 210.620, 480.768 208 C 481.861 206.249, 481.767 206, 480.008 206 C 477.687 206, 477.571 205.165, 479.158 199.866 C 480.463 195.511, 482.171 194.914, 483.780 198.250 L 484.865 200.500 484.932 198.110 C 484.970 196.796, 484.212 195.079, 483.250 194.295 C 481.651 192.992, 481.738 192.906, 484.250 193.296 C 485.762 193.531, 487 193.335, 487 192.861 C 487 192.388, 486.212 191.986, 485.250 191.970 C 483.583 191.941, 483.583 191.891, 485.250 190.920 C 487.484 189.619, 487.598 183.299, 485.443 180.223 C 483.787 177.858, 483.752 177.855, 466.874 178.739 M 169.136 192.741 L 163.772 193.112 164.386 196.181 C 164.724 197.869, 165 207.185, 165 216.882 L 165 234.515 173.250 234.219 C 183.725 233.844, 185.604 233.425, 186.535 231.259 C 186.951 230.291, 187.385 221.704, 187.500 212.176 C 187.667 198.302, 187.425 194.568, 186.283 193.426 C 184.870 192.013, 181.564 191.881, 169.136 192.741 M 192.117 210.250 C 192.182 220.287, 192.558 233, 192.953 238.500 C 193.492 246.015, 193.711 241.481, 193.835 220.250 C 193.942 201.973, 193.647 192, 193 192 C 192.366 192, 192.043 198.672, 192.117 210.250 M 247.871 194.684 C 247.652 195.683, 247.737 201, 248.059 206.500 C 248.380 212, 248.724 215.514, 248.822 214.309 C 248.920 213.104, 249.505 211.806, 250.123 211.424 C 250.893 210.948, 251.041 208.190, 250.595 202.637 C 249.962 194.766, 248.675 191.007, 247.871 194.684 M 686.654 204.500 C 687.088 208.883, 686.827 209.838, 684.545 212.238 C 683.112 213.745, 680.941 215.195, 679.720 215.462 C 677.524 215.942, 641.198 218, 634.919 218 C 633.130 218, 631.959 218.292, 632.317 218.650 C 633.076 219.409, 644.222 219.240, 666.254 218.133 C 680.459 217.420, 682.235 217.128, 684.328 215.162 C 685.604 213.963, 686.952 213.286, 687.324 213.658 C 688.299 214.632, 688.021 203.879, 687.010 201.500 C 686.460 200.206, 686.334 201.264, 686.654 204.500 M 34.446 207.765 C 33.755 208.247, 33.613 211.766, 34.034 218 C 34.388 223.225, 34.749 226.234, 34.838 224.687 C 34.971 222.380, 35.405 221.931, 37.250 222.187 C 39.359 222.480, 39.485 222.177, 39.255 217.329 C 38.998 211.890, 37.582 206.989, 36.275 207.015 C 35.849 207.024, 35.026 207.361, 34.446 207.765 M 763 210 C 763 210.550, 763.169 211, 763.376 211 C 763.582 211, 766.263 212.111, 769.332 213.468 C 773.722 215.410, 774.786 215.605, 774.317 214.383 C 773.891 213.273, 775.507 213.732, 779.984 215.992 C 784.335 218.188, 786.565 218.835, 787.291 218.109 C 788.016 217.384, 787.902 216.913, 786.917 216.567 C 777.975 213.422, 773.763 211.620, 772.571 210.428 C 770.809 208.666, 768.338 208.577, 767.659 210.250 C 767.331 211.060, 766.861 211.148, 766.326 210.500 C 765.182 209.115, 763 208.787, 763 210 M 608.212 219.121 C 600.120 219.462, 589.536 219.800, 584.691 219.871 C 578.710 219.959, 576.095 220.344, 576.544 221.071 C 576.972 221.764, 580.083 221.955, 585.353 221.611 C 589.834 221.319, 601.712 220.779, 611.750 220.412 C 621.788 220.045, 630 219.338, 630 218.841 C 630 218.344, 628.408 218.064, 626.462 218.219 C 624.516 218.373, 616.304 218.779, 608.212 219.121 M 102.011 222.979 C 101.428 224.068, 101.242 226.118, 101.598 227.534 C 102.230 230.052, 102.142 230.103, 97.606 229.805 C 95.054 229.637, 92.978 229.055, 92.992 228.511 C 93.006 227.966, 93.576 227.491, 94.259 227.453 C 96.271 227.344, 99 225.859, 99 224.874 C 99 224.372, 97.869 224.246, 96.487 224.593 C 95.046 224.954, 93.340 224.697, 92.487 223.989 C 91.669 223.310, 90.933 223.148, 90.852 223.628 C 90.579 225.236, 90.297 227.486, 90.148 229.250 C 89.940 231.709, 87.910 231.397, 85.145 228.483 C 82.049 225.219, 81 225.350, 81 229 C 81 231.946, 82.454 233.137, 83.226 230.823 C 83.441 230.176, 84.154 229.977, 84.809 230.382 C 86.645 231.517, 86.220 233, 84.059 233 C 81.867 233, 80.168 234.932, 82.191 235.124 C 82.911 235.192, 85.854 235.151, 88.731 235.033 L 93.961 234.818 91.366 239.461 C 88.004 245.476, 88.932 246.497, 92.394 240.591 C 95.168 235.857, 98.415 232.990, 100.973 233.015 C 102.326 233.029, 102.329 233.154, 101 234.110 C 99.800 234.973, 99.900 235.041, 101.500 234.451 C 102.600 234.045, 105.038 233.663, 106.918 233.602 C 110.408 233.489, 112.666 231.026, 109.333 230.968 C 106.832 230.925, 103.649 228.377, 104.459 227.067 C 104.821 226.480, 105.568 226, 106.118 226 C 106.668 226, 106.840 226.450, 106.500 227 C 106.160 227.550, 106.343 228, 106.906 228 C 107.469 228, 108.406 227.110, 108.988 226.023 C 109.832 224.445, 109.759 224.155, 108.624 224.591 C 107.842 224.891, 106.905 224.656, 106.542 224.068 C 106.179 223.481, 106.584 223, 107.441 223 C 108.298 223, 109 222.550, 109 222 C 109 220.085, 103.119 220.910, 102.011 222.979 M 644.393 225.582 C 644.727 226.452, 645 229.377, 645 232.082 C 645 235.787, 645.370 237, 646.500 237 C 647.500 237, 648 236, 648 234 C 648 231.467, 648.389 231, 650.500 231 C 651.875 231, 653 230.550, 653 230 C 653 229.450, 651.875 229, 650.500 229 C 648.944 229, 648 228.433, 648 227.500 C 648 226.500, 649 226, 651 226 C 652.650 226, 654 225.550, 654 225 C 654 224.450, 651.702 224, 648.893 224 C 644.647 224, 643.888 224.267, 644.393 225.582 M 714.863 228.500 C 713.966 230.606, 713.511 238.925, 713.337 256.413 C 713.201 270.115, 712.792 284.343, 712.428 288.032 C 711.983 292.554, 712.131 294.963, 712.884 295.428 C 713.498 295.808, 714 295.641, 714 295.059 C 714 294.477, 714.642 294, 715.427 294 C 717.441 294, 717.589 292.290, 716.802 278.089 C 716.111 265.611, 716.270 257.458, 717.568 238.876 C 718.339 227.826, 717.128 223.181, 714.863 228.500 M 481 231.004 C 475.726 231.904, 461.659 237.217, 457.859 239.744 C 452.865 243.065, 432.017 262.202, 427.788 267.348 C 425.458 270.181, 422.641 273.440, 421.526 274.588 C 419.050 277.139, 414.746 282.690, 409.731 289.799 L 405.963 295.142 478.065 294.821 L 550.167 294.500 549.508 289 C 548.542 280.933, 544.315 264.769, 541.517 258.444 C 538.667 251.998, 529.688 242.180, 523.130 238.336 C 520.605 236.857, 515.615 234.624, 512.041 233.375 C 506.284 231.363, 505.356 231.273, 503.911 232.581 C 502.653 233.719, 501.660 233.821, 499.575 233.028 C 496.131 231.719, 495.719 231.737, 496.595 233.155 C 497.039 233.873, 496.870 234.037, 496.147 233.591 C 495.508 233.196, 494.281 233.576, 493.421 234.436 C 492.561 235.296, 490.963 236, 489.870 236 C 488.776 236, 488.141 236.419, 488.457 236.931 C 488.774 237.443, 488.506 238.187, 487.862 238.585 C 487.158 239.020, 486.958 238.877, 487.360 238.227 C 487.728 237.631, 487.116 236.854, 486 236.500 C 484.884 236.146, 484.217 235.458, 484.518 234.972 C 484.818 234.485, 485.837 234.335, 486.782 234.638 C 488.236 235.104, 488.270 235.026, 487 234.126 C 486.175 233.542, 483.700 233.267, 481.500 233.516 C 478.307 233.877, 478.005 233.790, 480 233.084 C 481.375 232.597, 485.061 232.155, 488.191 232.100 C 491.321 232.045, 494.160 231.550, 494.500 231 C 495.219 229.837, 487.819 229.839, 481 231.004 M 0.442 261 C 0.442 277.225, 0.580 283.863, 0.748 275.750 C 0.916 267.637, 0.916 254.362, 0.748 246.250 C 0.580 238.137, 0.442 244.775, 0.442 261 M 315 235.146 C 307.025 235.572, 296.160 235.904, 290.856 235.884 C 285.552 235.864, 280.981 236.219, 280.698 236.674 C 280.416 237.128, 283.767 237.352, 288.146 237.172 C 293.524 236.951, 296.602 237.254, 297.630 238.108 C 298.867 239.135, 299.318 239.103, 300.039 237.936 C 300.728 236.819, 303.962 236.453, 314.589 236.290 C 322.104 236.175, 328.496 235.838, 328.793 235.540 C 329.861 234.472, 338.630 235.027, 340.002 236.250 C 341.194 237.313, 341.206 237.239, 340.079 235.750 C 338.627 233.831, 339.289 233.847, 315 235.146 M 470 235.657 C 464.505 237.563, 454 243.901, 454 245.309 C 454 245.872, 454.284 246.049, 454.631 245.702 C 455.592 244.742, 459.144 246.959, 458.448 248.084 C 458.114 248.625, 459.338 248.154, 461.170 247.038 C 463.001 245.921, 466.188 245.006, 468.250 245.004 C 470.915 245.001, 472 244.566, 472 243.500 C 472 242.675, 471.306 242, 470.458 242 C 469.610 242, 468.014 241.160, 466.912 240.132 C 464.922 238.279, 464.928 238.268, 467.704 238.686 C 471.887 239.316, 472.251 239.310, 475.500 238.545 C 477.760 238.012, 478.130 238.101, 477 238.904 C 475.078 240.269, 476.492 240.269, 481.411 238.903 C 484.302 238.100, 484.954 237.584, 483.911 236.924 C 483.135 236.433, 481.825 236.055, 481 236.086 C 479.993 236.122, 480.158 236.440, 481.500 237.051 C 482.846 237.664, 481.866 237.762, 478.500 237.352 C 472.487 236.620, 471.401 236.006, 476.083 235.985 C 478.657 235.973, 479.130 235.730, 478 235 C 476.049 233.739, 475.365 233.795, 470 235.657 M 509 235 C 510.034 235.669, 507.862 235.979, 502 236 C 497.325 236.017, 492.825 236.509, 492 237.094 C 490.907 237.870, 492.671 238.041, 498.500 237.725 C 502.900 237.487, 505.600 237.495, 504.500 237.743 C 501.119 238.506, 500.559 239.872, 503.613 239.905 C 505.201 239.923, 507.988 240.091, 509.808 240.280 C 511.627 240.468, 513.297 240.329, 513.519 239.970 C 513.741 239.611, 515.290 239.398, 516.961 239.498 C 518.632 239.597, 520 239.301, 520 238.839 C 520 238.378, 519.362 238, 518.583 238 C 517.804 238, 517.017 237.609, 516.833 237.132 C 516.650 236.655, 515.375 235.946, 514 235.556 C 511.684 234.900, 511.721 235, 514.500 236.917 C 517.688 239.116, 517.252 239.740, 513.814 237.900 C 512.584 237.242, 512.009 237.205, 512.381 237.807 C 512.762 238.424, 512.142 238.588, 510.777 238.231 C 509.553 237.911, 509.102 237.466, 509.776 237.241 C 511.655 236.615, 511.228 233.998, 509.250 234.015 C 507.754 234.028, 507.718 234.172, 509 235 M 373.750 235.749 C 371.024 235.956, 368.951 236.619, 368.885 237.305 C 368.651 239.729, 369.198 242.526, 370.086 243.450 C 371.315 244.727, 371.253 252.347, 370.004 253.596 C 369.343 254.257, 369.440 256.089, 370.290 259.046 C 371.437 263.030, 372.022 263.644, 375.841 264.862 C 381.464 266.656, 380.513 267.333, 373.584 266.467 L 368 265.770 368 260.415 C 368 256.906, 367.308 253.828, 365.990 251.483 C 364.481 248.795, 364.232 247.435, 364.990 246.018 C 366.559 243.088, 366.186 239.478, 364.122 237.611 C 362.621 236.252, 360.666 235.970, 354.372 236.206 C 347.091 236.478, 346.476 236.668, 346.182 238.735 C 346.008 239.964, 346.570 241.976, 347.432 243.207 C 349.119 245.615, 349.609 254, 348.063 254 C 347.548 254, 346.945 255.463, 346.723 257.250 L 346.320 260.500 346.160 257.250 C 346.072 255.463, 345.594 254, 345.098 254 C 344.151 254, 342.765 250.835, 340.061 242.500 L 338.439 237.500 333.575 237.189 L 328.712 236.879 329.356 241.581 C 330.035 246.532, 328.594 254, 326.961 254 C 326.433 254, 326 255.468, 326 257.263 C 326 259.685, 326.580 260.782, 328.250 261.521 C 329.972 262.282, 330.465 263.276, 330.353 265.758 L 330.205 269 335.603 269 C 340.333 269, 341 268.753, 341 267 C 341 264.762, 339.966 264.434, 338.267 266.133 C 337.644 266.756, 336.474 267.012, 335.667 266.702 C 334.538 266.269, 334.278 264.684, 334.541 259.839 C 334.904 253.138, 337 250.248, 337 256.448 C 337 259.018, 337.506 260.219, 338.750 260.604 C 342.639 261.805, 343.497 262.814, 343.246 265.890 L 342.992 269 348.389 269 C 354.044 269, 356.589 266.988, 353.278 265.136 C 351.771 264.293, 351.769 264.088, 353.248 262.609 C 356.076 259.781, 357.313 260.631, 356.727 265 C 356.193 268.982, 356.205 269, 359.564 269 C 362.152 269, 362.803 268.651, 362.362 267.500 C 362.045 266.675, 362.229 266, 362.771 266 C 363.312 266, 364.315 266.675, 365 267.500 C 365.880 268.561, 368.186 268.996, 372.872 268.985 C 380.779 268.966, 382.502 268.135, 381.652 264.750 C 381.158 262.781, 381.836 261.466, 385.017 258.221 C 388.702 254.461, 389 253.739, 389 248.564 C 389 243.619, 388.623 242.575, 385.750 239.563 C 382.097 235.732, 380.533 235.235, 373.750 235.749 M 312.105 237.915 C 310.984 238.624, 311.082 238.893, 312.605 239.283 C 314.250 239.704, 314.269 239.783, 312.750 239.884 C 311.788 239.948, 311 240.675, 311 241.500 C 311 242.325, 310.550 243, 310 243 C 309.450 243, 309 241.875, 309 240.500 C 309 238.250, 308.600 238, 305 238 C 301.095 238, 301 238.083, 301 241.500 C 301 243.425, 301.382 245, 301.848 245 C 303.507 245, 306.140 252.665, 305.821 256.562 C 305.417 261.494, 302.447 262.667, 301.382 258.316 C 301.002 256.767, 300.201 255.180, 299.601 254.790 C 298.964 254.374, 298.585 251.365, 298.691 247.552 C 298.849 241.883, 298.589 240.825, 296.714 239.512 C 294.415 237.902, 290.818 237.639, 284.772 238.638 C 281.514 239.177, 281.064 239.586, 281.203 241.877 C 281.291 243.320, 281.689 244.950, 282.088 245.500 C 283.112 246.911, 283.586 253.747, 282.720 254.613 C 282.324 255.009, 282 256.893, 282 258.799 C 282 260.705, 281.065 263.777, 279.922 265.626 C 278.151 268.492, 277.554 268.832, 275.874 267.933 C 273.595 266.713, 274.077 263.763, 277.095 260.457 C 281.815 255.286, 281.528 246.437, 276.476 241.385 C 272.972 237.881, 269.409 238.302, 265.385 242.695 L 262 246.391 262 243.146 L 262 239.900 256.354 240.200 C 249.654 240.556, 247.785 242.361, 249.943 246.393 C 250.874 248.132, 251.104 250.729, 250.684 254.745 C 249.909 262.164, 250.667 265.320, 253.073 264.691 C 255.273 264.116, 256.478 266.719, 254.895 268.627 C 253.964 269.748, 254.423 270, 257.401 270 C 261.022 270, 261.036 269.984, 259.469 267.593 C 257.844 265.112, 258.886 263.194, 261.112 264.569 C 261.723 264.947, 262.573 264.691, 263 264 C 264.358 261.802, 266.242 264.041, 265.626 267.121 C 265.117 269.665, 265.335 270, 267.494 270 C 269.255 270, 269.776 269.581, 269.362 268.500 C 268.638 266.613, 269.922 266.627, 272.441 268.532 C 275.202 270.620, 281.650 270.446, 282.883 268.250 C 283.819 266.583, 283.898 266.583, 284.540 268.250 C 284.967 269.358, 286.275 270, 288.107 270 C 291.505 270, 291.760 268.998, 289 266.500 C 287.900 265.505, 287 264.085, 287 263.345 C 287 260.712, 289.914 262.062, 292.685 265.979 C 294.233 268.167, 295.831 269.967, 296.236 269.979 C 296.641 269.990, 298.163 268.200, 299.619 266 C 303.028 260.848, 305.488 260.606, 304.694 265.500 L 304.126 269 309.504 269 C 315.176 269, 317.405 267.501, 314.688 265.513 C 313.456 264.613, 313.348 264.052, 314.235 263.165 C 314.876 262.524, 315.933 262, 316.583 262 C 318.237 262, 319.143 266.123, 317.836 267.698 C 316.970 268.741, 317.854 269, 322.271 269 C 326.197 269, 327.948 268.577, 328.349 267.532 C 329.008 265.815, 327.434 264.489, 326.510 265.984 C 325.545 267.545, 322.010 267.189, 321.347 265.463 C 321.023 264.617, 321.542 263.058, 322.502 261.998 C 323.737 260.633, 324.049 259.257, 323.570 257.285 C 322.551 253.092, 322.896 248.915, 324.532 245.635 C 325.339 244.017, 326 241.359, 326 239.730 C 326 237.145, 325.713 236.844, 323.750 237.370 C 322.512 237.701, 320.651 237.979, 319.614 237.986 C 317.955 237.998, 317.802 238.542, 318.345 242.500 C 319.161 248.457, 317.458 248.313, 316.358 242.332 C 315.464 237.470, 314.459 236.426, 312.105 237.915 M 261.750 247.575 C 261.337 247.992, 261 249.608, 261 251.167 C 261 253.247, 260.513 254, 259.167 254 C 256.360 254, 256.137 254.765, 257.844 258.531 C 259.237 261.603, 259.850 262, 263.208 262 C 267.542 262, 267.615 261.869, 265.278 258.301 C 264.331 256.856, 263.318 253.680, 263.028 251.245 C 262.738 248.810, 262.163 247.158, 261.750 247.575 M 150.747 248.746 L 140.995 249.072 141.594 259.286 C 142.293 271.212, 144.574 293.925, 145.122 294.417 C 145.330 294.604, 154.899 295.081, 166.386 295.479 L 187.272 296.202 186.651 293.351 C 186.309 291.783, 185.317 281.950, 184.447 271.500 C 183.576 261.050, 182.454 251.488, 181.953 250.250 C 180.965 247.807, 180.059 247.763, 150.747 248.746 M 94.653 262.831 C 93.741 263.838, 93.241 264.907, 93.540 265.207 C 93.839 265.506, 92.603 267.013, 90.792 268.556 C 88.982 270.098, 88.287 271.068, 89.250 270.711 C 90.213 270.355, 91 270.485, 91 271 C 91 271.515, 91.711 271.664, 92.581 271.331 C 93.487 270.983, 93.965 269.974, 93.701 268.966 C 93.412 267.859, 94.030 266.833, 95.371 266.195 C 99.030 264.453, 101.139 263.965, 100.493 265.011 C 100.157 265.555, 100.610 266, 101.500 266 C 102.390 266, 102.842 266.446, 102.505 266.992 C 102.168 267.538, 102.355 268.775, 102.921 269.742 C 103.742 271.145, 103.878 270.823, 103.594 268.147 C 103.398 266.303, 102.291 263.846, 101.132 262.688 C 99.046 260.602, 99.011 260.600, 97.431 262.541 C 96.083 264.197, 95.922 264.229, 96.387 262.750 C 97.085 260.529, 96.721 260.546, 94.653 262.831 M 649.250 263.674 C 646.461 265.620, 646.308 267.355, 649 266.500 C 650.776 265.936, 651 266.320, 651 269.933 C 651 272.881, 651.413 274, 652.500 274 C 653.667 274, 654 272.667, 654 268 C 654 261.535, 653.270 260.870, 649.250 263.674 M 780.506 269.993 C 778.439 272.151, 776.690 273, 774.313 273 C 771.992 273, 771 273.463, 771 274.545 C 771 275.775, 771.766 275.963, 774.750 275.467 C 776.813 275.125, 779.175 274.581, 780 274.258 C 782.428 273.311, 783.425 273.322, 784.749 274.311 C 785.713 275.030, 785.854 274.472, 785.367 271.872 C 784.443 266.939, 783.706 266.654, 780.506 269.993 M 148.465 273.818 C 149.291 281.854, 149.760 283, 152.224 283 C 153.820 283, 154.109 282.537, 153.630 280.750 C 153.299 279.512, 153.005 277.375, 152.978 276 C 152.950 274.625, 151.778 272.150, 150.372 270.500 L 147.816 267.500 148.465 273.818 M 364 269.862 C 364 270.639, 355.565 271.055, 335.750 271.258 C 312.408 271.496, 313.754 271.547, 343.500 271.553 C 363.300 271.557, 376.592 271.410, 373.038 271.227 C 369.484 271.044, 365.997 270.412, 365.288 269.824 C 364.369 269.061, 364 269.072, 364 269.862 M 291.500 275.863 C 289.300 276.864, 286.882 278.429, 286.128 279.342 C 285.373 280.254, 283.573 281.036, 282.128 281.079 C 280.682 281.122, 280.081 281.391, 280.792 281.676 C 281.784 282.074, 281.813 282.520, 280.919 283.597 C 280.279 284.369, 280.067 285, 280.449 285 C 280.831 285, 280.436 285.707, 279.571 286.571 C 278.707 287.436, 278 288.963, 278 289.964 C 278 290.966, 277.325 292.045, 276.500 292.362 C 275.675 292.678, 275 293.626, 275 294.469 C 275 295.311, 274.212 296.014, 273.250 296.030 C 271.771 296.056, 271.733 296.197, 273 296.937 C 273.825 297.418, 276.075 297.658, 278 297.470 C 279.925 297.282, 282.089 297.099, 282.809 297.064 C 283.584 297.026, 283.812 296.490, 283.367 295.750 C 282.880 294.939, 283.226 294.995, 284.350 295.908 C 287.014 298.069, 284.817 299.335, 278.747 299.137 L 273.406 298.962 271.065 306.231 C 269.777 310.229, 268.748 313.725, 268.777 314 C 268.806 314.275, 268.313 315.175, 267.682 316 C 267.051 316.825, 267.539 316.643, 268.767 315.595 C 269.995 314.547, 271 313.335, 271 312.902 C 271 311.981, 281.448 301.925, 283.788 300.594 C 284.665 300.095, 287.095 299.754, 289.188 299.836 C 291.282 299.918, 292.943 299.651, 292.879 299.243 C 292.534 297.036, 293.212 296, 295 296 C 296.100 296, 297 296.450, 297 297 C 297 297.550, 297.675 298, 298.500 298 C 300.491 298, 300.396 297.017, 298.250 295.410 C 296.658 294.218, 296.703 294.151, 298.750 294.666 C 299.988 294.978, 301 295.679, 301 296.224 C 301 296.768, 301.752 296.926, 302.670 296.573 C 303.589 296.221, 304.623 296.390, 304.968 296.949 C 305.314 297.508, 309.850 298.036, 315.048 298.123 C 320.247 298.210, 325.400 298.660, 326.500 299.124 C 327.780 299.664, 327.059 299.745, 324.500 299.351 C 322.300 299.012, 320.777 299.034, 321.115 299.399 C 322.615 301.019, 336.269 304.138, 344.288 304.693 C 352.672 305.273, 353.201 305.186, 355.788 302.813 C 361.228 297.823, 371.017 295.253, 386.366 294.785 C 389.763 294.681, 391.218 293.721, 398.366 286.860 C 405.812 279.714, 406.162 279.211, 402.500 280.916 C 388.515 287.428, 371.386 289.881, 355.109 287.704 C 348.281 286.790, 347.637 286.498, 346.640 283.858 C 345.824 281.696, 344.911 281, 342.888 281 C 341.354 281, 339.951 281.685, 339.597 282.608 C 339.031 284.084, 338.774 284.082, 336.496 282.590 C 335.131 281.695, 332.773 280.778, 331.257 280.553 C 329.740 280.327, 324.039 278.761, 318.587 277.072 C 306.848 273.434, 297.734 273.028, 291.500 275.863 M 647.571 277.571 C 644.196 280.947, 646.863 289, 651.357 289 C 654.680 289, 656 287.105, 656 282.335 C 656 279.142, 655.514 277.810, 654.066 277.035 C 651.353 275.583, 649.398 275.745, 647.571 277.571 M 102.880 279.948 C 100.561 280.437, 94.161 286.587, 95.126 287.400 C 95.332 287.574, 97.237 287.500, 99.361 287.236 C 101.612 286.956, 102.720 286.445, 102.019 286.012 C 99.878 284.688, 103.068 281, 106.354 281 C 108.977 281, 109.189 281.261, 108.787 284 L 108.346 287 113.951 287 C 118.243 287, 119.941 286.550, 121.202 285.077 C 123.481 282.415, 126.582 283.046, 126.221 286.099 C 125.835 289.371, 127.765 287.306, 128.948 283.183 C 129.604 280.893, 129.529 279.984, 128.680 279.942 C 120.071 279.516, 104.915 279.520, 102.880 279.948 M 732.356 286.216 C 732.295 288.527, 731.740 290.587, 731.123 290.792 C 730.505 290.998, 730 291.613, 730 292.159 C 730 292.705, 731.292 292.105, 732.870 290.826 C 734.449 289.547, 735.550 288.168, 735.318 287.761 C 735.086 287.355, 735.555 287.276, 736.361 287.585 C 737.166 287.894, 738.025 287.551, 738.269 286.823 C 738.513 286.096, 738.595 286.288, 738.450 287.250 C 738.203 288.895, 739.593 289.485, 742.750 289.075 C 743.438 288.985, 744 289.682, 744 290.623 C 744 291.564, 744.277 292.056, 744.616 291.718 C 744.954 291.379, 744.771 289.783, 744.210 288.171 C 743.393 285.828, 743.520 284.888, 744.844 283.479 C 746.038 282.210, 746.089 281.952, 745.028 282.555 C 743.583 283.377, 736.971 283.315, 733.983 282.451 C 732.809 282.112, 732.441 282.964, 732.356 286.216 M 748 283.500 C 747.140 284.536, 747.102 285, 747.878 285 C 748.495 285, 749 285.480, 749 286.067 C 749 286.679, 748.148 286.864, 747.006 286.502 C 745.484 286.019, 745.153 286.235, 745.606 287.416 C 746.051 288.577, 746.659 288.718, 748.034 287.982 C 750.416 286.707, 751.281 286.736, 750.461 288.064 C 750.013 288.788, 751.031 288.906, 753.652 288.432 C 758.614 287.536, 759 287.279, 759 284.871 C 759 283.358, 758.443 282.940, 756.750 283.180 C 755.248 283.394, 754.598 284.082, 754.794 285.250 C 754.955 286.212, 754.618 287, 754.044 287 C 753.470 287, 753 286.148, 753 285.107 C 753 284.066, 752.288 282.941, 751.418 282.607 C 749.328 281.805, 749.428 281.779, 748 283.500 M 0 295.934 C 0 299.878, 0.100 300, 3.343 300 C 6.646 300, 6.678 299.956, 6.081 296.250 C 5.571 293.088, 5.047 292.450, 2.738 292.184 C 0.151 291.885, 0 292.091, 0 295.934 M 63.741 295.717 C 59.205 296.403, 57.666 300.715, 58.415 310.632 C 59.188 320.856, 59.432 321.517, 62.524 321.773 C 64.458 321.933, 65.022 321.487, 65.100 319.739 C 65.195 317.603, 65.236 317.615, 66 320 L 66.801 322.500 66.900 319.832 C 66.955 318.364, 67.273 316.452, 67.607 315.582 C 67.941 314.712, 67.716 314, 67.107 314 C 66.498 314, 66.112 314.506, 66.250 315.125 C 66.388 315.744, 65.938 316.456, 65.250 316.708 C 64.450 317.002, 64 316.216, 64 314.524 C 64 312.701, 64.387 312.101, 65.250 312.588 C 66.250 313.152, 66.250 313.024, 65.250 311.947 C 64.563 311.206, 64.061 309.453, 64.136 308.050 C 64.256 305.801, 64.322 305.757, 64.696 307.677 C 64.929 308.875, 65.848 310.450, 66.737 311.177 C 68.160 312.341, 68.228 312.272, 67.308 310.608 C 66.732 309.567, 66.469 307.923, 66.722 306.954 C 67.024 305.799, 66.463 304.964, 65.091 304.529 C 63.941 304.164, 63 303.390, 63 302.810 C 63 302.154, 63.568 302.226, 64.500 303 C 66.193 304.405, 66.163 304.438, 66.357 300.903 C 66.436 299.475, 67.118 297.563, 67.872 296.653 C 69.374 294.844, 69.428 294.857, 63.741 295.717 M 176.015 299.849 C 176.036 302.122, 177.154 303.440, 179.386 303.825 C 180.753 304.061, 181.105 303.717, 180.667 302.575 C 180.335 301.709, 180.499 301, 181.031 301 C 181.564 301, 182 301.675, 182 302.500 C 182 303.333, 182.889 304, 184 304 C 185.290 304, 186 303.333, 186 302.122 C 186 299.495, 184.117 298.331, 179.750 298.260 C 176.900 298.213, 176.004 298.594, 176.015 299.849 M 464 305.361 C 464 305.627, 465.653 306.390, 467.672 307.057 C 469.692 307.723, 472.280 309.223, 473.422 310.390 C 474.810 311.807, 476.743 312.510, 479.244 312.506 L 482.989 312.500 480.744 310.772 C 479.510 309.822, 478.085 309.034, 477.579 309.022 C 477.072 309.010, 475.947 308.380, 475.079 307.622 C 473.571 306.307, 464 304.353, 464 305.361 M 416.436 315.971 C 415.371 317.064, 412.925 319.281, 411.001 320.897 C 409.076 322.513, 407.761 324.094, 408.077 324.411 C 409.157 325.491, 418.729 320.144, 419.245 318.172 C 420.098 314.908, 418.608 313.740, 416.436 315.971 M 113.500 320 C 113.995 321.560, 113.680 322, 112.067 322 C 109.889 322, 109.693 322.918, 111 327 C 111.534 328.667, 111.834 328.917, 111.900 327.750 C 111.955 326.788, 112.623 326, 113.385 326 C 115.221 326, 118.296 330.699, 116.989 331.507 C 115.452 332.457, 115.824 334, 117.591 334 C 118.922 334, 119.093 333.085, 118.634 328.413 C 118.137 323.352, 118.237 322.952, 119.701 324.163 C 120.590 324.898, 122.136 327.300, 123.137 329.500 C 124.137 331.700, 124.956 332.825, 124.956 332 C 124.956 329.479, 121.363 322.416, 118.925 320.145 C 115.892 317.319, 112.621 317.232, 113.500 320 M 407.500 334 C 407.160 334.550, 407.131 335.403, 407.435 335.895 C 407.740 336.388, 407.316 337.048, 406.494 337.364 C 405.594 337.709, 404.994 339.241, 404.985 341.219 C 404.973 343.705, 404.735 344.137, 404 343 C 403.321 341.950, 403.026 341.885, 403.015 342.782 C 403.007 343.487, 401.988 344.471, 400.750 344.969 C 399.512 345.466, 399.063 345.902, 399.750 345.937 C 402.436 346.073, 400.824 347.667, 398 347.667 C 394.737 347.667, 394.029 346.587, 396.636 345.586 C 398.151 345.005, 398.151 344.824, 396.636 343.150 C 395.736 342.156, 395 340.885, 395 340.326 C 395 338.325, 398.554 336.070, 400.787 336.655 C 402.397 337.076, 403 336.793, 403 335.617 C 403 334.345, 401.941 334, 398.031 334 C 394.185 334, 393.184 334.316, 393.600 335.399 C 393.895 336.168, 393.608 337.124, 392.961 337.524 C 392.087 338.064, 392.134 338.494, 393.143 339.203 C 394.101 339.876, 393.690 340.027, 391.750 339.717 C 390.238 339.475, 389 339.665, 389 340.139 C 389 340.612, 389.436 341, 389.969 341 C 390.501 341, 390.650 341.788, 390.299 342.750 C 389.726 344.321, 389.883 344.305, 391.830 342.595 C 393.780 340.883, 394 340.861, 394 342.377 C 394 344.174, 389.734 346.375, 389.165 344.872 C 388.980 344.386, 388.418 344.242, 387.915 344.553 C 387.412 344.864, 387 344.641, 387 344.059 C 387 343.477, 387.466 343, 388.035 343 C 388.737 343, 388.726 342.356, 388 341 C 386.594 338.373, 385.136 338.466, 384.092 341.250 C 383.464 342.928, 383.652 343.649, 384.833 344.086 C 387.668 345.136, 375.994 345.947, 371.181 345.035 C 368.606 344.547, 362 344.095, 356.500 344.030 C 351 343.965, 343.800 343.774, 340.500 343.605 C 337.200 343.436, 324.600 342.777, 312.500 342.141 C 282.549 340.566, 251.874 340.096, 249.750 341.178 C 248.636 341.746, 248 341.694, 248 341.035 C 248 340.466, 248.675 340, 249.500 340 C 251.344 340, 251.406 338.937, 249.697 336.600 C 248.609 335.112, 247.584 334.940, 243.477 335.556 C 239.377 336.170, 238.929 336.430, 240.781 337.115 C 242.003 337.567, 243.619 337.700, 244.372 337.411 C 245.125 337.122, 246.011 337.586, 246.340 338.443 C 246.837 339.740, 245.899 340.027, 240.719 340.163 L 234.500 340.326 240 341 L 245.500 341.674 238 341.767 C 233.665 341.820, 231.316 341.540, 232.434 341.102 C 235.633 339.849, 232.647 338.910, 225.013 338.768 C 221.156 338.697, 218 338.346, 218 337.990 C 218 337.011, 208.126 336.986, 207.522 337.964 C 207.234 338.431, 211.386 339.103, 216.749 339.458 C 231.184 340.411, 232.219 340.962, 218.586 340.434 C 212.033 340.180, 206.086 339.486, 205.369 338.892 C 204.653 338.297, 203.490 338.009, 202.784 338.252 C 202.078 338.494, 200.223 338.332, 198.663 337.891 C 197.103 337.450, 192.378 336.837, 188.163 336.528 C 183.948 336.220, 178.138 335.717, 175.250 335.412 C 171.836 335.050, 170 335.231, 170 335.928 C 170 336.518, 168.227 337, 166.059 337 C 162.143 337, 159.674 338.584, 162.187 339.485 C 163.985 340.129, 231.853 344, 241.351 344 C 245.558 344, 249 343.623, 249 343.162 C 249 341.763, 256.285 341.952, 257.947 343.394 C 259.104 344.399, 267.156 345.045, 289.500 345.927 C 306 346.578, 325.800 347.397, 333.500 347.748 C 351.709 348.576, 353.905 348.535, 363.945 347.182 C 371.167 346.208, 372.631 346.261, 374.053 347.548 C 375.152 348.543, 379.507 349.386, 386.887 350.034 C 405.023 351.625, 409.902 350.923, 405.250 347.392 C 403.637 346.168, 403.684 346.061, 405.857 346.032 C 407.512 346.009, 408.046 345.563, 407.651 344.532 C 407.341 343.725, 407.540 342.785, 408.092 342.443 C 408.746 342.039, 408.687 341.328, 407.926 340.411 C 407.155 339.482, 407.086 338.573, 407.722 337.750 C 409.262 335.760, 410.021 333, 409.028 333 C 408.527 333, 407.840 333.450, 407.500 334 M 477.118 355 C 477.018 356.375, 476.388 358.192, 475.718 359.037 C 473.771 361.493, 468.343 365, 466.489 365 C 465.512 365, 464.996 365.548, 465.279 366.286 C 465.773 367.572, 464.180 368.013, 458.839 368.067 C 457.375 368.082, 455.927 368.748, 455.620 369.547 C 455.004 371.153, 459.141 371.522, 464.886 370.373 C 469.486 369.453, 478.294 359.096, 477.720 355.284 C 477.319 352.628, 477.291 352.615, 477.118 355 M 0 393.903 C 0 397.694, 0.253 398.101, 2.945 398.639 C 4.565 398.963, 6.702 399.999, 7.695 400.942 C 9.408 402.569, 9.653 402.496, 12.500 399.528 C 18.075 393.716, 18.152 393.512, 14.806 393.388 C 13.147 393.327, 11.499 392.824, 11.144 392.272 C 10.790 391.720, 8.700 391.341, 6.500 391.430 C 4.300 391.519, 1.938 391.179, 1.250 390.673 C 0.303 389.978, 0 390.761, 0 393.903 M 34 391.965 C 34 392.999, 37.399 395.114, 38.709 394.895 C 39.144 394.823, 40.400 394.823, 41.500 394.897 C 43.047 395, 43.187 395.229, 42.117 395.907 C 41.100 396.551, 41.565 396.965, 43.876 397.473 C 45.604 397.852, 46.762 398.576, 46.450 399.081 C 46.137 399.587, 46.359 400, 46.941 400 C 48.282 400, 48.273 399.379, 46.897 396.807 C 46.051 395.226, 46.109 394.524, 47.147 393.797 C 48.238 393.032, 48.209 392.930, 47 393.274 C 46.175 393.509, 43.756 393.093, 41.624 392.350 C 37.074 390.765, 34 390.610, 34 391.965 M 16.552 397.538 C 13.934 400.363, 13.322 402, 14.883 402 C 15.369 402, 15.985 402.836, 16.253 403.858 C 16.782 405.884, 21.352 407.248, 22.791 405.809 C 23.316 405.284, 24.213 405.551, 24.965 406.458 C 26.506 408.315, 29.638 408.485, 30.338 406.750 C 30.651 405.975, 30.872 406.137, 30.921 407.177 C 30.981 408.459, 31.730 408.762, 34.098 408.462 L 37.196 408.070 36.841 412.535 C 36.599 415.580, 36.874 417, 37.708 417 C 38.380 417, 41.083 417.731, 43.715 418.625 C 46.347 419.519, 48.950 420.351, 49.500 420.474 C 50.050 420.597, 51.175 420.954, 52 421.268 C 52.825 421.581, 54.625 422.041, 56 422.290 C 57.375 422.539, 59.288 423.074, 60.250 423.478 C 61.596 424.044, 62 423.727, 62 422.107 C 62 420.901, 61.359 420, 60.500 420 C 59.675 420, 58.993 419.438, 58.985 418.750 C 58.974 417.917, 58.646 418, 58 419 C 57.174 420.279, 57.028 420.239, 57.015 418.731 C 57.004 417.375, 57.545 417.099, 59.331 417.547 C 61.155 418.005, 62.221 417.410, 64.229 414.816 C 65.641 412.992, 67.824 410.418, 69.081 409.096 L 71.365 406.691 68.451 407.423 C 66.849 407.825, 65.304 408.198, 65.019 408.252 C 64.733 408.305, 63.375 407.846, 62 407.230 C 60.625 406.615, 56.244 405.126, 52.265 403.921 C 46.306 402.117, 44.756 401.957, 43.483 403.014 C 42.213 404.068, 41.720 404.028, 40.719 402.792 C 39.159 400.865, 32.245 398.331, 29 398.496 C 27.625 398.566, 25.927 398.193, 25.226 397.669 C 24.525 397.144, 23.662 397.005, 23.307 397.360 C 22.952 397.714, 21.862 397.280, 20.883 396.394 C 19.232 394.900, 18.921 394.982, 16.552 397.538 M 90.627 404.516 C 89.740 405.402, 88.593 405.866, 88.077 405.547 C 87.561 405.228, 86.813 405.494, 86.415 406.138 C 85.963 406.869, 86.124 407.041, 86.845 406.595 C 87.536 406.169, 88 406.530, 88 407.492 C 88 409.263, 94.128 412.241, 97.783 412.247 C 99.039 412.249, 100.874 411.519, 101.862 410.625 C 104.074 408.623, 105 408.565, 105 410.427 C 105 411.211, 104.213 412.059, 103.250 412.311 C 102.122 412.606, 102.434 412.809, 104.128 412.884 C 105.573 412.948, 107.373 412.241, 108.128 411.313 C 109.340 409.822, 109.279 409.708, 107.609 410.336 C 106.065 410.915, 105.932 410.787, 106.884 409.640 C 108.877 407.238, 105.351 406.815, 101.733 409.021 C 98.199 411.176, 96.535 411.561, 97.500 410 C 97.840 409.450, 97.390 409, 96.500 409 C 95.528 409, 95.140 409.499, 95.528 410.250 C 95.883 410.938, 95.294 410.420, 94.220 409.101 C 92.756 407.302, 92.139 407.052, 91.758 408.101 C 91.377 409.151, 90.949 409.217, 90.041 408.366 C 89.107 407.490, 89.349 406.869, 91.105 405.639 C 92.356 404.763, 93.123 403.789, 92.809 403.475 C 92.495 403.162, 91.513 403.630, 90.627 404.516 M 76.681 409.653 C 76.322 410.011, 74.722 410.268, 73.125 410.223 C 70.922 410.160, 69.498 411.041, 67.221 413.875 L 64.220 417.609 66.520 419.823 C 68.166 421.407, 68.967 421.676, 69.334 420.769 C 69.727 419.799, 70.098 419.853, 70.909 421 C 72.326 423.004, 72.282 424.292, 70.827 423.393 C 70.181 422.994, 68.381 422.630, 66.827 422.584 C 64.678 422.520, 64 422.960, 64 424.417 C 64 425.471, 64.296 426.037, 64.658 425.675 C 65.020 425.313, 65.807 425.421, 66.408 425.915 C 67.009 426.408, 68.850 427.034, 70.500 427.306 C 72.150 427.578, 74.767 428.295, 76.315 428.900 C 79.788 430.257, 86.340 430.358, 85.526 429.043 C 85.201 428.516, 82.258 427.334, 78.986 426.416 C 75.715 425.498, 73.262 424.385, 73.535 423.943 C 73.809 423.500, 73.575 422.856, 73.016 422.510 C 70.985 421.255, 72.005 419.932, 74.127 421.068 C 75.786 421.956, 76.443 421.909, 77.112 420.853 C 77.791 419.782, 77.973 419.841, 77.985 421.139 C 77.995 422.217, 79.206 423.004, 81.528 423.439 C 83.736 423.854, 84.800 424.514, 84.373 425.205 C 83.950 425.890, 84.151 426.025, 84.903 425.560 C 85.569 425.148, 87.201 424.692, 88.528 424.546 C 91.134 424.260, 98 419.492, 98 417.968 C 98 417.457, 96.832 416.745, 95.405 416.387 C 93.681 415.954, 93.222 415.481, 94.037 414.977 C 95.352 414.164, 94.300 413.713, 88.250 412.495 C 86.136 412.070, 85 412.231, 85 412.956 C 85 413.748, 84.440 413.771, 83.066 413.035 C 82.002 412.466, 80.202 412, 79.066 412 C 76.800 412, 76.264 410.464, 78.250 409.662 C 78.948 409.381, 79.021 409.123, 78.417 409.079 C 77.821 409.036, 77.040 409.294, 76.681 409.653 M 40 411.898 C 40 412.442, 40.897 413.515, 41.994 414.283 C 43.090 415.051, 43.721 415.946, 43.395 416.272 C 43.069 416.598, 43.817 416.599, 45.057 416.275 C 46.419 415.919, 47.071 416.076, 46.703 416.672 C 46.358 417.229, 47.052 417.552, 48.296 417.413 C 49.508 417.277, 51.591 417.129, 52.925 417.083 C 55.314 417.001, 55.321 416.972, 53.425 415.129 C 52.366 414.100, 51.328 413.409, 51.119 413.594 C 50.909 413.779, 50.009 413.555, 49.119 413.096 C 46.340 411.666, 40 410.833, 40 411.898" stroke="none" fill="#00ff80" fill-rule="evenodd"/>
</svg>