<svg xmlns="http://www.w3.org/2000/svg" width="257" height="196" viewBox="0 0 257 196" version="1.1">
	<path d="M 247.989 39.399 C 247.312 41.655, 246.679 43.898, 246.584 44.384 C 246.489 44.870, 245.643 44.500, 244.705 43.563 C 242.565 41.423, 242.540 42.811, 244.625 48.021 C 245.519 50.255, 245.973 52.360, 245.634 52.699 C 245.295 53.039, 245.478 53.871, 246.041 54.549 C 246.796 55.459, 246.292 56.051, 244.117 56.809 C 242.496 57.374, 240.835 57.536, 240.425 57.168 C 240.015 56.801, 240.003 57.063, 240.399 57.750 C 240.794 58.438, 240.615 59, 240 59 C 239.385 59, 239.160 59.450, 239.500 60 C 239.867 60.594, 238.573 61.040, 236.309 61.100 C 233.341 61.177, 233.010 61.343, 234.809 61.850 C 236.079 62.207, 237.116 62.950, 237.113 63.500 C 237.111 64.050, 238.219 64.414, 239.577 64.309 C 240.935 64.203, 241.784 64.541, 241.464 65.059 C 241.144 65.576, 239.896 66.052, 238.691 66.116 C 237.184 66.196, 237.010 66.368, 238.135 66.667 C 239.035 66.907, 240.031 68.403, 240.348 69.992 C 240.821 72.356, 241.348 72.804, 243.245 72.460 C 245.598 72.034, 245.661 72.238, 245.081 78.357 C 245.037 78.828, 244.325 78.955, 243.500 78.638 C 242.675 78.322, 242 78.513, 242 79.064 C 242 79.614, 240.988 80.471, 239.750 80.969 L 237.500 81.873 239.750 81.937 C 241.736 81.993, 242 82.521, 242 86.441 C 242 90.982, 240.519 93.434, 239.692 90.262 C 239.439 89.293, 239.149 90.075, 239.048 92 C 238.877 95.271, 238.794 95.353, 237.780 93.250 C 236.486 90.568, 234.328 90.304, 233.689 92.750 C 233.438 93.713, 233.177 91.575, 233.110 88 C 233.043 84.425, 232.416 80.375, 231.718 79 C 230.939 77.466, 230.678 74.857, 231.041 72.250 C 231.368 69.912, 231.319 68, 230.934 68 C 230.549 68, 229.892 66.987, 229.476 65.750 C 228.740 63.567, 228.705 63.580, 228.297 66.202 C 227.723 69.890, 225.425 70.487, 212.643 70.273 C 203.576 70.120, 201.575 69.801, 200.502 68.333 C 199.364 66.777, 199.015 66.743, 197.454 68.038 C 195.332 69.798, 183.072 70.209, 175.164 68.784 C 170.193 67.888, 169.869 67.658, 170.433 65.411 C 170.766 64.085, 170.764 63, 170.429 63 C 169.104 63, 166.065 67.626, 166.033 69.691 C 166.015 70.896, 165.550 72.160, 165 72.500 C 164.396 72.873, 164 71.510, 164 69.059 C 164 65.396, 163.756 65, 161.500 65 C 159.196 65, 159 65.361, 159 69.590 C 159 72.866, 158.452 74.655, 157.086 75.840 C 155.628 77.104, 154.913 79.806, 154.086 87.167 C 152.687 99.630, 152.523 100, 148.393 100 C 146.527 100, 145 100.450, 145 101 C 145 102.587, 141.275 102.160, 140.638 100.500 C 140.322 99.675, 140.574 99, 141.198 99 C 141.822 99, 142.052 98.719, 141.708 98.375 C 141.364 98.031, 139.356 98.441, 137.246 99.285 C 133.433 100.810, 133.402 100.803, 132.306 98.160 C 131.700 96.697, 130.680 90.550, 130.041 84.500 C 129.402 78.450, 128.400 71.580, 127.816 69.233 C 126.671 64.633, 124.620 62.238, 125.169 66.141 L 125.500 68.500 113.641 68.282 C 106.464 68.150, 101.233 67.608, 100.391 66.910 C 99.339 66.037, 98.659 66.038, 97.602 66.915 C 96.694 67.669, 92.758 67.974, 86.352 67.787 L 76.500 67.500 76.715 64 C 76.833 62.075, 76.654 59.825, 76.316 59 C 75.979 58.175, 75.811 56.414, 75.944 55.087 L 76.186 52.674 49.765 53.317 L 23.345 53.959 21.189 50.229 C 16.349 41.857, 10 36.937, 10 41.559 C 10 43.777, 8.408 43.272, 6.573 40.471 C 5.086 38.201, 4.759 38.098, 3.386 39.471 C 2.545 40.312, 1.439 41, 0.929 41 C 0.365 41, -0 71.476, -0 118.504 L -0 196.008 128.750 195.754 L 257.500 195.500 257.795 120.500 C 258.084 47.049, 257.776 33.163, 255.923 36.090 C 255.432 36.865, 255.023 37.050, 255.013 36.500 C 255.003 35.950, 253.696 35.455, 252.109 35.399 C 249.566 35.310, 249.075 35.787, 247.989 39.399 M 0.476 118.500 C 0.476 161.400, 0.599 178.804, 0.750 157.176 C 0.900 135.547, 0.900 100.447, 0.750 79.176 C 0.599 57.904, 0.476 75.600, 0.476 118.500 M 235 53.927 C 235 54.436, 235.787 55.059, 236.750 55.311 C 238.252 55.703, 238.267 55.784, 236.857 55.884 C 234.719 56.035, 233.514 59, 235.590 59 C 236.431 59, 236.890 58.632, 236.612 58.182 C 236.334 57.732, 237.766 56.763, 239.795 56.030 C 243.018 54.864, 243.232 54.598, 241.492 53.918 C 238.683 52.822, 235 52.827, 235 53.927 M 60.559 60.574 C 62.444 62.103, 62.432 62.134, 60.154 61.643 C 57.449 61.060, 55 61.784, 55 63.166 C 55 63.690, 55.429 63.853, 55.954 63.528 C 57.516 62.563, 62 64.105, 62 65.608 C 62 66.374, 62.498 67, 63.107 67 C 63.716 67, 63.955 66.325, 63.638 65.500 C 63.294 64.604, 63.630 64, 64.472 64 C 65.248 64, 66.157 63.555, 66.493 63.011 C 66.856 62.424, 66.407 62.290, 65.388 62.681 C 64.132 63.164, 63.891 62.985, 64.490 62.015 C 65.003 61.186, 64.920 60.931, 64.268 61.334 C 63.695 61.688, 62.671 61.308, 61.991 60.489 C 61.311 59.670, 60.274 59, 59.686 59 C 59.099 59, 59.491 59.708, 60.559 60.574 M 68 63.393 C 68 63.609, 68.698 64.054, 69.552 64.382 C 70.442 64.723, 70.843 64.555, 70.493 63.989 C 69.906 63.038, 68 62.583, 68 63.393 M 66 66.059 C 66 66.641, 66.450 66.840, 67 66.500 C 67.550 66.160, 68 65.684, 68 65.441 C 68 65.198, 67.550 65, 67 65 C 66.450 65, 66 65.477, 66 66.059 M 242 66.941 C 242 67.459, 242.445 68.157, 242.989 68.493 C 243.555 68.843, 243.723 68.442, 243.382 67.552 C 242.717 65.820, 242 65.503, 242 66.941 M 78 69.799 C 78 70.338, 74.988 70.517, 70.882 70.224 C 62.256 69.607, 31.123 71.991, 30.294 73.333 C 29.935 73.914, 30.770 74.024, 32.411 73.612 C 33.901 73.238, 36.680 73.224, 38.586 73.582 C 41.393 74.109, 41.834 74.495, 40.904 75.616 C 40.010 76.693, 40.098 77, 41.304 77 C 42.156 77, 43.002 76.226, 43.184 75.281 C 43.466 73.819, 45.011 73.513, 53.508 73.236 C 65.051 72.860, 64.318 72.854, 69.433 73.364 C 71.596 73.579, 74.634 73.392, 76.183 72.947 C 77.732 72.503, 79 72.446, 79 72.820 C 79 73.194, 80.688 73.545, 82.750 73.600 C 84.813 73.655, 90.550 73.975, 95.500 74.311 C 105.801 75.010, 105.243 73.393, 94.825 72.355 C 91.346 72.009, 88.029 71.358, 87.454 70.909 C 86.879 70.461, 85.529 70.150, 84.454 70.218 C 83.379 70.287, 81.487 70.010, 80.250 69.604 C 78.995 69.192, 78 69.278, 78 69.799 M 169 71.543 C 169 73.874, 169.213 74.068, 170.556 72.954 C 171.455 72.208, 174.517 71.694, 177.806 71.737 C 183.086 71.806, 183.209 71.758, 179.500 71.082 C 177.300 70.680, 174.037 70.012, 172.250 69.596 C 169.199 68.887, 169 69.006, 169 71.543 M 89.269 70.693 C 90.242 70.947, 91.592 70.930, 92.269 70.656 C 92.946 70.382, 92.150 70.175, 90.500 70.195 C 88.850 70.215, 88.296 70.439, 89.269 70.693 M 115 71 C 115 71.550, 116.088 72, 117.418 72 C 118.748 72, 120.548 72.273, 121.418 72.607 C 122.456 73.005, 123 72.662, 123 71.607 C 123 70.399, 122.007 70, 119 70 C 116.800 70, 115 70.450, 115 71 M 124 71.417 C 124 72.287, 124.713 73, 125.583 73 C 126.454 73, 126.989 72.466, 126.771 71.813 C 126.153 69.958, 124 69.651, 124 71.417 M 185.280 71.156 C 184.257 71.560, 185.945 71.889, 189.250 71.930 C 192.412 71.968, 195 71.822, 195 71.605 C 195 70.833, 187.030 70.465, 185.280 71.156 M 197.813 71.683 C 198.534 71.972, 199.397 71.936, 199.729 71.604 C 200.061 71.272, 199.471 71.036, 198.417 71.079 C 197.252 71.127, 197.015 71.364, 197.813 71.683 M 202.348 71.681 C 203.285 72.618, 212.924 72.686, 212.347 71.752 C 212.091 71.338, 209.584 71, 206.774 71 C 203.965 71, 201.973 71.306, 202.348 71.681 M 223 72.500 C 223 73.325, 223.638 74, 224.418 74 C 225.198 74, 226.452 74.236, 227.204 74.525 C 228.060 74.853, 228.628 74.293, 228.723 73.025 C 228.844 71.417, 228.271 71, 225.938 71 C 223.993 71, 223 71.507, 223 72.500 M 217 73.036 C 219.048 73.522, 220.894 73.480, 221.450 72.933 C 222.040 72.353, 220.716 72.039, 217.950 72.102 L 213.500 72.205 217 73.036 M 34.349 80.250 C 34.092 80.662, 34.809 81, 35.941 81 C 37.073 81, 38 81.388, 38 81.862 C 38 82.337, 36.877 82.602, 35.504 82.451 C 32.068 82.074, 31.310 83.789, 34.553 84.603 C 36.779 85.161, 37.123 85.710, 36.767 88.132 C 36.378 90.786, 36.588 91, 39.590 91 C 41.374 91, 42.992 90.524, 43.186 89.943 C 43.592 88.725, 47 89.765, 47 91.107 C 47 91.598, 46.212 92.029, 45.250 92.063 C 43.909 92.112, 44.026 92.338, 45.750 93.031 C 48.894 94.295, 48.553 95.074, 44.975 94.801 C 43.284 94.672, 42.134 94.092, 42.367 93.485 C 42.615 92.839, 41.438 92.400, 39.456 92.400 C 37.599 92.400, 36.390 92.822, 36.719 93.355 C 37.055 93.898, 36.775 93.979, 36.067 93.542 C 35.384 93.120, 35.035 91.972, 35.292 90.992 C 35.856 88.833, 31.515 86.357, 30.381 88.192 C 29.962 88.871, 30.144 89.029, 30.845 88.595 C 31.480 88.203, 32 88.332, 32 88.882 C 32 89.432, 31.508 90.186, 30.906 90.558 C 30.304 90.930, 30.017 92.307, 30.267 93.617 C 30.518 94.928, 30.335 96, 29.861 96 C 29.388 96, 29 96.675, 29 97.500 C 29 99.180, 31.545 99.546, 32.498 98.003 C 32.846 97.440, 36.602 97.114, 41.137 97.253 C 48.094 97.467, 49.349 97.242, 50.580 95.559 C 51.490 94.315, 52 94.106, 52 94.976 C 52 95.722, 52.266 96.067, 52.592 95.742 C 52.917 95.416, 52.746 94.368, 52.211 93.412 C 51.324 91.827, 51.178 91.865, 50.552 93.837 C 50.174 95.027, 49.446 96, 48.933 96 C 47.920 96, 48.087 93.814, 49.163 92.995 C 50.218 92.191, 47.233 85.998, 45.798 86.015 C 44.854 86.026, 44.901 86.284, 45.971 86.961 C 47.839 88.142, 46.825 89.254, 44.643 88.417 C 43.739 88.070, 43 87.108, 43 86.280 C 43 85.185, 43.795 84.890, 45.907 85.200 C 48.290 85.549, 48.750 85.300, 48.464 83.813 C 48.265 82.780, 48.700 82, 49.474 82 C 50.222 82, 51.062 81.438, 51.341 80.750 C 51.722 79.809, 52.110 79.871, 52.909 81 C 53.561 81.923, 53.975 82.042, 53.985 81.309 C 54.009 79.422, 52.049 78.715, 50.456 80.036 C 49.655 80.701, 48.986 80.852, 48.970 80.372 C 48.953 79.893, 48.522 80.213, 48.013 81.084 C 46.787 83.181, 39 83.605, 39 81.576 C 39 80.801, 39.563 79.971, 40.250 79.731 C 40.938 79.492, 39.996 79.342, 38.158 79.398 C 36.320 79.454, 34.606 79.838, 34.349 80.250 M 42.545 80.344 C 40.904 81.543, 41.031 81.667, 43.907 81.667 C 45.651 81.667, 46.723 81.399, 46.289 81.072 C 45.855 80.744, 45.242 80.149, 44.927 79.749 C 44.612 79.348, 43.540 79.616, 42.545 80.344 M 251.158 81 C 251.158 82.375, 251.385 82.938, 251.662 82.250 C 251.940 81.563, 251.940 80.438, 251.662 79.750 C 251.385 79.063, 251.158 79.625, 251.158 81 M 56.717 81.705 C 57.342 83.332, 57.487 83.323, 58.953 81.556 C 59.931 80.378, 59.790 80.140, 58.185 80.261 C 57.021 80.349, 56.422 80.937, 56.717 81.705 M 64.500 81 C 64.160 81.550, 64.332 82, 64.882 82 C 65.432 82, 66.160 81.550, 66.500 81 C 66.840 80.450, 66.668 80, 66.118 80 C 65.568 80, 64.840 80.450, 64.500 81 M 87.359 81.506 C 86.727 83.155, 78.005 83.389, 77.985 81.758 C 77.973 80.819, 77.752 80.843, 77.112 81.853 C 76.453 82.892, 75.776 82.950, 74.193 82.103 C 71.657 80.746, 69.935 80.665, 72 82 C 73.295 82.837, 73.270 82.971, 71.820 82.985 C 70.879 82.993, 69.948 83.990, 69.706 85.250 L 69.272 87.500 69.136 85.250 C 69.033 83.553, 68.386 83, 66.500 83 C 65.125 83, 64 83.477, 64 84.059 C 64 84.641, 63.438 84.800, 62.750 84.412 C 61.750 83.848, 61.750 83.976, 62.750 85.053 C 63.438 85.794, 63.993 87.097, 63.985 87.950 C 63.971 89.316, 63.854 89.322, 63 88 C 62.387 87.051, 62.025 86.948, 62.015 87.719 C 62.006 88.443, 61.325 88.678, 60.336 88.299 C 59.348 87.919, 58.923 88.066, 59.290 88.660 C 59.636 89.221, 58.966 89.590, 57.761 89.501 C 55.388 89.326, 54.302 87.549, 55.947 86.533 C 56.526 86.175, 57 86.359, 57 86.941 C 57 87.523, 57.505 88, 58.122 88 C 58.902 88, 58.867 87.545, 58.009 86.511 C 57.329 85.692, 56.374 85.269, 55.887 85.570 C 55.399 85.871, 55 85.416, 55 84.559 C 55 83.702, 54.199 83, 53.219 83 C 51.141 83, 48.851 88.140, 50.058 90.094 C 51.199 91.941, 63.518 92.596, 66.554 90.971 C 68.285 90.045, 69.289 89.995, 70.246 90.789 C 70.969 91.389, 74.697 91.907, 78.530 91.939 C 82.364 91.972, 87.638 92.021, 90.250 92.049 C 94.964 92.098, 95 92.074, 95.014 88.799 C 95.021 86.985, 95.291 84.518, 95.613 83.318 C 96.110 81.462, 95.871 81.221, 94.014 81.706 C 92.329 82.147, 92.136 82.489, 93.165 83.204 C 94.090 83.846, 93.834 83.945, 92.334 83.525 C 89.783 82.811, 88.897 83.931, 88.781 88.013 C 88.734 89.656, 88.281 91, 87.774 91 C 87.268 91, 87.019 90.213, 87.222 89.250 C 87.430 88.263, 86.699 86.964, 85.546 86.271 C 83.512 85.050, 83.513 85.039, 85.750 84.405 C 86.987 84.054, 88 83.369, 88 82.883 C 88 82.398, 88.675 82, 89.500 82 C 90.325 82, 91 81.625, 91 81.167 C 91 79.886, 87.869 80.178, 87.359 81.506 M 79.750 81.662 C 80.438 81.940, 81.563 81.940, 82.250 81.662 C 82.938 81.385, 82.375 81.158, 81 81.158 C 79.625 81.158, 79.063 81.385, 79.750 81.662 M 174.140 82.260 C 173.559 82.841, 170.141 83.271, 166.542 83.218 C 160.169 83.123, 157.620 84.565, 162.093 85.735 C 163.804 86.182, 164.114 86.895, 163.794 89.641 C 163.449 92.593, 163.680 93, 165.701 93 C 167.662 93, 168 92.485, 168 89.500 C 168 87.209, 168.472 86, 169.365 86 C 170.116 86, 171.885 85.092, 173.295 83.982 C 174.737 82.849, 176.119 82.384, 176.451 82.921 C 176.776 83.447, 176.429 84.242, 175.681 84.689 C 173.728 85.852, 173.011 89.633, 174.386 91.513 C 175.272 92.725, 176.900 93.044, 181.011 92.810 C 185.943 92.529, 186.553 92.237, 187.429 89.734 C 188.732 86.010, 186.371 83.624, 181.561 83.805 C 179.473 83.884, 178.119 83.493, 178.260 82.852 C 178.583 81.388, 175.460 80.940, 174.140 82.260 M 244.250 81.718 C 243.406 82.021, 243.058 84.167, 243.180 88.333 C 243.346 93.995, 243.391 94.111, 243.735 89.750 C 244.020 86.140, 244.516 84.981, 245.805 84.921 C 247.016 84.865, 247.111 84.687, 246.137 84.300 C 245.094 83.885, 245.060 83.581, 245.994 83.004 C 247.444 82.107, 246.044 81.075, 244.250 81.718 M 195.405 82.845 C 195.884 83.622, 195.117 84, 193.059 84 C 191.322 84, 189.964 84.540, 189.918 85.250 C 189.873 85.938, 189.631 87.745, 189.381 89.267 C 188.879 92.326, 191.563 94.326, 193.015 91.976 C 194.032 90.331, 199 90.019, 199 91.600 C 199 93.697, 202.781 93.945, 203.320 91.884 C 203.591 90.848, 203.375 90, 202.839 90 C 202.303 90, 202.131 89.164, 202.455 88.141 C 203.053 86.257, 201.227 84.008, 198.800 83.641 C 198.085 83.532, 196.868 83.049, 196.095 82.567 C 195.134 81.967, 194.916 82.055, 195.405 82.845 M 205.888 85.250 C 205.827 85.938, 205.607 87.963, 205.400 89.750 C 205.065 92.647, 205.295 93, 207.512 93 C 209.794 93, 210 92.627, 210 88.500 C 210 84.667, 209.704 84, 208 84 C 206.900 84, 205.950 84.563, 205.888 85.250 M 213.218 85.250 C 212.653 85.938, 212.035 88.075, 211.845 90 C 211.550 92.994, 211.825 93.546, 213.750 93.820 C 215.298 94.039, 216 93.628, 216 92.500 C 216 91.365, 216.692 90.967, 218.250 91.204 C 219.488 91.393, 220.387 92.099, 220.250 92.774 C 220.106 93.482, 221.057 94, 222.500 94 C 224.728 94, 225 93.587, 225 90.200 C 225 88.110, 224.460 85.860, 223.800 85.200 C 222.219 83.619, 214.528 83.655, 213.218 85.250 M 59.500 86 C 59.840 86.550, 60.316 87, 60.559 87 C 60.802 87, 61 86.550, 61 86 C 61 85.450, 60.523 85, 59.941 85 C 59.359 85, 59.160 85.450, 59.500 86 M 74 87.570 C 74 88.906, 74.450 90, 75 90 C 75.900 90, 76.393 88.636, 76.145 86.829 C 76.094 86.459, 77.616 86.351, 79.526 86.588 C 81.437 86.825, 82.999 86.677, 82.999 86.260 C 82.998 85.842, 80.973 85.419, 78.499 85.320 C 74.352 85.153, 74 85.329, 74 87.570 M 33 86.393 C 33 86.609, 33.675 87.045, 34.500 87.362 C 35.325 87.678, 36 87.501, 36 86.969 C 36 86.436, 35.325 86, 34.500 86 C 33.675 86, 33 86.177, 33 86.393 M 178.350 87.532 C 177.583 89.530, 178.744 90.895, 181.061 90.720 C 182.459 90.615, 182.993 89.968, 182.791 88.625 C 182.450 86.350, 179.118 85.530, 178.350 87.532 M 195.269 87.693 C 196.242 87.947, 197.592 87.930, 198.269 87.656 C 198.946 87.382, 198.150 87.175, 196.500 87.195 C 194.850 87.215, 194.296 87.439, 195.269 87.693 M 216.001 87.750 C 216.001 88.162, 217.126 88.565, 218.501 88.644 C 219.875 88.724, 221 88.386, 221 87.894 C 221 87.402, 219.875 87, 218.500 87 C 217.125 87, 216 87.338, 216.001 87.750 M 14.272 92 C 14.272 94.475, 14.467 95.487, 14.706 94.250 C 14.944 93.013, 14.944 90.987, 14.706 89.750 C 14.467 88.513, 14.272 89.525, 14.272 92 M 77 88.981 C 77 89.541, 78.425 90, 80.167 90 C 83.808 90, 83.676 89.563, 79.750 88.622 C 78.117 88.230, 77 88.376, 77 88.981 M 32.078 90.854 C 31.010 92.850, 32.316 95.017, 33.733 93.600 C 34.063 93.270, 33.753 93, 33.044 93 C 32.003 93, 31.998 92.707, 33.020 91.476 C 33.716 90.638, 34.032 89.699, 33.724 89.390 C 33.415 89.081, 32.674 89.740, 32.078 90.854 M 68.186 93.055 C 66.913 93.565, 66.152 94.437, 66.495 94.992 C 67.385 96.432, 64.660 96.241, 63.053 94.750 C 62.131 93.894, 61.917 93.874, 62.373 94.686 C 62.842 95.522, 61.924 95.818, 59.270 95.686 C 57.033 95.576, 55.224 94.890, 54.820 94 C 54.337 92.933, 54.120 93.168, 54.070 94.817 C 54.014 96.658, 54.394 97.010, 55.916 96.527 C 56.970 96.192, 58.151 96.435, 58.541 97.066 C 59.055 97.898, 59.486 97.840, 60.110 96.857 C 60.758 95.834, 60.981 95.992, 61.015 97.500 C 61.054 99.199, 61.200 99.263, 61.983 97.923 C 62.727 96.652, 63.931 96.480, 68.203 97.037 C 71.709 97.495, 73.748 97.352, 74.235 96.614 C 75.594 94.553, 75.016 94.043, 72.435 95.025 C 69.196 96.256, 68 96.258, 68 95.031 C 68 94.499, 68.675 94.322, 69.500 94.638 C 70.450 95.003, 71 94.625, 71 93.607 C 71 92.723, 70.888 92.029, 70.750 92.063 C 70.612 92.098, 69.459 92.544, 68.186 93.055 M 79.499 94.500 C 80.676 98.126, 80.526 98.497, 77.750 98.816 C 76.225 98.992, 75 99.750, 75 100.518 C 75 101.619, 77.055 101.866, 85 101.717 C 94.439 101.540, 95 101.412, 95 99.425 C 95 98.141, 94.008 96.869, 92.453 96.161 C 89.208 94.682, 87.684 94.680, 88.595 96.155 C 89.017 96.837, 88.872 97.039, 88.240 96.648 C 87.652 96.285, 86.981 96.328, 86.749 96.744 C 86.517 97.160, 86.454 96.967, 86.608 96.315 C 86.985 94.715, 84.891 94.070, 82.803 95.142 C 81.600 95.760, 80.779 95.503, 79.978 94.257 C 78.960 92.672, 78.913 92.696, 79.499 94.500 M 91.389 94.696 C 93.432 95.766, 94.524 95.876, 95.310 95.090 C 96.560 93.840, 96.630 93.873, 92.028 93.496 L 88.556 93.212 91.389 94.696 M 83.306 95.644 C 82.650 95.911, 82.360 96.775, 82.663 97.565 C 83.464 99.650, 84.571 99.322, 84.571 97 C 84.571 95.900, 84.555 95.036, 84.536 95.079 C 84.516 95.122, 83.963 95.376, 83.306 95.644 M 172.138 96.333 C 171.311 97.330, 171.365 97.667, 172.349 97.667 C 173.074 97.667, 173.667 97.067, 173.667 96.333 C 173.667 95.600, 173.572 95, 173.456 95 C 173.340 95, 172.747 95.600, 172.138 96.333 M 76.750 97.662 C 77.438 97.940, 78.563 97.940, 79.250 97.662 C 79.938 97.385, 79.375 97.158, 78 97.158 C 76.625 97.158, 76.063 97.385, 76.750 97.662 M 186 99.933 C 186 100.446, 186.900 101.151, 188 101.500 C 189.100 101.849, 190 102.506, 190 102.960 C 190 104.048, 187.244 105.087, 186.729 104.194 C 186.508 103.812, 186.520 104.175, 186.756 105 C 187.635 108.085, 187.690 110.926, 186.859 110.413 C 186.387 110.121, 186 110.379, 186 110.986 C 186 111.701, 187.202 111.865, 189.409 111.451 C 192.199 110.928, 192.903 111.146, 193.293 112.656 C 193.608 113.880, 193.807 113.555, 193.884 111.691 C 193.956 109.944, 194.411 109.136, 195.086 109.553 C 196.481 110.416, 195.918 104.807, 194.504 103.750 C 193.872 103.278, 194.055 102.630, 195 102 C 196.333 101.111, 196.333 100.891, 195 100.015 C 193.090 98.761, 186 98.696, 186 99.933 M 212.333 100.457 C 212.333 102.078, 215.580 102.953, 221.250 102.861 C 224.246 102.812, 225 102.418, 225 100.900 C 225 99.233, 224.222 99, 218.667 99 C 213.786 99, 212.333 99.334, 212.333 100.457 M 238.755 101.500 C 239.018 102.875, 239.631 104, 240.117 104 C 240.602 104, 241 102.875, 241 101.500 C 241 100.058, 240.424 99, 239.639 99 C 238.726 99, 238.435 99.824, 238.755 101.500 M 154.167 103.500 C 154.060 105.700, 153.723 108.625, 153.418 110 C 152.942 112.142, 153.023 112.248, 153.986 110.742 C 154.603 109.774, 154.941 106.849, 154.735 104.242 C 154.371 99.633, 154.355 99.612, 154.167 103.500 M 18.510 102.016 C 18.856 102.575, 19.526 102.793, 20 102.500 C 20.474 102.207, 21.187 102.494, 21.585 103.138 C 22.037 103.869, 21.876 104.041, 21.155 103.595 C 20.470 103.173, 20 103.517, 20 104.441 C 20 105.298, 20.635 106, 21.412 106 C 22.217 106, 22.679 105.248, 22.488 104.250 C 22.304 103.287, 22.119 102.162, 22.077 101.750 C 22.034 101.338, 21.073 101, 19.941 101 C 18.801 101, 18.162 101.454, 18.510 102.016 M 60 102 C 60 102.550, 60.423 103, 60.941 103 C 61.459 103, 62.160 102.550, 62.500 102 C 62.840 101.450, 62.416 101, 61.559 101 C 60.702 101, 60 101.450, 60 102 M 24 105.500 C 24 106.875, 24.173 108, 24.383 108 C 24.594 108, 24.982 106.875, 25.245 105.500 C 25.508 104.125, 25.335 103, 24.861 103 C 24.388 103, 24 104.125, 24 105.500 M 246.500 104 C 245.713 105.273, 248.030 105.273, 250 104 C 251.219 103.212, 251.090 103.028, 249.309 103.015 C 248.104 103.007, 246.840 103.450, 246.500 104 M 253.122 104.278 C 251.430 105.970, 251.775 107.431, 253.524 105.980 C 254.362 105.284, 255.337 105.004, 255.691 105.357 C 256.044 105.711, 255.780 106, 255.103 106 C 253.468 106, 254.073 112.206, 255.761 112.760 C 256.668 113.058, 256.974 111.896, 256.851 108.633 C 256.676 104.019, 255.156 102.244, 253.122 104.278 M 57 106 C 57 106.550, 58.575 107, 60.500 107 C 62.425 107, 64 106.550, 64 106 C 64 105.450, 62.425 105, 60.500 105 C 58.575 105, 57 105.450, 57 106 M 132 106 C 132 106.550, 132.450 107, 133 107 C 133.550 107, 134 106.550, 134 106 C 134 105.450, 133.550 105, 133 105 C 132.450 105, 132 105.450, 132 106 M 189.079 106.583 C 189.127 107.748, 189.364 107.985, 189.683 107.188 C 189.972 106.466, 189.936 105.603, 189.604 105.271 C 189.272 104.939, 189.036 105.529, 189.079 106.583 M 27.628 109.109 C 26.553 114.486, 26.895 116.832, 28.845 117.451 C 29.860 117.773, 37.048 117.916, 44.819 117.768 C 56.373 117.549, 59.023 117.227, 59.358 116 C 59.645 114.950, 59.803 115.061, 59.884 116.367 C 59.968 117.721, 60.549 118.090, 62.001 117.710 C 63.102 117.422, 63.751 117.595, 63.442 118.093 C 63.134 118.592, 63.332 119, 63.882 119 C 64.432 119, 65.160 118.550, 65.500 118 C 65.840 117.450, 66.654 117.007, 67.309 117.015 C 68.025 117.025, 67.901 117.418, 67 118 C 65.737 118.816, 65.795 118.972, 67.367 118.985 C 68.821 118.997, 69.128 118.448, 68.755 116.500 C 68.492 115.125, 68.665 114, 69.139 114 C 69.612 114, 70 114.852, 70 115.893 C 70 119.394, 72.995 119.405, 86.250 115.953 C 93.641 114.029, 95 113.359, 95 111.637 C 95 110.053, 94.733 109.867, 93.800 110.800 C 92.978 111.622, 88.076 112, 78.241 112 C 67.642 112, 64.069 112.302, 64.595 113.155 C 65.041 113.876, 64.869 114.037, 64.138 113.585 C 63.494 113.187, 63.226 112.443, 63.543 111.931 C 63.993 111.202, 62.222 110.656, 60.750 111.070 C 60.612 111.109, 59.237 110.660, 57.693 110.073 C 55.927 109.402, 55.114 109.376, 55.502 110.003 C 55.841 110.551, 55.304 111.070, 54.309 111.157 C 49.714 111.554, 47.330 111.921, 45.250 112.552 C 43.866 112.971, 43 112.809, 43 112.132 C 43 111.383, 41.081 111.231, 37 111.658 C 31.440 112.239, 31 112.137, 31 110.265 C 31 109.154, 30.383 107.733, 29.628 107.106 C 28.528 106.193, 28.132 106.589, 27.628 109.109 M 136 107 C 136 107.550, 136.675 108, 137.500 108 C 138.325 108, 139 107.550, 139 107 C 139 106.450, 138.325 106, 137.500 106 C 136.675 106, 136 106.450, 136 107 M 191 106.969 C 191 107.501, 191.675 107.678, 192.500 107.362 C 193.325 107.045, 194 106.609, 194 106.393 C 194 106.177, 193.325 106, 192.500 106 C 191.675 106, 191 106.436, 191 106.969 M 228.079 108.583 C 228.127 109.748, 228.364 109.985, 228.683 109.188 C 228.972 108.466, 228.936 107.603, 228.604 107.271 C 228.272 106.939, 228.036 107.529, 228.079 108.583 M 247.473 108.044 C 247.118 108.618, 247.313 109.672, 247.905 110.386 C 248.498 111.100, 248.687 111.980, 248.325 112.342 C 247.963 112.704, 248.192 113, 248.833 113 C 249.475 113, 250 111.650, 250 110 C 250 107.027, 248.716 106.033, 247.473 108.044 M 220 108.939 L 215.500 109.578 220.250 110.046 C 223.646 110.381, 225 110.156, 225 109.257 C 225 108.566, 224.887 108.068, 224.750 108.150 C 224.613 108.233, 222.475 108.588, 220 108.939 M 190.813 109.683 C 191.534 109.972, 192.397 109.936, 192.729 109.604 C 193.061 109.272, 192.471 109.036, 191.417 109.079 C 190.252 109.127, 190.015 109.364, 190.813 109.683 M 18 112 C 18 112.550, 18.900 113, 20 113 C 21.100 113, 22 112.550, 22 112 C 22 111.450, 21.100 111, 20 111 C 18.900 111, 18 111.450, 18 112 M 213.670 112.417 C 213.371 113.197, 213.810 114.097, 214.645 114.417 C 216.960 115.306, 217.678 115.085, 216 114 C 214.910 113.296, 214.858 113.026, 215.809 113.015 C 216.529 113.007, 216.840 112.550, 216.500 112 C 215.617 110.572, 214.304 110.765, 213.670 112.417 M 10 114 C 9.411 115.100, 9.155 116, 9.430 116 C 9.705 116, 10.411 115.100, 11 114 C 11.589 112.900, 11.845 112, 11.570 112 C 11.295 112, 10.589 112.900, 10 114 M 157.333 114.854 C 157.333 117.658, 157.694 118.029, 160.917 118.544 C 162.887 118.858, 165.480 119.315, 166.678 119.559 C 167.875 119.802, 169.482 119.375, 170.248 118.609 C 171.015 117.843, 172.510 116.994, 173.571 116.724 C 174.789 116.413, 174.309 116.189, 172.270 116.116 C 170.494 116.052, 167.146 115.242, 164.832 114.316 C 161.630 113.035, 160.524 112.928, 160.210 113.869 C 159.920 114.741, 159.434 114.608, 158.566 113.421 C 157.492 111.953, 157.333 112.138, 157.333 114.854 M 206.192 112.783 C 203.740 113.177, 203.656 115.113, 206.063 115.764 C 207.243 116.083, 207.231 115.944, 206 114.989 C 204.747 114.018, 204.852 113.903, 206.639 114.291 C 209.147 114.835, 211.992 113.547, 209.834 112.845 C 209.100 112.606, 207.462 112.578, 206.192 112.783 M 221 112.930 L 217.500 113.596 221.250 114.097 C 223.916 114.454, 225 114.223, 225 113.299 C 225 112.585, 224.887 112.059, 224.750 112.132 C 224.613 112.204, 222.925 112.563, 221 112.930 M 228.079 113.583 C 228.127 114.748, 228.364 114.985, 228.683 114.188 C 228.972 113.466, 228.936 112.603, 228.604 112.271 C 228.272 111.939, 228.036 112.529, 228.079 113.583 M 48.500 114 C 48.160 114.550, 48.359 115, 48.941 115 C 49.523 115, 50 114.550, 50 114 C 50 113.450, 49.802 113, 49.559 113 C 49.316 113, 48.840 113.450, 48.500 114 M 168.750 113.662 C 169.438 113.940, 170.563 113.940, 171.250 113.662 C 171.938 113.385, 171.375 113.158, 170 113.158 C 168.625 113.158, 168.063 113.385, 168.750 113.662 M 183.813 113.683 C 184.534 113.972, 185.397 113.936, 185.729 113.604 C 186.061 113.272, 185.471 113.036, 184.417 113.079 C 183.252 113.127, 183.015 113.364, 183.813 113.683 M 199.500 114 C 199.155 114.558, 194.490 115, 188.941 115 C 179.793 115, 179 115.154, 179 116.926 C 179 118.676, 179.600 118.813, 185.564 118.419 C 189.822 118.137, 191.909 118.339, 191.505 118.992 C 191.115 119.623, 192.961 120, 196.441 120 C 200.716 120, 202 119.653, 202 118.500 C 202 117.675, 202.563 116.984, 203.250 116.965 C 203.938 116.945, 203.473 116.359, 202.219 115.663 C 200.964 114.966, 200.251 114.082, 200.635 113.698 C 201.019 113.314, 201.060 113, 200.726 113 C 200.391 113, 199.840 113.450, 199.500 114 M 132 115 C 132 115.550, 133.575 116, 135.500 116 C 137.425 116, 139 115.550, 139 115 C 139 114.450, 137.425 114, 135.500 114 C 133.575 114, 132 114.450, 132 115 M 87.500 117 L 82.500 118.845 87.168 118.922 C 92.730 119.015, 95 118.282, 95 116.393 C 95 114.615, 93.671 114.723, 87.500 117 M 19.500 117 C 17.592 117.820, 17.603 117.863, 19.750 117.930 C 20.988 117.968, 22 117.550, 22 117 C 22 116.450, 21.887 116.032, 21.750 116.070 C 21.613 116.109, 20.600 116.527, 19.500 117 M 219.588 117.632 C 219.184 118.684, 218.250 119.037, 216.844 118.669 C 215.255 118.254, 215.001 118.401, 215.846 119.246 C 217.533 120.933, 220.099 121.044, 222.269 119.524 C 224.165 118.196, 224.164 118.158, 222.198 117.106 C 220.621 116.262, 220.071 116.373, 219.588 117.632 M 243 117.500 C 243 118.325, 243.450 119, 244 119 C 244.550 119, 245 118.325, 245 117.500 C 245 116.675, 244.550 116, 244 116 C 243.450 116, 243 116.675, 243 117.500 M 203 119 C 203 119.550, 203.450 120, 204 120 C 204.550 120, 205 119.550, 205 119 C 205 118.450, 204.550 118, 204 118 C 203.450 118, 203 118.450, 203 119 M 43.603 121.833 C 43.320 122.292, 43.723 122.667, 44.500 122.667 C 45.277 122.667, 45.680 122.292, 45.397 121.833 C 45.114 121.375, 44.710 121, 44.500 121 C 44.290 121, 43.886 121.375, 43.603 121.833 M 63.762 121.707 C 65.006 121.946, 66.806 121.937, 67.762 121.687 C 68.718 121.437, 67.700 121.241, 65.500 121.252 C 63.300 121.263, 62.518 121.468, 63.762 121.707 M 76.186 122.055 C 74.275 122.821, 73.855 125, 75.618 125 C 75.893 125, 75.810 124.502, 75.434 123.893 C 74.982 123.162, 75.415 122.997, 76.708 123.407 C 78.064 123.838, 78.667 123.563, 78.667 122.514 C 78.667 121.682, 78.629 121.029, 78.583 121.063 C 78.537 121.098, 77.459 121.544, 76.186 122.055 M 135.813 121.683 C 136.534 121.972, 137.397 121.936, 137.729 121.604 C 138.061 121.272, 137.471 121.036, 136.417 121.079 C 135.252 121.127, 135.015 121.364, 135.813 121.683 M 40.500 123 C 40.160 123.550, 40.359 124, 40.941 124 C 41.523 124, 42 123.550, 42 123 C 42 122.450, 41.802 122, 41.559 122 C 41.316 122, 40.840 122.450, 40.500 123 M 86.500 123 C 86.160 123.550, 86.584 124, 87.441 124 C 88.298 124, 89 123.550, 89 123 C 89 122.450, 88.577 122, 88.059 122 C 87.541 122, 86.840 122.450, 86.500 123 M 173.441 124.096 C 173.068 124.699, 173.555 125.936, 174.523 126.846 C 175.490 127.756, 175.967 127.938, 175.582 127.250 C 175.148 126.475, 175.501 126, 176.512 126 C 177.962 126, 177.976 125.833, 176.643 124.500 C 174.854 122.711, 174.337 122.646, 173.441 124.096 M 205.537 124.354 C 203.377 125.275, 202.933 125.840, 203.898 126.437 C 204.688 126.925, 205.534 126.755, 205.991 126.015 C 206.588 125.049, 206.878 125.076, 207.300 126.137 C 207.689 127.116, 207.864 127.026, 207.921 125.816 C 207.970 124.775, 209.049 123.974, 210.750 123.716 C 213.353 123.322, 213.366 123.294, 211 123.195 C 209.625 123.137, 207.166 123.659, 205.537 124.354 M 219 123.833 C 219 124.475, 218.100 125, 217 125 C 215.900 125, 215 125.450, 215 126 C 215 126.550, 215.620 127, 216.378 127 C 218.058 127, 220.534 124.201, 219.643 123.309 C 219.289 122.956, 219 123.192, 219 123.833 M 132 124.387 C 132 124.599, 133.350 124.971, 135 125.213 C 136.650 125.455, 138 125.282, 138 124.827 C 138 124.372, 136.650 124, 135 124 C 133.350 124, 132 124.174, 132 124.387 M 141.749 126.533 C 140.490 128.219, 140.323 129.081, 141.153 129.595 C 141.870 130.038, 142.038 129.870, 141.595 129.155 C 141.183 128.486, 141.487 128, 142.319 128 C 143.109 128, 144.373 127.239, 145.128 126.308 C 145.882 125.377, 145.976 124.930, 145.335 125.314 C 144.695 125.698, 144.020 125.601, 143.835 125.099 C 143.651 124.596, 142.712 125.241, 141.749 126.533 M 180.750 124.662 C 181.438 124.940, 182.563 124.940, 183.250 124.662 C 183.938 124.385, 183.375 124.158, 182 124.158 C 180.625 124.158, 180.063 124.385, 180.750 124.662 M 34 125.383 C 34 126.271, 38.046 126.735, 38.558 125.906 C 38.866 125.408, 37.966 125, 36.559 125 C 35.152 125, 34 125.173, 34 125.383 M 64.435 126.895 C 65.227 128.176, 63.084 128.765, 58.731 128.463 C 55.919 128.268, 54.712 128.669, 53.978 130.040 C 53.329 131.254, 53.335 132.089, 53.997 132.498 C 54.549 132.839, 55 132.811, 55 132.437 C 55 132.062, 55.670 132.311, 56.489 132.991 C 57.308 133.671, 57.785 134.539, 57.549 134.921 C 57.312 135.303, 58.932 135.723, 61.147 135.854 C 63.362 135.984, 64.933 135.701, 64.638 135.224 C 64.344 134.747, 64.979 133.606, 66.051 132.688 C 67.123 131.770, 68 131.465, 68 132.010 C 68 133.395, 71.352 133.248, 72.800 131.800 C 75.062 129.538, 74.132 128, 70.500 128 C 68.575 128, 67 127.550, 67 127 C 67 126.450, 66.298 126, 65.441 126 C 64.584 126, 64.131 126.403, 64.435 126.895 M 75.672 127.411 C 75.255 128.499, 76.396 128.900, 80.651 129.161 C 86.753 129.536, 87.101 129.428, 86.324 127.402 C 85.579 125.460, 76.418 125.468, 75.672 127.411 M 39.354 127.799 C 35.235 128.038, 34.106 128.487, 33.698 130.049 C 33.301 131.565, 33.724 132.028, 35.594 132.125 C 39.675 132.337, 40.047 132.458, 40.911 133.857 C 41.496 134.802, 41.957 134.878, 42.434 134.107 C 42.810 133.498, 44.582 133, 46.370 133 C 48.261 133, 50.539 132.146, 51.811 130.961 C 54.571 128.390, 54.560 127.926, 51.750 128.360 C 50.513 128.551, 48.375 128.436, 47 128.104 C 45.625 127.772, 42.184 127.634, 39.354 127.799 M 164.452 127.881 C 164.204 128.130, 164.007 129.046, 164.015 129.917 C 164.028 131.205, 164.193 131.243, 164.904 130.122 C 165.384 129.364, 166.230 129.024, 166.783 129.366 C 167.337 129.708, 168.011 129.413, 168.282 128.709 C 168.741 127.512, 165.518 126.815, 164.452 127.881 M 205.082 129.401 C 204.117 130.564, 204.752 130.861, 208.817 131.151 C 215.094 131.598, 217 131.197, 217 129.427 C 217 127.455, 206.716 127.433, 205.082 129.401 M 133.872 130.750 C 132.629 132.336, 132.664 132.371, 134.250 131.128 C 135.916 129.821, 136.445 129, 135.622 129 C 135.415 129, 134.627 129.787, 133.872 130.750 M 59 134 C 59 134.550, 59.927 135, 61.059 135 C 62.191 135, 62.840 134.550, 62.500 134 C 62.160 133.450, 61.234 133, 60.441 133 C 59.648 133, 59 133.450, 59 134 M 246.441 135.532 C 247.509 136.339, 249.534 136.933, 250.941 136.850 C 253.479 136.702, 253.477 136.697, 250.750 136.284 C 249.238 136.055, 248 135.447, 248 134.934 C 248 134.420, 247.213 134.014, 246.250 134.032 C 244.667 134.061, 244.685 134.203, 246.441 135.532 M 52.750 135.662 C 53.438 135.940, 54.563 135.940, 55.250 135.662 C 55.938 135.385, 55.375 135.158, 54 135.158 C 52.625 135.158, 52.063 135.385, 52.750 135.662 M 115.158 138 C 115.158 139.375, 115.385 139.938, 115.662 139.250 C 115.940 138.563, 115.940 137.438, 115.662 136.750 C 115.385 136.063, 115.158 136.625, 115.158 138 M 183.162 138.031 C 184.210 138.642, 185.688 138.654, 187.162 138.064 C 189.207 137.244, 188.999 137.123, 185.500 137.094 C 182.450 137.069, 181.895 137.291, 183.162 138.031 M 190 137.383 C 190 137.594, 190.900 138.002, 192 138.290 C 193.100 138.577, 194 138.405, 194 137.906 C 194 137.408, 193.100 137, 192 137 C 190.900 137, 190 137.173, 190 137.383 M 106 138.882 C 106 139.432, 106.450 140.160, 107 140.500 C 107.550 140.840, 108 140.668, 108 140.118 C 108 139.568, 107.550 138.840, 107 138.500 C 106.450 138.160, 106 138.332, 106 138.882 M 39 140.383 C 39 140.594, 40.111 140.979, 41.470 141.239 C 42.828 141.499, 43.702 141.326, 43.411 140.856 C 42.899 140.027, 39 139.610, 39 140.383 M 75.500 141.666 C 73.742 143.075, 73.722 143.192, 75.332 142.635 C 76.339 142.286, 77.577 142, 78.082 142 C 78.587 142, 79 141.550, 79 141 C 79 139.584, 77.818 139.809, 75.500 141.666 M 186.269 142.693 C 187.242 142.947, 188.592 142.930, 189.269 142.656 C 189.946 142.382, 189.150 142.175, 187.500 142.195 C 185.850 142.215, 185.296 142.439, 186.269 142.693 M 191.750 142.662 C 192.438 142.940, 193.563 142.940, 194.250 142.662 C 194.938 142.385, 194.375 142.158, 193 142.158 C 191.625 142.158, 191.063 142.385, 191.750 142.662 M 86.459 144.067 C 86.096 144.653, 86.014 145.348, 86.276 145.610 C 86.538 145.872, 87.019 145.392, 87.345 144.543 C 88.021 142.781, 87.445 142.471, 86.459 144.067 M 88.667 144.667 C 88.300 145.033, 88.007 145.821, 88.015 146.417 C 88.025 147.137, 88.277 147.115, 88.765 146.351 C 89.169 145.719, 90.625 144.993, 92 144.737 L 94.500 144.272 91.917 144.136 C 90.496 144.061, 89.033 144.300, 88.667 144.667 M 183.079 146.583 C 183.127 147.748, 183.364 147.985, 183.683 147.188 C 183.972 146.466, 183.936 145.603, 183.604 145.271 C 183.272 144.939, 183.036 145.529, 183.079 146.583 M 187.709 145.624 C 186.223 147.110, 187.112 148, 190.083 148 C 192.103 148, 193.025 147.569, 192.755 146.750 C 192.288 145.332, 188.783 144.550, 187.709 145.624 M 29.991 147.511 C 28.962 148.750, 29.111 149, 30.878 149 C 32.045 149, 33 148.577, 33 148.059 C 33 146.327, 31.240 146.006, 29.991 147.511 M 92 146.855 C 92 147.404, 91.213 148.043, 90.250 148.274 C 88.814 148.620, 88.948 148.883, 91 149.743 C 94.166 151.070, 95.810 149.667, 93.636 147.493 C 92.736 146.593, 92 146.306, 92 146.855 M 180.158 148 C 180.158 149.375, 180.385 149.938, 180.662 149.250 C 180.940 148.563, 180.940 147.438, 180.662 146.750 C 180.385 146.063, 180.158 146.625, 180.158 148 M 196.079 147.583 C 196.127 148.748, 196.364 148.985, 196.683 148.188 C 196.972 147.466, 196.936 146.603, 196.604 146.271 C 196.272 145.939, 196.036 146.529, 196.079 147.583 M 25 148 C 25 148.550, 25.702 149, 26.559 149 C 27.416 149, 27.840 148.550, 27.500 148 C 27.160 147.450, 26.459 147, 25.941 147 C 25.423 147, 25 147.450, 25 148 M 86 149 C 86 149.550, 86.450 150, 87 150 C 87.550 150, 88 149.550, 88 149 C 88 148.450, 87.550 148, 87 148 C 86.450 148, 86 148.450, 86 149 M 159.991 149.511 C 158.986 150.722, 159.047 151, 160.319 151 C 162.185 151, 163.406 149.369, 162.130 148.580 C 161.633 148.273, 160.671 148.692, 159.991 149.511 M 47 154.403 C 47 156.867, 50.469 157.686, 52.780 155.768 C 53.672 155.027, 54.388 154.977, 54.826 155.625 C 55.197 156.174, 58.538 156.680, 62.250 156.751 C 68.809 156.877, 69 156.810, 69 154.393 L 69 151.905 58 152.069 C 47.428 152.226, 47 152.317, 47 154.403 M 51.079 154.583 C 51.127 155.748, 51.364 155.985, 51.683 155.188 C 51.972 154.466, 51.936 153.603, 51.604 153.271 C 51.272 152.939, 51.036 153.529, 51.079 154.583 M 63 153.383 C 63 153.594, 63.900 154.002, 65 154.290 C 66.100 154.577, 67 154.405, 67 153.906 C 67 153.408, 66.100 153, 65 153 C 63.900 153, 63 153.173, 63 153.383 M 181.250 156.496 C 179.561 158.414, 179.674 160, 181.500 160 C 182.433 160, 183 159.056, 183 157.500 C 183 154.624, 182.932 154.585, 181.250 156.496 M 188.405 158.233 C 186.854 160.050, 186.825 160.214, 188.250 159.110 C 189.406 158.215, 190 158.136, 190 158.878 C 190 159.495, 190.450 160, 191 160 C 191.550 160, 192 159.100, 192 158 C 192 155.387, 190.765 155.467, 188.405 158.233 M 193.079 157.583 C 193.127 158.748, 193.364 158.985, 193.683 158.188 C 193.972 157.466, 193.936 156.603, 193.604 156.271 C 193.272 155.939, 193.036 156.529, 193.079 157.583 M 195.079 157.583 C 195.127 158.748, 195.364 158.985, 195.683 158.188 C 195.972 157.466, 195.936 156.603, 195.604 156.271 C 195.272 155.939, 195.036 156.529, 195.079 157.583 M 197 157.441 C 197 158.234, 197.408 159.134, 197.907 159.442 C 198.405 159.751, 198.578 159.102, 198.290 158.001 C 197.679 155.666, 197 155.371, 197 157.441 M 184.584 158.641 C 184.057 160.014, 184.204 160.076, 185.477 159.019 C 187.212 157.579, 187.393 157, 186.107 157 C 185.616 157, 184.931 157.739, 184.584 158.641 M 28.244 159.250 C 28.881 161.191, 34 161.472, 34 159.566 C 34 158.483, 33.049 158, 30.917 158 C 28.898 158, 27.975 158.432, 28.244 159.250 M 23.459 160.067 C 22.539 161.556, 23.606 162.365, 25.520 161.631 C 26.404 161.292, 26.847 160.561, 26.504 160.007 C 25.694 158.696, 24.289 158.723, 23.459 160.067 M 83.034 160.459 C 82.040 161.657, 82.241 162.003, 84.162 162.398 C 90.635 163.728, 92 163.703, 92 162.254 C 92 161.398, 91.409 161.013, 90.583 161.330 C 89.803 161.629, 88.917 161.227, 88.614 160.437 C 87.900 158.575, 84.587 158.588, 83.034 160.459 M 160.591 161.852 C 160.262 162.384, 160.268 163.535, 160.604 164.410 C 161.107 165.720, 160.359 166.021, 156.357 166.118 C 148.259 166.316, 156.047 167.769, 165 167.732 C 169.125 167.715, 171.290 167.516, 169.811 167.290 C 167.764 166.977, 167.047 166.236, 166.811 164.189 C 166.572 162.121, 165.887 161.429, 163.844 161.193 C 162.384 161.024, 160.920 161.321, 160.591 161.852 M 155.688 162.646 C 154.383 163.950, 155.006 165, 157.083 165 C 158.247 165, 158.992 164.476, 158.771 163.813 C 158.284 162.351, 156.614 161.719, 155.688 162.646 M 197.750 163.662 C 198.438 163.940, 199.563 163.940, 200.250 163.662 C 200.938 163.385, 200.375 163.158, 199 163.158 C 197.625 163.158, 197.063 163.385, 197.750 163.662 M 212.729 164.092 C 210.302 165.505, 211.500 167, 215.059 167 C 218.240 167, 219.176 164.665, 216.418 163.607 C 214.526 162.881, 214.891 162.833, 212.729 164.092 M 27.784 164.738 C 30.689 164.941, 35.189 164.939, 37.784 164.734 C 40.378 164.528, 38 164.363, 32.500 164.365 C 27 164.368, 24.878 164.536, 27.784 164.738 M 220.122 165.353 C 218.906 166.818, 219.596 168, 221.667 168 C 223.156 168, 223.492 165.422, 222.113 164.570 C 221.626 164.269, 220.730 164.621, 220.122 165.353 M 74.083 165.414 C 74.831 166.157, 84.935 166.399, 85.643 165.690 C 86.023 165.311, 83.483 165, 80 165 C 76.517 165, 73.854 165.186, 74.083 165.414 M 87.915 166.074 C 86.940 166.691, 87.719 166.974, 90.417 166.985 C 94.402 167, 94.870 166.245, 91.300 165.558 C 90.216 165.349, 88.693 165.581, 87.915 166.074 M 207.728 169.722 C 209.503 169.943, 212.653 169.946, 214.728 169.730 C 216.802 169.513, 215.350 169.333, 211.500 169.328 C 207.650 169.324, 205.952 169.501, 207.728 169.722 M 220.750 169.706 C 221.988 169.944, 224.012 169.944, 225.250 169.706 C 226.488 169.467, 225.475 169.272, 223 169.272 C 220.525 169.272, 219.512 169.467, 220.750 169.706" stroke="none" fill="#804040" fill-rule="evenodd"/>
</svg>