<svg xmlns="http://www.w3.org/2000/svg" width="225" height="225" viewBox="0 0 225 225" version="1.1">
	<path d="M 0.164 29.750 C 0.251 50.363, 0.548 57.678, 1.132 53.567 C 1.971 47.653, 3.333 45.592, 5.802 46.499 C 6.518 46.762, 6.860 46.583, 6.563 46.102 C 5.748 44.783, 8.723 42.719, 10.206 43.574 C 10.918 43.985, 11.207 43.993, 10.848 43.592 C 9.977 42.617, 23.887 29.554, 24.812 30.479 C 25.006 30.673, 24.632 35.074, 23.979 40.259 C 23.327 45.443, 22.972 50.543, 23.191 51.593 C 23.411 52.642, 24.196 47.875, 24.936 41 C 25.737 33.564, 26.564 29.295, 26.979 30.464 C 27.622 32.275, 27.727 32.237, 28.343 29.964 C 28.720 28.572, 30.880 26.325, 33.308 24.800 C 38.273 21.681, 42.993 19.724, 43.015 20.775 C 43.024 21.174, 43.428 20.872, 43.914 20.105 C 45.215 18.050, 47.354 29.385, 46.579 34.228 C 46.146 36.938, 46.289 37.939, 47.043 37.473 C 47.773 37.022, 48.007 37.908, 47.752 40.148 C 47.477 42.553, 46.823 43.564, 45.435 43.731 C 44.371 43.860, 44.058 43.712, 44.741 43.402 C 45.680 42.976, 45.607 42.464, 44.441 41.298 C 43.052 39.909, 42.762 39.942, 41.517 41.628 C 40.314 43.257, 40.353 43.552, 41.817 43.900 C 42.921 44.162, 41.781 45.117, 38.500 46.677 C 32.304 49.622, 37.047 48.893, 44.263 45.790 C 47.824 44.259, 49.165 43.081, 49.576 41.121 C 49.878 39.680, 50.340 37.450, 50.603 36.166 C 50.901 34.708, 50.690 34.074, 50.040 34.475 C 49.415 34.861, 48.995 33.997, 48.988 32.309 C 48.976 29.404, 46.518 19.185, 45.614 18.281 C 45.333 17.999, 43.729 18.247, 42.051 18.832 C 39.529 19.712, 39 19.635, 39 18.389 C 39 17.560, 39.434 17.150, 39.964 17.478 C 40.495 17.806, 40.270 16.497, 39.464 14.569 C 37.567 10.027, 37.572 10, 40.454 10 C 42.671 10, 42.866 9.666, 42.467 6.551 C 42.224 4.654, 42.470 2.828, 43.013 2.492 C 43.556 2.157, 44 2.614, 44 3.508 C 44 4.657, 44.587 4.968, 46 4.567 C 47.100 4.255, 49.013 3.773, 50.250 3.495 C 52.310 3.032, 52.331 3.067, 50.500 3.911 C 49.400 4.418, 47.712 5.081, 46.750 5.385 C 45.788 5.689, 45 6.851, 45 7.969 C 45 9.086, 44.550 10, 44 10 C 43.450 10, 43 11.125, 43 12.500 C 43 14.477, 43.505 15, 45.418 15 C 48.480 15, 51 15.951, 51 17.107 C 51 17.598, 50.255 18, 49.345 18 C 47.805 18, 47.805 18.127, 49.345 19.829 C 50.255 20.835, 51 22.185, 51 22.829 C 51 23.473, 51.445 24, 51.989 24 C 52.533 24, 52.970 25.012, 52.961 26.250 C 52.952 27.488, 53.161 31.313, 53.425 34.750 C 53.810 39.768, 53.618 41, 52.452 41 C 51.248 41, 50.967 43.861, 50.809 57.750 L 50.618 74.500 50.059 61.796 C 49.748 54.726, 49.016 48.610, 48.409 48.005 C 47.323 46.923, 44.023 47.423, 36.250 49.847 C 33.847 50.596, 32.996 50.553, 32.985 49.680 C 32.975 48.939, 32.638 49.024, 32.077 49.909 C 31.587 50.684, 31.453 52.034, 31.780 52.909 C 32.313 54.335, 32.179 54.344, 30.495 53 C 29.462 52.175, 28.940 52.040, 29.336 52.699 C 29.816 53.500, 28.959 54.105, 26.758 54.518 L 23.460 55.136 21.663 72.318 C 20.674 81.768, 19.620 90.350, 19.321 91.388 C 18.865 92.971, 19.199 93.195, 21.389 92.776 C 23.217 92.427, 24 92.705, 24 93.704 C 24 95.857, 22.249 98.690, 20.505 99.360 C 19.251 99.841, 19.148 99.593, 19.965 98.065 C 20.522 97.025, 21.545 95.970, 22.239 95.720 C 24.170 95.025, 4.387 95.742, 2.164 96.448 C 0.315 97.035, 0.212 98.154, 0.161 118.200 C 0.129 131.099, 0.515 140.095, 1.154 141.287 C 1.904 142.690, 1.889 143.049, 1.100 142.562 C 0.359 142.104, 0 143.423, 0 146.596 C 0 151.015, 0.110 151.212, 1.750 149.745 C 5.049 146.795, 7.206 147.226, 9.360 151.266 C 10.907 154.167, 11.097 155.303, 10.184 156.216 C 9.272 157.128, 9 156.996, 9 155.641 C 9 154.674, 8.597 154.131, 8.105 154.435 C 7.612 154.740, 6.941 154.288, 6.612 153.431 C 6.283 152.574, 5.599 152.130, 5.092 152.443 C 4.586 152.756, 3.960 152.447, 3.702 151.756 C 3.406 150.964, 2.978 151.239, 2.543 152.500 C 2.164 153.600, 1.437 155.281, 0.927 156.236 C 0.417 157.191, -0 162.899, -0 168.919 C -0 178.709, 0.196 179.928, 1.858 180.455 C 3.802 181.072, 12 189.316, 12 190.654 C 12 191.078, 13.238 192.438, 14.750 193.676 C 16.838 195.386, 17.094 195.937, 15.815 195.964 C 12.700 196.031, 8.779 194.019, 9.312 192.629 C 10.032 190.753, 2.938 181, 0.853 181 C 0.421 181, 0.056 190.902, 0.042 203.004 L 0.017 225.009 112.759 224.754 L 225.500 224.500 225.700 146.500 C 225.810 103.600, 225.666 67.398, 225.381 66.052 C 225.061 64.540, 224.589 64.047, 224.147 64.762 C 223.753 65.399, 223.334 63.688, 223.216 60.960 C 223.016 56.378, 224.184 54.313, 225.314 57.250 C 225.579 57.938, 225.832 45.337, 225.876 29.250 L 225.957 -0 112.998 -0 L 0.039 0 0.164 29.750 M 0.405 16.500 C 0.406 25.300, 0.559 28.766, 0.745 24.203 C 0.930 19.639, 0.929 12.439, 0.742 8.203 C 0.555 3.966, 0.404 7.700, 0.405 16.500 M 58.571 5.571 C 57.707 6.436, 57 7.786, 57 8.571 C 57 9.357, 56.523 10, 55.941 10 C 55.359 10, 55.160 10.450, 55.500 11 C 56.510 12.635, 59.288 12.192, 58.638 10.500 C 57.799 8.312, 58.973 5.956, 61.389 4.980 C 62.991 4.332, 63.095 4.111, 61.821 4.063 C 60.898 4.029, 59.436 4.707, 58.571 5.571 M 72.589 7.500 C 72.231 8.926, 71.240 10, 70.281 10 C 69.125 10, 68.922 10.322, 69.633 11.033 C 71.323 12.723, 73.762 11.076, 74.223 7.933 C 74.748 4.360, 73.463 4.019, 72.589 7.500 M 86.035 6.934 C 84.576 9.661, 84.750 12, 86.412 12 C 87.196 12, 87.698 11.223, 87.541 10.250 C 87.386 9.287, 87.667 7.713, 88.165 6.750 C 88.736 5.646, 88.701 5, 88.070 5 C 87.520 5, 86.605 5.870, 86.035 6.934 M 100.411 7.500 C 100.066 8.875, 99.355 10, 98.833 10 C 98.310 10, 98.160 10.450, 98.500 11 C 98.840 11.550, 100.104 11.964, 101.309 11.921 C 102.514 11.878, 102.960 11.623, 102.300 11.354 C 101.448 11.008, 101.376 10.142, 102.050 8.368 C 103.234 5.254, 103.232 5, 102.019 5 C 101.480 5, 100.756 6.125, 100.411 7.500 M 114.433 8.250 C 114.046 9.488, 113.229 10.831, 112.615 11.235 C 111.967 11.662, 112.443 11.976, 113.750 11.985 C 115.471 11.996, 116 11.428, 116 9.566 C 116 7.679, 116.617 7.039, 118.750 6.716 C 121.363 6.320, 121.341 6.292, 118.317 6.150 C 115.822 6.032, 114.983 6.486, 114.433 8.250 M 128.035 8.934 C 126.571 11.671, 126.742 12.700, 128.750 13.222 C 130.148 13.585, 130.515 13.006, 130.575 10.338 C 130.659 6.605, 129.596 6.017, 128.035 8.934 M 48.374 10.467 C 48.065 11.274, 48.043 12.511, 48.327 13.217 C 48.610 13.923, 48.878 13.517, 48.921 12.316 C 48.978 10.728, 49.750 10.019, 51.750 9.716 L 54.500 9.300 51.719 9.150 C 50.086 9.062, 48.705 9.606, 48.374 10.467 M 62.667 9.667 C 62.300 10.033, 62 11.158, 62 12.167 C 62 13.175, 61.362 14, 60.582 14 C 59.802 14, 58.378 14.301, 57.418 14.670 C 56.227 15.127, 55.902 14.968, 56.395 14.170 C 56.857 13.423, 56.381 13, 55.078 13 C 53.060 13, 51.009 17.342, 52.380 18.713 C 52.721 19.054, 53 18.583, 53 17.667 C 53 16.429, 53.900 16, 56.500 16 C 59.048 16, 60 16.437, 60 17.607 C 60 18.648, 60.546 19.004, 61.552 18.618 C 62.406 18.291, 62.858 18.421, 62.558 18.907 C 61.959 19.875, 64.964 21.369, 65.810 20.524 C 66.098 20.236, 65.850 20, 65.260 20 C 64.670 20, 64.401 19.182, 64.662 18.183 C 65.019 16.821, 66.247 16.309, 69.576 16.137 C 73.511 15.933, 74.124 16.196, 74.982 18.454 C 75.687 20.308, 76.679 21, 78.630 21 C 81.247 21, 81.267 20.953, 79.500 19 C 78.474 17.866, 78.190 17, 78.845 17 C 79.480 17, 80.014 17.563, 80.032 18.250 C 80.051 19.013, 80.581 18.819, 81.392 17.750 C 83.402 15.102, 88.636 15.430, 89.363 18.250 C 89.682 19.488, 91.111 21.034, 92.537 21.687 C 95.084 22.852, 95.120 22.816, 94.505 19.687 C 94.018 17.207, 94.126 16.833, 94.993 18 C 95.935 19.268, 96.061 19.202, 95.804 17.572 C 95.471 15.457, 90.652 13.669, 87.750 14.583 C 86.787 14.887, 86 14.654, 86 14.067 C 86 13.480, 85.100 13, 84 13 C 82.900 13, 82 13.501, 82 14.114 C 82 15.175, 77.485 14.906, 69.750 13.383 C 67.772 12.993, 67 13.245, 67 14.282 C 67 15.254, 66.237 15.577, 64.655 15.274 C 61.251 14.624, 62.190 10.269, 65.856 9.706 L 68.500 9.300 65.917 9.150 C 64.496 9.067, 63.033 9.300, 62.667 9.667 M 79.250 9.689 C 80.213 9.941, 81.787 9.941, 82.750 9.689 C 83.713 9.438, 82.925 9.232, 81 9.232 C 79.075 9.232, 78.287 9.438, 79.250 9.689 M 91.667 9.667 C 91.300 10.033, 91.007 10.821, 91.015 11.417 C 91.025 12.137, 91.277 12.115, 91.765 11.351 C 92.169 10.719, 93.625 9.993, 95 9.737 L 97.500 9.272 94.917 9.136 C 93.496 9.061, 92.033 9.300, 91.667 9.667 M 142.035 10.934 C 140.470 13.858, 140.665 16.523, 142.342 15.131 C 143.080 14.519, 143.868 14.199, 144.092 14.421 C 144.316 14.643, 144.548 13.514, 144.606 11.913 C 144.729 8.567, 143.543 8.116, 142.035 10.934 M 105.459 11.067 C 105.096 11.653, 105.014 12.348, 105.276 12.610 C 105.538 12.872, 106.019 12.392, 106.345 11.543 C 107.021 9.781, 106.445 9.471, 105.459 11.067 M 119.666 12.250 C 119.174 14.205, 119.260 14.286, 120.325 12.867 C 120.999 11.968, 122.439 11.008, 123.525 10.733 C 125.074 10.340, 124.931 10.207, 122.867 10.116 C 120.919 10.030, 120.086 10.586, 119.666 12.250 M 156.241 11.986 C 155.558 13.079, 155.001 14.541, 155.002 15.236 C 155.004 16.704, 160.839 17.368, 162.429 16.081 C 163.018 15.605, 164.400 14.994, 165.500 14.724 C 167.024 14.349, 166.845 14.204, 164.750 14.116 C 163.238 14.052, 162 14.450, 162 15 C 162 15.550, 161.044 16, 159.875 16 C 158.047 16, 157.834 15.580, 158.350 13 C 159.038 9.559, 158.053 9.085, 156.241 11.986 M 134 11.906 C 134 12.405, 134.900 12.577, 136 12.290 C 137.100 12.002, 138 11.594, 138 11.383 C 138 11.173, 137.100 11, 136 11 C 134.900 11, 134 11.408, 134 11.906 M 35 13.059 C 35 13.641, 35.450 13.840, 36 13.500 C 36.550 13.160, 37 12.684, 37 12.441 C 37 12.198, 36.550 12, 36 12 C 35.450 12, 35 12.477, 35 13.059 M 169.071 13.415 C 168.325 14.313, 168.012 15.345, 168.374 15.707 C 169.308 16.641, 171.306 14.417, 170.826 12.978 C 170.550 12.150, 170.008 12.285, 169.071 13.415 M 95.515 13.976 C 95.162 14.547, 95.464 15.199, 96.187 15.425 C 99.353 16.415, 106.934 17.212, 112 17.088 C 115.025 17.014, 118.963 17.383, 120.750 17.907 C 122.847 18.522, 124 18.514, 124 17.885 C 124 16.776, 131.326 17.850, 131.795 19.027 C 131.957 19.434, 133.906 19.359, 136.126 18.860 C 140.251 17.934, 143.144 18.103, 146.250 19.453 C 147.213 19.872, 148.787 19.896, 149.750 19.507 C 152.621 18.347, 147.772 16.986, 140.637 16.949 C 132.452 16.907, 129.904 16.573, 127.381 15.213 C 126.216 14.585, 124.941 14.392, 124.547 14.785 C 123.655 15.676, 114 15.762, 114 14.879 C 114 14.524, 113.100 13.998, 112 13.710 C 110.700 13.370, 110 13.680, 110 14.594 C 110 16.218, 109.051 16.342, 105.815 15.140 C 101.429 13.511, 96.170 12.916, 95.515 13.976 M 152 17.500 C 152 18.349, 152.896 19, 154.066 19 C 155.202 19, 157.114 19.530, 158.316 20.178 C 160.786 21.510, 165 21.934, 165 20.850 C 165 19.995, 162.965 19.374, 157.246 18.484 C 154.906 18.121, 153.245 17.413, 153.555 16.911 C 153.865 16.410, 153.641 16, 153.059 16 C 152.477 16, 152 16.675, 152 17.500 M 176.750 16.662 C 177.438 16.940, 178.563 16.940, 179.250 16.662 C 179.938 16.385, 179.375 16.158, 178 16.158 C 176.625 16.158, 176.063 16.385, 176.750 16.662 M 30.354 18.465 C 29.204 19.270, 28.040 19.706, 27.767 19.433 C 27.494 19.161, 26.515 20.091, 25.592 21.501 C 24.659 22.924, 23.418 23.759, 22.802 23.377 C 22.064 22.921, 21.975 23.162, 22.537 24.095 C 23.258 25.292, 23.133 25.296, 21.692 24.128 C 20.212 22.927, 20 23, 20 24.711 C 20 28.163, 21.214 28.056, 25.403 24.236 C 27.656 22.181, 30.625 19.736, 32 18.802 C 33.375 17.869, 34.038 17.081, 33.473 17.052 C 32.907 17.024, 31.504 17.659, 30.354 18.465 M 35.500 19 C 34.505 20.100, 33.101 21, 32.380 21 C 31.660 21, 30.591 21.896, 30.005 22.990 C 29.072 24.733, 29.410 24.662, 32.720 22.416 C 34.799 21.006, 36.860 19.210, 37.300 18.426 C 38.436 16.400, 37.617 16.661, 35.500 19 M 169 18 C 169 18.550, 170.463 18.968, 172.250 18.930 C 174.974 18.871, 175.176 18.720, 173.500 18 C 170.737 16.813, 169 16.813, 169 18 M 104.730 20.074 C 104.980 21.032, 105.972 22.021, 106.935 22.273 C 108.419 22.661, 108.527 22.397, 107.647 20.532 C 106.419 17.930, 104.073 17.562, 104.730 20.074 M 18.345 20.543 C 18.019 21.392, 17.976 22.310, 18.249 22.583 C 18.523 22.856, 18.986 22.161, 19.279 21.040 C 19.903 18.657, 19.210 18.289, 18.345 20.543 M 118.667 19.667 C 117.516 20.817, 117.938 22, 119.500 22 C 120.325 22, 121 21.325, 121 20.500 C 121 18.938, 119.817 18.516, 118.667 19.667 M 167 20 C 167.825 20.533, 169.400 20.945, 170.500 20.914 L 172.500 20.859 170.500 20 C 169.400 19.527, 167.825 19.116, 167 19.086 C 165.667 19.037, 165.667 19.138, 167 20 M 181.244 21.250 C 181.470 21.938, 182.970 22.632, 184.577 22.794 L 187.500 23.088 184.636 21.544 C 181.168 19.674, 180.714 19.635, 181.244 21.250 M 173.786 23.291 C 174.113 24.542, 174.531 24.908, 174.779 24.163 C 175.112 23.165, 175.584 23.218, 176.894 24.404 C 178.422 25.787, 178.594 25.736, 178.736 23.852 C 178.822 22.709, 178.646 22.021, 178.344 22.323 C 178.041 22.625, 176.766 22.481, 175.508 22.003 C 173.493 21.237, 173.289 21.390, 173.786 23.291 M 133.813 22.683 C 134.534 22.972, 135.397 22.936, 135.729 22.604 C 136.061 22.272, 135.471 22.036, 134.417 22.079 C 133.252 22.127, 133.015 22.364, 133.813 22.683 M 80.441 24.096 C 80.068 24.699, 78.490 25.005, 76.934 24.777 C 75.379 24.549, 74.333 24.730, 74.612 25.181 C 74.890 25.631, 74.668 26, 74.118 26 C 73.568 26, 72.840 25.550, 72.500 25 C 71.776 23.829, 66.380 23.791, 63.500 24.936 C 62.400 25.373, 60.501 25.358, 59.281 24.902 C 57.575 24.265, 56.726 24.553, 55.607 26.151 C 54.806 27.294, 54.442 28.965, 54.798 29.865 C 55.277 31.074, 55.607 30.719, 56.065 28.500 C 56.569 26.067, 56.830 25.829, 57.448 27.244 C 57.867 28.204, 58.682 28.697, 59.259 28.340 C 59.872 27.961, 60.012 28.171, 59.595 28.845 C 58.617 30.429, 62.236 30.349, 63.902 28.750 C 64.618 28.063, 64.033 29.250, 62.602 31.390 C 61.171 33.529, 60 36.341, 60 37.640 C 60 38.938, 59.546 40, 58.992 40 C 58.358 40, 58.315 40.651, 58.874 41.750 C 59.364 42.712, 60.178 44.850, 60.683 46.500 C 61.265 48.403, 62.222 49.449, 63.300 49.361 C 64.235 49.285, 65 49.769, 65 50.437 C 65 52.268, 69.137 55.652, 72.287 56.397 C 82.303 58.767, 94.117 46.010, 91.132 36.047 C 90.472 33.844, 89.002 31.804, 87.492 30.996 C 84.810 29.561, 85.127 28.639, 88.667 27.571 C 90.482 27.024, 90.748 27.248, 90.304 28.946 C 89.784 30.935, 93.378 35.159, 98.857 39 C 100.513 40.160, 101.252 42.255, 102.120 48.250 C 102.925 53.802, 103.651 56, 104.681 56 C 105.471 56, 105.840 56.450, 105.500 57 C 105.160 57.550, 104.009 58, 102.941 58 C 101.241 58, 101 57.274, 101 52.149 C 101 44.899, 99.343 39.655, 97.299 40.439 C 96.495 40.747, 95.266 41, 94.570 41 C 92.967 41, 90.349 47.769, 90.799 50.750 C 90.995 52.047, 91.851 53.006, 92.820 53.015 C 94.270 53.029, 94.295 53.163, 93 54 C 91.802 54.774, 92.003 54.996, 94 55.101 C 95.789 55.195, 95.988 55.365, 94.702 55.699 C 92.345 56.310, 90 54.294, 90 51.655 C 90 49.579, 89.982 49.581, 88.434 51.791 C 86.381 54.722, 79.929 57.963, 75.790 58.143 C 70.816 58.358, 89.547 59.759, 106.432 60.434 C 114.645 60.763, 121.579 61.246, 121.840 61.507 C 122.102 61.769, 122.928 61.474, 123.677 60.853 C 124.715 59.991, 125.520 60.160, 127.075 61.568 C 128.759 63.092, 129.449 63.200, 131.060 62.195 C 132.394 61.361, 132.927 61.328, 132.754 62.088 C 132.614 62.698, 134.958 63.843, 137.962 64.632 C 140.966 65.422, 143.724 66.553, 144.090 67.146 C 144.828 68.340, 151.755 69.889, 156.656 69.956 C 159.418 69.995, 159.751 69.718, 159.320 67.750 C 158.923 65.942, 159.037 65.795, 159.898 67 C 160.487 67.825, 160.976 69.287, 160.985 70.250 C 160.997 71.681, 161.911 72, 166 72 C 168.750 72, 171 71.569, 171 71.042 C 171 70.487, 174.691 70.171, 179.750 70.292 C 188.537 70.501, 191.096 71.887, 184.999 73.134 C 181.480 73.854, 180.338 74.672, 181.388 75.721 C 181.784 76.118, 182.422 76.005, 182.804 75.471 C 184.198 73.525, 185.939 74.106, 188.193 77.268 C 189.460 79.046, 190.498 80.950, 190.498 81.500 C 190.499 82.050, 191.738 82.642, 193.250 82.816 C 196.495 83.190, 196.503 83.130, 194.500 72.662 C 193.675 68.351, 193 64.659, 193 64.457 C 193 63.328, 173.485 62.188, 148 61.827 C 140.025 61.714, 136.100 61.459, 139.278 61.260 C 142.455 61.061, 144.854 60.573, 144.608 60.175 C 144.362 59.777, 146.105 59.463, 148.481 59.476 C 150.857 59.489, 152.594 59.837, 152.341 60.250 C 152.089 60.663, 152.610 61, 153.500 61 C 154.390 61, 154.869 60.597, 154.565 60.105 C 154.260 59.612, 154.609 58.980, 155.340 58.700 C 156.122 58.400, 156.738 56.402, 156.838 53.845 C 156.931 51.455, 157.205 48.487, 157.446 47.250 C 157.969 44.572, 157.791 44.539, 153.839 46.583 C 151.509 47.788, 150.883 47.850, 151.219 46.842 C 151.462 46.114, 151.033 44.891, 150.267 44.124 C 149.091 42.948, 148.479 42.941, 146.357 44.077 C 141.911 46.456, 134.986 44.614, 137.800 41.800 C 138.733 40.867, 139 40.898, 139 41.942 C 139 42.986, 140.335 43.145, 145 42.658 C 148.696 42.272, 151 42.409, 151 43.015 C 151 44.435, 156.362 44.229, 157.901 42.750 C 158.966 41.726, 159.073 43.171, 158.494 50.750 C 157.917 58.313, 158.041 60, 159.176 60 C 159.975 60, 160.649 58.833, 160.764 57.250 C 161.050 53.328, 164.012 33.857, 164.659 31.643 C 165.136 30.014, 166.049 29.834, 172.101 30.176 C 175.896 30.390, 179 30.213, 179 29.783 C 179 29.352, 178.438 28.962, 177.750 28.917 C 177.063 28.871, 175.375 28.685, 174 28.503 C 172.625 28.322, 165.650 27.871, 158.500 27.502 C 151.350 27.133, 144.309 26.683, 142.854 26.502 C 141.399 26.320, 133.974 25.897, 126.354 25.562 C 118.734 25.226, 109.877 24.711, 106.672 24.417 C 101.405 23.934, 100.792 24.080, 100.308 25.930 C 100.014 27.056, 99.352 27.718, 98.838 27.400 C 98.292 27.062, 98.417 26.202, 99.139 25.332 C 100.222 24.028, 99.292 23.883, 91.686 24.171 C 86.906 24.352, 82.996 24.163, 82.998 23.750 C 83.001 22.611, 81.208 22.854, 80.441 24.096 M 117.813 23.683 C 118.534 23.972, 119.397 23.936, 119.729 23.604 C 120.061 23.272, 119.471 23.036, 118.417 23.079 C 117.252 23.127, 117.015 23.364, 117.813 23.683 M 17.219 28.656 C 17.373 29.120, 17.275 29.521, 17 29.546 C 16.725 29.571, 15.473 30.471, 14.218 31.546 C 11.655 33.740, 9.855 34.066, 8.765 32.533 C 8.338 31.932, 8.024 32.231, 8.015 33.250 C 8.007 34.212, 8.477 35, 9.059 35 C 9.641 35, 9.797 35.520, 9.405 36.155 C 8.540 37.554, 10.166 36.691, 14.683 33.352 C 16.434 32.059, 18.384 31, 19.017 31 C 20.475 31, 19.782 28.761, 18.156 28.219 C 17.486 27.995, 17.064 28.192, 17.219 28.656 M 138.115 29.813 C 138.999 31.228, 140.527 31.444, 147.606 31.151 C 159.323 30.667, 159.805 30.950, 156.593 36.432 C 153.209 42.206, 153.318 43.027, 157 39.500 C 159.105 37.483, 160 35.675, 160 33.438 C 160 30.672, 159.589 30.168, 156.894 29.629 C 155.185 29.287, 151.399 29.288, 148.479 29.631 C 145.524 29.979, 141.817 29.783, 140.116 29.190 C 137.368 28.232, 137.167 28.295, 138.115 29.813 M 68.750 30.080 C 66.107 31.619, 64.175 36.074, 63.539 42.094 L 62.967 47.500 64.522 42 C 65.378 38.975, 67.192 34.813, 68.553 32.750 C 69.914 30.688, 70.909 29.014, 70.764 29.030 C 70.619 29.047, 69.712 29.519, 68.750 30.080 M 87.500 30 C 87.840 30.550, 88.316 31, 88.559 31 C 88.802 31, 89 30.550, 89 30 C 89 29.450, 88.523 29, 87.941 29 C 87.359 29, 87.160 29.450, 87.500 30 M 99.015 29.691 C 99.024 30.136, 99.467 31.175, 100 32 C 100.835 33.293, 100.971 33.266, 100.985 31.809 C 100.993 30.879, 100.550 29.840, 100 29.500 C 99.450 29.160, 99.007 29.246, 99.015 29.691 M 56.459 33.291 C 55.893 35.101, 55.738 37.689, 56.115 39.041 C 56.846 41.662, 57.351 40.050, 57.024 36.138 C 56.907 34.725, 57.244 34.033, 57.864 34.416 C 58.433 34.768, 59.364 34.188, 59.932 33.128 C 60.728 31.640, 60.607 31.063, 59.400 30.600 C 58.540 30.270, 57.758 30, 57.663 30 C 57.567 30, 57.026 31.481, 56.459 33.291 M 75.710 31.768 C 70.754 37.244, 68.490 48.347, 71.679 51.536 C 74.937 54.794, 83.302 52.041, 86.116 46.784 C 86.848 45.415, 86.713 45.173, 85.480 45.646 C 84.619 45.977, 84.137 46.470, 84.409 46.743 C 85.327 47.660, 82.027 50.135, 80.853 49.409 C 80.179 48.993, 79.959 49.125, 80.329 49.724 C 80.695 50.316, 79.591 51.032, 77.738 51.402 C 75.315 51.887, 74.195 51.620, 73.254 50.333 C 71.648 48.137, 71.706 44.157, 73.389 41.122 L 74.707 38.744 76.249 40.945 C 77.205 42.311, 78.043 42.739, 78.455 42.073 C 78.819 41.483, 78.693 41, 78.173 41 C 77.077 41, 76.024 35.133, 76.768 33.176 C 77.463 31.345, 81.551 32.503, 84.700 35.423 L 87.225 37.764 84.116 37.402 C 81.243 37.067, 81.101 37.189, 82.240 39.013 C 83.061 40.327, 84.143 40.799, 85.486 40.427 C 87.114 39.976, 87.213 40.070, 86 40.919 C 84.899 41.690, 84.848 41.973, 85.809 41.985 C 86.529 41.993, 86.840 42.450, 86.500 43 C 86.160 43.550, 86.359 44, 86.941 44 C 87.523 44, 88 42.200, 88 40 C 88 35.647, 85.799 32.635, 81.395 30.960 C 77.985 29.664, 77.560 29.724, 75.710 31.768 M 95 30.711 C 95 31.285, 95.787 32.373, 96.750 33.128 C 98.369 34.397, 98.390 34.350, 97.033 32.500 C 96.226 31.400, 95.439 30.313, 95.283 30.083 C 95.127 29.854, 95 30.137, 95 30.711 M 111.073 32.739 C 109.433 36.338, 107.552 53.077, 108.405 56.476 C 108.908 58.480, 109.602 59.053, 111.240 58.815 C 113.045 58.553, 113.724 57.221, 115.288 50.867 C 117.103 43.493, 117.278 43.217, 120.476 42.698 C 122.297 42.402, 125.689 42.816, 128.013 43.617 C 131.769 44.911, 132.505 44.899, 134.620 43.513 C 135.929 42.656, 137 41.495, 137 40.933 C 137 40.372, 137.563 39.985, 138.250 40.075 C 141.615 40.512, 142.363 39.985, 140.441 38.532 C 137.731 36.482, 136 36.651, 136 38.965 C 136 42.901, 130.027 43.884, 126.647 40.504 C 125.521 39.378, 124.638 39.360, 121.609 40.402 C 116.544 42.143, 115.883 43.021, 113.995 50.519 C 113.086 54.131, 111.928 57.060, 111.421 57.027 C 109.983 56.935, 110.390 35.889, 111.882 33.164 C 112.586 31.880, 112.974 30.640, 112.743 30.410 C 112.513 30.180, 111.762 31.228, 111.073 32.739 M 187.500 31 C 187.160 31.550, 187.286 32, 187.780 32 C 188.959 32, 191 36.535, 191 39.154 C 191 40.506, 191.480 41.030, 192.395 40.679 C 193.485 40.261, 193.681 40.959, 193.292 43.863 C 192.945 46.450, 193.254 47.966, 194.307 48.840 C 195.291 49.657, 196.042 49.742, 196.449 49.083 C 197.292 47.719, 194.144 36.929, 192.285 34.813 C 191.471 33.885, 191.097 32.653, 191.454 32.074 C 191.861 31.416, 191.463 31.269, 190.388 31.681 C 189.224 32.128, 188.904 31.964, 189.395 31.170 C 189.793 30.526, 189.668 30, 189.118 30 C 188.568 30, 187.840 30.450, 187.500 31 M 134.726 31.842 C 133.269 32.418, 133.538 32.758, 136.226 33.741 C 138.973 34.747, 139.221 34.728, 137.766 33.621 C 136.812 32.896, 136.324 32.009, 136.682 31.651 C 137.460 30.873, 137.083 30.910, 134.726 31.842 M 165.615 31.845 C 165.402 32.205, 164.926 34.975, 164.556 38 C 164.074 41.944, 164.178 43.076, 164.926 42 C 165.766 40.792, 165.972 41.014, 165.985 43.143 C 165.993 44.597, 166.587 46.011, 167.304 46.286 C 168.872 46.888, 176.806 44.148, 180.122 41.859 C 183.420 39.584, 181.867 38.500, 178.100 40.448 C 176.402 41.326, 173.865 42.481, 172.461 43.015 C 170.241 43.859, 170.029 43.770, 170.834 42.332 C 171.343 41.423, 173.276 40.177, 175.130 39.564 C 177.285 38.851, 178.453 37.845, 178.369 36.773 C 178.266 35.444, 178.834 35.217, 181.119 35.674 C 183.348 36.120, 184 35.882, 184 34.625 C 184 33.731, 183.325 33, 182.500 33 C 181.675 33, 181 32.460, 181 31.800 C 181 30.913, 180.707 30.893, 179.878 31.722 C 179.261 32.339, 178.136 32.606, 177.378 32.315 C 176.620 32.024, 175.993 32.397, 175.985 33.143 C 175.974 34.054, 175.728 34.138, 175.235 33.400 C 174.406 32.159, 166.210 30.835, 165.615 31.845 M 116.583 33.643 C 115.631 36.126, 116.681 36.465, 117.954 34.086 C 118.568 32.938, 118.653 32, 118.142 32 C 117.632 32, 116.930 32.739, 116.583 33.643 M 151.667 33.667 C 151.300 34.033, 151 34.798, 151 35.367 C 151 35.993, 151.466 35.934, 152.183 35.217 C 152.834 34.566, 153.134 33.801, 152.850 33.517 C 152.566 33.233, 152.033 33.300, 151.667 33.667 M 21.158 36 C 21.158 37.375, 21.385 37.938, 21.662 37.250 C 21.940 36.563, 21.940 35.438, 21.662 34.750 C 21.385 34.063, 21.158 34.625, 21.158 36 M 120.405 36.250 L 118.500 38.500 120.750 36.595 C 122.864 34.805, 123.455 34, 122.655 34 C 122.465 34, 121.453 35.013, 120.405 36.250 M 144 35.500 C 142.649 37.128, 142.972 37.332, 145.418 36.393 C 146.288 36.059, 147 35.384, 147 34.893 C 147 33.510, 145.380 33.838, 144 35.500 M 0.369 47 C 0.388 54.119, 0.549 56.181, 0.743 51.790 C 1.046 44.902, 1.357 43.864, 3.659 42.054 C 5.076 40.939, 6.585 40.244, 7.013 40.508 C 7.440 40.772, 8.048 40.316, 8.364 39.494 C 8.889 38.125, 7.835 37.520, 5.627 37.922 C 5.147 38.010, 5.012 37.411, 5.326 36.592 C 5.713 35.585, 5.431 35.281, 4.457 35.655 C 3.472 36.033, 3.296 36.706, 3.899 37.784 C 4.471 38.807, 4.318 39.825, 3.462 40.681 C 1.492 42.651, 1.158 42.354, 0.728 38.250 C 0.513 36.188, 0.351 40.125, 0.369 47 M 185.158 37 C 185.158 38.375, 185.385 38.938, 185.662 38.250 C 185.940 37.563, 185.940 36.438, 185.662 35.750 C 185.385 35.063, 185.158 35.625, 185.158 37 M 187.031 35.500 C 187.031 36.050, 187.467 37.175, 188 38 C 188.533 38.825, 188.969 39.050, 188.969 38.500 C 188.969 37.950, 188.533 36.825, 188 36 C 187.467 35.175, 187.031 34.950, 187.031 35.500 M 130.667 36.667 C 130.300 37.033, 130 38.196, 130 39.250 C 130 41.843, 132.415 40.920, 132.820 38.172 C 133.129 36.069, 132.031 35.302, 130.667 36.667 M 168 37.059 C 168 37.641, 168.450 37.840, 169 37.500 C 169.550 37.160, 170 36.684, 170 36.441 C 170 36.198, 169.550 36, 169 36 C 168.450 36, 168 36.477, 168 37.059 M 93.638 38.500 C 93.955 39.325, 94.671 40, 95.229 40 C 95.815 40, 95.718 39.365, 95 38.500 C 94.315 37.675, 93.599 37, 93.409 37 C 93.219 37, 93.322 37.675, 93.638 38.500 M 107.079 38.583 C 107.127 39.748, 107.364 39.985, 107.683 39.188 C 107.972 38.466, 107.936 37.603, 107.604 37.271 C 107.272 36.939, 107.036 37.529, 107.079 38.583 M 19.710 41.001 C 19.380 42.262, 19.581 42.759, 20.251 42.345 C 20.950 41.913, 21.094 42.513, 20.671 44.094 C 20.317 45.417, 20.021 47.962, 20.014 49.750 C 20.005 51.837, 19.507 53, 18.622 53 C 17.865 53, 16.627 53.748, 15.872 54.663 C 14.694 56.091, 14.712 56.232, 16 55.663 C 16.825 55.299, 18.232 54.738, 19.126 54.417 C 20.721 53.843, 22 48.255, 22 41.860 C 22 38.584, 20.490 38.018, 19.710 41.001 M 45 40 C 45 40.550, 45.477 41, 46.059 41 C 46.641 41, 46.840 40.550, 46.500 40 C 46.160 39.450, 45.684 39, 45.441 39 C 45.198 39, 45 39.450, 45 40 M 185.128 41.692 C 185.882 42.623, 185.979 43.072, 185.343 42.690 C 184.707 42.309, 181.332 43.347, 177.843 44.998 C 170.302 48.565, 166.049 48.905, 165.290 46 C 164.472 42.874, 163.007 43.653, 162.938 47.250 C 162.904 49.038, 162.649 52.480, 162.373 54.901 C 162.029 57.910, 162.286 59.565, 163.185 60.135 C 165.330 61.496, 166.651 61.051, 164.750 59.608 C 163.787 58.877, 163 57.767, 163 57.140 C 163 56.513, 163.787 56.007, 164.750 56.015 C 166.113 56.027, 166.200 56.221, 165.143 56.890 C 164.069 57.571, 164.048 57.912, 165.045 58.528 C 166.420 59.377, 169.529 56.012, 168.250 55.059 C 167.837 54.752, 167.561 53.825, 167.635 53 C 167.709 52.175, 167.821 50.871, 167.885 50.102 C 167.978 48.975, 169.544 48.823, 175.962 49.318 C 180.707 49.683, 184.165 49.541, 184.521 48.966 C 184.849 48.435, 185.568 48, 186.118 48 C 186.668 48, 186.840 48.450, 186.500 49 C 186.160 49.550, 186.809 50, 187.941 50 C 190.404 50, 190.366 50.431, 188.406 44.678 C 187.440 41.843, 186.210 40, 185.284 40 C 183.974 40, 183.951 40.242, 185.128 41.692 M 190.082 43 C 190.054 43.825, 190.668 46.525, 191.448 49 C 192.228 51.475, 192.889 52.825, 192.918 52 C 192.946 51.175, 192.332 48.475, 191.552 46 C 190.772 43.525, 190.111 42.175, 190.082 43 M 52.158 45 C 52.158 46.375, 52.385 46.938, 52.662 46.250 C 52.940 45.563, 52.940 44.438, 52.662 43.750 C 52.385 43.063, 52.158 43.625, 52.158 45 M 57.158 45 C 57.158 46.375, 57.385 46.938, 57.662 46.250 C 57.940 45.563, 57.940 44.438, 57.662 43.750 C 57.385 43.063, 57.158 43.625, 57.158 45 M 16.015 47.750 C 16.025 50.140, 16.333 51.023, 16.864 50.185 C 17.636 48.968, 17.250 44, 16.383 44 C 16.173 44, 16.007 45.688, 16.015 47.750 M 9.252 50.750 C 9.198 56.315, 9.223 56.371, 10.040 52.500 C 11.153 47.227, 11.187 45, 10.154 45 C 9.689 45, 9.283 47.587, 9.252 50.750 M 25.195 48.500 C 25.215 50.150, 25.439 50.704, 25.693 49.731 C 25.947 48.758, 25.930 47.408, 25.656 46.731 C 25.382 46.054, 25.175 46.850, 25.195 48.500 M 145.687 48.627 C 145.944 49.297, 146.858 50.115, 147.719 50.446 C 148.977 50.928, 149.051 50.767, 148.100 49.620 C 147.182 48.514, 147.206 48.084, 148.208 47.699 C 148.919 47.427, 148.537 47.250, 147.360 47.306 C 146.115 47.366, 145.415 47.919, 145.687 48.627 M 5.494 50.019 C 5.142 51.129, 4.689 54.052, 4.489 56.514 C 4.288 58.976, 3.808 61.501, 3.423 62.125 C 2.996 62.816, 3.265 63.079, 4.111 62.798 C 4.932 62.525, 5.578 60.736, 5.690 58.418 C 5.795 56.263, 6.104 53.038, 6.377 51.250 C 6.935 47.604, 6.467 46.953, 5.494 50.019 M 106.252 51.500 C 106.263 53.700, 106.468 54.482, 106.707 53.238 C 106.946 51.994, 106.937 50.194, 106.687 49.238 C 106.437 48.282, 106.241 49.300, 106.252 51.500 M 42 50.743 C 40.075 51.677, 37.905 53.016, 37.179 53.720 C 35.699 55.153, 34.873 55.380, 35.250 54.250 C 35.388 53.837, 35.093 53.275, 34.595 53 C 33.596 52.448, 33.373 53.497, 32.473 63 C 32.134 66.575, 31.634 70.287, 31.361 71.250 C 31.068 72.283, 31.405 72.999, 32.183 72.997 C 32.987 72.995, 33.528 71.729, 33.572 69.747 C 33.611 67.961, 33.969 65.214, 34.368 63.642 C 34.975 61.246, 35.501 60.863, 37.624 61.268 C 39.535 61.634, 40.367 61.231, 41.015 59.626 L 41.873 57.500 41.937 59.701 C 42.003 61.993, 44.691 73.024, 45.342 73.676 C 45.548 73.881, 45.707 72.800, 45.697 71.274 C 45.687 69.748, 46.043 64.112, 46.487 58.750 C 46.959 53.057, 46.922 49.009, 46.398 49.023 C 45.904 49.035, 43.925 49.809, 42 50.743 M 59.672 50.979 C 60.316 51.675, 60.623 52.818, 60.354 53.521 C 60.084 54.223, 60.414 55.138, 61.086 55.553 C 61.868 56.037, 62.052 55.893, 61.595 55.155 C 61.180 54.482, 61.494 54, 62.347 54 C 63.334 54, 63.637 54.672, 63.275 56.057 C 62.945 57.319, 62.188 57.903, 61.317 57.568 C 60.535 57.268, 60.128 57.398, 60.411 57.856 C 60.694 58.314, 63.530 58.765, 66.713 58.857 L 72.500 59.025 69.566 57.476 C 67.952 56.624, 66.062 56.146, 65.367 56.413 C 64.653 56.687, 64.309 56.357, 64.578 55.657 C 64.840 54.975, 63.580 53.358, 61.777 52.065 C 59.975 50.772, 59.027 50.283, 59.672 50.979 M 170 51 C 170 51.550, 170.675 52, 171.500 52 C 172.325 52, 173 51.550, 173 51 C 173 50.450, 172.325 50, 171.500 50 C 170.675 50, 170 50.450, 170 51 M 174 50.981 C 174 52.048, 189.022 52.786, 189.658 51.750 C 189.911 51.337, 187.729 50.949, 184.809 50.886 C 181.889 50.823, 178.262 50.625, 176.750 50.446 C 175.238 50.267, 174 50.507, 174 50.981 M 96.079 52.583 C 96.127 53.748, 96.364 53.985, 96.683 53.188 C 96.972 52.466, 96.936 51.603, 96.604 51.271 C 96.272 50.939, 96.036 51.529, 96.079 52.583 M 132.813 51.683 C 133.534 51.972, 134.397 51.936, 134.729 51.604 C 135.061 51.272, 134.471 51.036, 133.417 51.079 C 132.252 51.127, 132.015 51.364, 132.813 51.683 M 203.500 52 C 203.160 52.550, 203.557 53, 204.382 53 C 205.207 53, 206.160 52.550, 206.500 52 C 206.840 51.450, 206.443 51, 205.618 51 C 204.793 51, 203.840 51.450, 203.500 52 M 170.270 55.069 C 170.097 57.366, 170.568 57.568, 171.349 55.532 C 171.659 54.725, 171.576 53.856, 171.164 53.601 C 170.752 53.347, 170.350 54.007, 170.270 55.069 M 21 55.725 C 21 56.307, 19.200 57.503, 17 58.383 C 14.466 59.397, 12.997 60.628, 12.991 61.742 C 12.984 63.144, 10.924 81.952, 9.740 91.423 C 9.544 92.992, 10.132 93.347, 12.934 93.355 C 14.896 93.360, 16.698 92.750, 17.139 91.932 C 18.026 90.282, 22.037 55.711, 21.414 55.083 C 21.186 54.854, 21 55.143, 21 55.725 M 30.286 59.500 C 30.294 62.250, 30.488 63.256, 30.718 61.736 C 30.947 60.216, 30.941 57.966, 30.704 56.736 C 30.467 55.506, 30.279 56.750, 30.286 59.500 M 116.861 56.941 C 119.750 59.461, 121.025 59.558, 120.921 57.250 C 120.870 56.125, 120.656 55.964, 120.321 56.800 C 119.909 57.828, 119.248 57.764, 117.150 56.490 L 114.500 54.881 116.861 56.941 M 12 56.833 C 12 57.475, 11.352 58, 10.559 58 C 9.766 58, 8.840 58.450, 8.500 59 C 7.599 60.457, 9.313 60.223, 11.557 58.582 C 12.624 57.802, 13.160 56.827, 12.748 56.415 C 12.337 56.003, 12 56.192, 12 56.833 M 39.345 57.543 C 39.019 58.392, 38.976 59.310, 39.249 59.583 C 39.523 59.856, 39.986 59.161, 40.279 58.040 C 40.903 55.657, 40.210 55.289, 39.345 57.543 M 57.070 58.750 C 57.133 61.187, 57.238 61.272, 58 59.500 C 59.174 56.769, 59.174 56, 58 56 C 57.450 56, 57.032 57.237, 57.070 58.750 M 24.158 60 C 24.158 61.375, 24.385 61.938, 24.662 61.250 C 24.940 60.563, 24.940 59.438, 24.662 58.750 C 24.385 58.063, 24.158 58.625, 24.158 60 M 199 60.441 C 199 61.234, 199.408 62.134, 199.907 62.442 C 200.405 62.751, 200.578 62.102, 200.290 61.001 C 199.679 58.666, 199 58.371, 199 60.441 M 9.498 61.688 C 8.399 62.527, 6.037 63.846, 4.250 64.620 C 2.356 65.440, 1.006 66.751, 1.015 67.763 C 1.028 69.250, 1.170 69.284, 2 68 C 2.753 66.835, 2.973 67.128, 2.985 69.309 C 2.993 70.854, 2.662 71.914, 2.250 71.665 C 1.837 71.416, 1.424 76.002, 1.332 81.856 L 1.164 92.500 2.597 80.500 C 3.385 73.900, 4.461 67.600, 4.988 66.500 C 5.840 64.724, 5.900 64.780, 5.524 67 C 5.292 68.375, 4.606 74.225, 4 80 C 3.394 85.775, 2.685 91.524, 2.424 92.775 C 1.997 94.821, 2.230 94.983, 4.725 94.385 C 6.251 94.018, 7.572 93.669, 7.661 93.609 C 7.749 93.549, 8.149 91.747, 8.549 89.605 C 9.074 86.797, 8.959 85.907, 8.138 86.414 C 6.898 87.181, 6.561 85.773, 7.709 84.624 C 8.099 84.234, 8.290 82.134, 8.133 79.957 C 7.976 77.781, 8.299 76, 8.851 76 C 9.403 76, 9.682 74.636, 9.471 72.968 C 9.260 71.300, 9.460 70.167, 9.917 70.449 C 10.670 70.914, 12.506 61.173, 11.798 60.465 C 11.633 60.299, 10.598 60.850, 9.498 61.688 M 75.500 60.967 C 79.350 61.325, 83.400 61.283, 84.500 60.873 C 85.603 60.461, 82.464 60.169, 77.500 60.221 L 68.500 60.315 75.500 60.967 M 26.224 65.176 C 25.322 66.078, 25.334 66.706, 26.274 67.868 C 27.061 68.841, 27.092 69.140, 26.362 68.702 C 25.648 68.274, 25.072 69.058, 24.815 70.807 C 24.440 73.362, 24.638 73.560, 27.203 73.184 C 29.503 72.846, 30 72.275, 30 69.968 C 30 64.702, 28.545 62.855, 26.224 65.176 M 59.473 66.044 C 59.148 66.570, 59.809 67, 60.941 67 C 63.356 67, 63.599 66.444, 61.532 65.651 C 60.725 65.341, 59.798 65.518, 59.473 66.044 M 196.015 66.583 C 196.024 67.638, 196.487 69.175, 197.046 70 C 197.787 71.095, 197.880 70.691, 197.390 68.500 C 196.567 64.823, 195.995 64.025, 196.015 66.583 M 27.787 69 C 27.545 70.650, 27.718 72, 28.173 72 C 28.628 72, 29 70.650, 29 69 C 29 67.350, 28.826 66, 28.613 66 C 28.401 66, 28.029 67.350, 27.787 69 M 23.079 68.583 C 23.127 69.748, 23.364 69.985, 23.683 69.188 C 23.972 68.466, 23.936 67.603, 23.604 67.271 C 23.272 66.939, 23.036 67.529, 23.079 68.583 M 36.150 70 C 35.355 72.279, 35.401 73, 36.339 73 C 37.019 73, 37.677 71.650, 37.803 70 C 37.929 68.350, 37.844 67, 37.614 67 C 37.384 67, 36.725 68.350, 36.150 70 M 123.040 70.452 C 122.342 71.293, 122.130 72.834, 122.536 74.115 C 123.156 76.066, 123.347 76.130, 124.169 74.663 C 125.266 72.702, 127.592 72.475, 128.407 74.250 C 128.723 74.938, 128.700 74.375, 128.356 73 C 127.383 69.111, 125.072 68.004, 123.040 70.452 M 47.195 72.500 C 47.215 74.150, 47.439 74.704, 47.693 73.731 C 47.947 72.758, 47.930 71.408, 47.656 70.731 C 47.382 70.054, 47.175 70.850, 47.195 72.500 M 51.250 75.031 C 50.013 75.529, 49 76.594, 49 77.398 C 49 78.561, 49.641 78.677, 52.136 77.961 C 55.907 76.880, 56.402 76.459, 55.541 75.067 C 54.771 73.820, 54.273 73.816, 51.250 75.031 M 59 76.833 C 59 78.575, 59.465 80, 60.034 80 C 60.603 80, 60.920 78.892, 60.739 77.538 C 60.234 73.766, 59 73.266, 59 76.833 M 22.079 76.583 C 22.127 77.748, 22.364 77.985, 22.683 77.188 C 22.972 76.466, 22.936 75.603, 22.604 75.271 C 22.272 74.939, 22.036 75.529, 22.079 76.583 M 24.195 77.500 C 24.215 79.150, 24.439 79.704, 24.693 78.731 C 24.947 77.758, 24.930 76.408, 24.656 75.731 C 24.382 75.054, 24.175 75.850, 24.195 77.500 M 198.079 76.583 C 198.127 77.748, 198.364 77.985, 198.683 77.188 C 198.972 76.466, 198.936 75.603, 198.604 75.271 C 198.272 74.939, 198.036 75.529, 198.079 76.583 M 9.158 79 C 9.158 80.375, 9.385 80.938, 9.662 80.250 C 9.940 79.563, 9.940 78.438, 9.662 77.750 C 9.385 77.063, 9.158 77.625, 9.158 79 M 51.250 80.031 C 49.501 80.734, 49 81.737, 49 84.535 C 49 87.803, 49.207 88.072, 51.250 87.455 C 54.254 86.547, 55.370 85.408, 54.552 84.084 C 54.080 83.320, 53.300 83.304, 51.939 84.032 C 50.640 84.728, 50 84.735, 50 84.054 C 50 83.495, 51.125 82.756, 52.500 82.411 C 53.875 82.066, 55 81.157, 55 80.392 C 55 78.810, 54.425 78.755, 51.250 80.031 M 79 81.309 C 79 83.347, 79.025 83.349, 80.468 81.441 C 81.886 79.566, 81.938 79.586, 81.984 82 C 82.017 83.789, 82.275 84.114, 82.890 83.143 C 83.490 82.197, 83.957 82.122, 84.434 82.893 C 85.617 84.807, 86.794 84.100, 86.644 81.567 C 86.518 79.437, 86.032 79.140, 82.750 79.184 C 79.639 79.227, 79 79.589, 79 81.309 M 88.954 81.086 C 88.340 82.233, 88.089 83.422, 88.395 83.729 C 88.702 84.035, 89.242 83.534, 89.595 82.614 C 90.186 81.072, 90.342 81.080, 91.586 82.721 C 92.329 83.699, 92.951 84.107, 92.968 83.628 C 92.986 83.148, 93.675 83.315, 94.500 84 C 95.337 84.695, 96 84.803, 96 84.245 C 96 83.695, 97.357 83.360, 99.016 83.501 C 100.674 83.642, 102.265 83.380, 102.551 82.917 C 102.837 82.455, 104.196 82.504, 105.571 83.027 C 107.526 83.770, 108.203 83.635, 108.675 82.405 C 109.162 81.135, 109.444 81.089, 110.139 82.166 C 110.844 83.258, 111.179 83.228, 111.985 82 C 113.523 79.657, 113.198 79, 110.500 79 C 108.944 79, 108 79.567, 108 80.500 C 108 82.314, 106.333 82.499, 105.750 80.750 C 105.192 79.075, 100 79.033, 100 80.704 C 100 81.417, 99.325 82, 98.500 82 C 97.675 82, 97 81.298, 97 80.441 C 97 79.444, 96.549 79.163, 95.750 79.663 C 93.894 80.822, 92 80.948, 92 79.912 C 92 78.236, 90.084 78.975, 88.954 81.086 M 127.690 80.750 C 127.245 81.438, 127.167 82.461, 127.515 83.025 C 127.864 83.588, 127.778 83.985, 127.324 83.906 C 124.687 83.448, 123.997 84.363, 126.500 85 L 129.500 85.763 126.750 85.882 C 123.909 86.004, 122.786 88, 125.559 88 C 126.416 88, 126.840 88.450, 126.500 89 C 126.141 89.581, 127.059 89.971, 128.691 89.930 C 131.128 89.869, 131.235 89.752, 129.500 89.048 C 127.750 88.338, 127.875 88.191, 130.500 87.868 C 132.794 87.587, 133.581 86.923, 133.846 85.048 C 134.162 82.807, 134.038 82.721, 132.404 84.048 C 130.907 85.264, 130.755 85.269, 131.472 84.080 C 132.107 83.027, 131.915 82.819, 130.726 83.275 C 129.597 83.708, 129.032 83.242, 128.811 81.695 C 128.593 80.165, 128.253 79.879, 127.690 80.750 M 23.015 83.750 C 23.026 85.751, 23.273 86.116, 23.923 85.091 C 24.413 84.316, 24.583 83.078, 24.300 82.341 C 23.489 80.226, 22.999 80.764, 23.015 83.750 M 60.500 82 C 60.840 82.550, 61.568 83, 62.118 83 C 62.668 83, 62.840 82.550, 62.500 82 C 62.160 81.450, 61.432 81, 60.882 81 C 60.332 81, 60.160 81.450, 60.500 82 M 199 83 C 199 84.264, 201.043 84.264, 203 83 C 204.169 82.245, 203.893 82.027, 201.750 82.015 C 200.238 82.007, 199 82.450, 199 83 M 193.529 85.908 C 193.196 86.957, 192.266 88.068, 191.462 88.376 C 189.903 88.974, 189.428 91, 190.847 91 C 192.459 91, 195.686 87.493, 195.676 85.750 C 195.664 83.416, 194.288 83.517, 193.529 85.908 M 200.583 85.866 C 200.152 86.563, 200.070 87.403, 200.400 87.733 C 201.295 88.628, 202.271 87.312, 201.787 85.862 C 201.449 84.846, 201.213 84.846, 200.583 85.866 M 203.543 85.931 C 203.226 86.443, 203.425 87.144, 203.984 87.490 C 204.543 87.835, 205 87.416, 205 86.559 C 205 84.802, 204.400 84.544, 203.543 85.931 M 213 87.378 C 213 87.585, 213.685 88.324, 214.523 89.019 C 215.796 90.076, 215.943 90.014, 215.416 88.641 C 214.878 87.240, 213 86.257, 213 87.378 M 64.171 96.502 C 64.352 100.629, 64.372 104.004, 64.215 104.002 C 64.058 104.001, 62.820 103.273, 61.465 102.385 C 60.109 101.497, 59 101.200, 59 101.724 C 59 103.134, 63.645 105, 67.152 105 C 70.112 105, 70.198 104.872, 69.832 101.039 L 69.455 97.078 71.523 99.021 C 73.571 100.946, 73.610 100.945, 75.546 99.008 C 77.485 97.067, 77.499 97.085, 77.352 101.415 L 77.205 105.778 86.852 105.749 C 94.458 105.726, 95.441 105.579, 91.500 105.058 C 87.778 104.565, 86.959 104.186, 88.298 103.573 C 89.286 103.120, 91.880 102.989, 94.062 103.282 C 97.293 103.715, 98.222 103.454, 99.065 101.879 C 99.634 100.815, 100.528 100.208, 101.050 100.531 C 101.573 100.854, 102 100.679, 102 100.142 C 102 99.606, 101.438 98.904, 100.750 98.583 C 99.750 98.117, 99.750 97.883, 100.750 97.417 C 101.438 97.096, 102 95.296, 102 93.417 C 102 90.218, 101.789 90, 98.700 90 C 96.152 90, 94.114 91.145, 89.766 95.020 C 86.668 97.782, 83.991 101.009, 83.817 102.192 C 83.643 103.375, 82.825 104.547, 82 104.797 C 80.789 105.163, 80.741 104.994, 81.750 103.925 C 82.475 103.157, 83 99.980, 83 96.367 C 83 90.920, 82.736 90.051, 80.906 89.470 C 79.412 88.996, 78.032 89.553, 76.090 91.413 L 73.368 94.021 71.010 91.511 C 69.713 90.130, 67.569 89, 66.247 89 C 63.892 89, 63.849 89.155, 64.171 96.502 M 139.813 89.683 C 140.534 89.972, 141.397 89.936, 141.729 89.604 C 142.061 89.272, 141.471 89.036, 140.417 89.079 C 139.252 89.127, 139.015 89.364, 139.813 89.683 M 201 90 C 201 90.550, 201.450 91, 202 91 C 202.550 91, 203 90.550, 203 90 C 203 89.450, 202.550 89, 202 89 C 201.450 89, 201 89.450, 201 90 M 103.911 91.250 C 103.723 93.892, 104.190 102.518, 104.539 102.870 C 104.742 103.074, 106.063 102.950, 107.475 102.596 C 109.726 102.031, 109.905 101.691, 108.922 99.855 C 108.198 98.502, 108.173 97.989, 108.850 98.407 C 109.427 98.764, 110.411 98.101, 111.036 96.934 C 111.982 95.166, 111.794 94.409, 109.911 92.406 C 107.502 89.841, 104.058 89.178, 103.911 91.250 M 114.311 91.632 C 113.966 92.530, 114.267 94.197, 114.978 95.337 C 115.913 96.833, 115.957 97.514, 115.136 97.788 C 113.500 98.333, 113.734 101, 115.418 101 C 116.198 101, 117.548 101.273, 118.418 101.607 C 119.754 102.120, 120 101.265, 120 96.107 C 120 90.239, 119.901 90, 117.469 90 C 116.050 90, 114.662 90.717, 114.311 91.632 M 122.250 90.662 C 120.957 91.184, 120.533 97.618, 121.607 100.418 C 122.039 101.543, 123.412 101.961, 126.357 101.864 C 128.645 101.789, 129.493 101.534, 128.250 101.294 C 126.693 100.994, 126 100.151, 126 98.555 C 126 95.188, 124.850 89.987, 124.125 90.079 C 123.781 90.122, 122.938 90.385, 122.250 90.662 M 42.747 91.663 C 42.484 92.123, 43.127 93.850, 44.175 95.500 L 46.081 98.500 45.411 95.500 C 44.658 92.126, 43.465 90.407, 42.747 91.663 M 132.356 95.583 C 133.131 101.231, 133.917 102.680, 135.219 100.857 C 135.958 99.823, 136.055 99.917, 135.626 101.250 C 135.316 102.213, 135.499 103, 136.031 103 C 137.337 103, 137.273 96.287, 135.959 95.475 C 135.387 95.121, 135.192 93.970, 135.527 92.916 C 136 91.424, 135.647 91, 133.931 91 C 131.890 91, 131.774 91.336, 132.356 95.583 M 137.915 91.750 C 137.364 96.592, 138.366 103.692, 139.749 104.750 C 140.647 105.438, 140.873 106, 140.250 106 C 139.627 106, 138.826 105.528, 138.470 104.951 C 138.059 104.287, 137.397 104.247, 136.661 104.844 C 136.022 105.361, 134.600 106.006, 133.500 106.276 C 132.400 106.547, 134.088 106.820, 137.250 106.884 C 140.413 106.948, 142.929 106.662, 142.841 106.250 C 142.754 105.838, 143.050 104.653, 143.499 103.618 C 143.973 102.524, 143.869 101.019, 143.250 100.028 C 142.531 98.878, 142.511 97.861, 143.186 96.911 C 143.997 95.769, 144.088 95.816, 143.662 97.156 C 142.908 99.525, 146.011 101.959, 148.500 100.951 C 151.268 99.829, 152 99.840, 152 101 C 152 101.550, 150.805 102, 149.345 102 C 146.753 102, 146.733 102.048, 148.500 104 C 150.258 105.943, 150.247 106, 148.096 106 C 146.591 106, 146.122 105.600, 146.633 104.750 C 147.143 103.901, 146.842 103.940, 145.692 104.872 C 144.761 105.627, 144 106.328, 144 106.430 C 144 106.730, 159.994 107.071, 160.062 106.772 C 160.097 106.623, 160.354 104.475, 160.634 102 C 161.094 97.936, 160.838 97.210, 157.988 94.500 L 154.833 91.500 155.167 98.752 C 155.350 102.741, 155.275 105.988, 155 105.967 C 154.725 105.946, 153.375 105.286, 152 104.500 L 149.500 103.071 151.800 103.035 C 153.965 103.002, 154.082 102.662, 153.800 97.250 C 153.534 92.153, 153.244 91.464, 151.246 91.180 C 148.453 90.783, 147.201 93.491, 148.911 96.230 C 151.055 99.662, 149.500 99.096, 145.482 94.982 C 141.992 91.408, 138.141 89.763, 137.915 91.750 M 161.206 93.959 C 161.879 95.036, 163.345 96.048, 164.465 96.209 C 165.871 96.410, 166.601 97.383, 166.827 99.356 C 167.006 100.927, 166.781 101.996, 166.327 101.732 C 165.872 101.467, 164.765 101.531, 163.866 101.875 C 162.638 102.345, 163.298 103.049, 166.521 104.707 C 170.232 106.616, 170.778 106.690, 170.568 105.261 C 170.434 104.352, 169.739 103.413, 169.023 103.174 C 168.260 102.920, 168.007 103.203, 168.413 103.859 C 168.874 104.606, 168.506 104.744, 167.302 104.274 C 165.754 103.670, 165.887 103.433, 168.250 102.592 C 170.461 101.806, 171 100.997, 171 98.462 C 171 94.377, 168.300 92, 163.663 92 C 160.259 92, 160.075 92.147, 161.206 93.959 M 178.437 96.154 C 176.822 97.889, 176.175 99.072, 177 98.783 C 190.468 94.063, 191.973 93, 185.187 93 C 182.197 93, 180.741 93.680, 178.437 96.154 M 94.642 97.410 C 91.874 99.673, 91.968 100.699, 94.928 100.565 C 95.713 100.529, 96.687 99.263, 97.092 97.750 C 97.496 96.237, 97.753 95.016, 97.664 95.036 C 97.574 95.056, 96.214 96.124, 94.642 97.410 M 9.524 98.927 C 9.797 100.812, 10.223 102.556, 10.470 102.804 C 11.411 103.744, 17.083 103.943, 16.509 103.015 C 16.183 102.488, 16.662 100.919, 17.573 99.528 C 19.449 96.665, 18.478 96.081, 16.279 98.750 C 14.905 100.417, 14.863 100.417, 15.387 98.750 C 15.690 97.787, 15.501 97, 14.969 97 C 14.023 97, 13.575 99.135, 13.950 101.856 C 14.052 102.602, 13.543 102.996, 12.818 102.731 C 11.443 102.229, 11.402 101.657, 12.533 98.750 C 12.931 97.727, 12.754 97, 12.107 97 C 11.498 97, 10.955 97.787, 10.900 98.750 C 10.831 99.959, 10.526 99.726, 9.914 98 C 9.165 95.888, 9.104 96.032, 9.524 98.927 M 184.573 97.750 C 183.553 98.713, 183.022 98.956, 183.393 98.291 C 184.075 97.068, 175.609 100.372, 173.250 102.250 C 171.373 103.744, 171.743 105, 174.059 105 C 175.199 105, 175.838 105.454, 175.490 106.016 C 175.144 106.575, 174.443 106.774, 173.931 106.457 C 173.419 106.141, 173 106.337, 173 106.893 C 173 108.324, 179.616 107.558, 181.666 105.890 C 183.170 104.667, 183.296 104.710, 182.719 106.250 C 182.152 107.763, 182.701 107.998, 186.781 107.986 C 191.978 107.971, 196 107.141, 196 106.084 C 196 105.709, 194.425 105.585, 192.500 105.810 L 189 106.219 189 101.109 C 189 95.560, 187.834 94.675, 184.573 97.750 M 2.015 98.734 C 2.028 100.240, 2.173 100.279, 3 99 C 3.862 97.667, 3.973 97.667, 4 99 C 4.027 100.333, 4.138 100.333, 5 99 C 5.796 97.768, 5.972 97.872, 5.985 99.583 C 5.993 100.729, 5.665 102.001, 5.257 102.410 C 4.848 102.819, 4.654 105.946, 4.827 109.359 C 5.019 113.173, 4.541 117.286, 3.585 120.032 C 1.810 125.129, 1.524 130, 3 130 C 3.550 130, 4 128.875, 4 127.500 C 4 126.125, 4.402 125, 4.893 125 C 6.426 125, 7.091 121.815, 5.867 120.339 C 4.973 119.262, 4.993 118.381, 5.955 116.585 C 6.715 115.165, 6.940 113.005, 6.526 111.119 C 6.082 109.096, 6.229 108, 6.946 108 C 7.635 108, 7.986 106.007, 7.878 102.701 C 7.712 97.638, 7.578 97.393, 4.852 97.186 C 2.706 97.022, 2.004 97.405, 2.015 98.734 M 40.413 102.917 C 40.731 105.987, 41.106 109.513, 41.246 110.750 C 41.451 112.570, 42.122 113, 44.750 113 C 47.905 113, 48 112.876, 48.011 108.750 C 48.017 106.412, 48.301 102.813, 48.642 100.750 C 49.053 98.262, 48.881 97, 48.131 97 C 47.419 97, 46.969 99.317, 46.917 103.250 L 46.834 109.500 44.637 104.696 C 43.429 102.054, 42.055 100.254, 41.585 100.696 C 41.114 101.138, 41.216 100.563, 41.811 99.417 C 42.680 97.742, 42.592 97.333, 41.363 97.333 C 40.105 97.333, 39.937 98.321, 40.413 102.917 M 127.543 97.931 C 126.878 99.007, 128.835 100.498, 129.733 99.600 C 130.063 99.270, 129.696 98.993, 128.917 98.985 C 127.750 98.972, 127.765 98.798, 129 98 C 129.901 97.418, 130.025 97.025, 129.309 97.015 C 128.654 97.007, 127.859 97.419, 127.543 97.931 M 157.667 98.667 C 157.300 99.033, 157.014 100.046, 157.030 100.917 C 157.055 102.217, 157.251 102.174, 158.122 100.675 C 159.199 98.823, 158.887 97.447, 157.667 98.667 M 22.469 100.500 C 22.211 101.325, 21.789 102.675, 21.531 103.500 C 21.274 104.325, 21.448 105, 21.918 105 C 22.388 105, 22.971 103.650, 23.213 102 C 23.679 98.828, 23.257 97.978, 22.469 100.500 M 208 100 C 208 100.550, 208.423 101, 208.941 101 C 209.459 101, 210.160 100.550, 210.500 100 C 210.840 99.450, 210.416 99, 209.559 99 C 208.702 99, 208 99.450, 208 100 M 0.079 101.583 C 0.127 102.748, 0.364 102.985, 0.683 102.188 C 0.972 101.466, 0.936 100.603, 0.604 100.271 C 0.272 99.939, 0.036 100.529, 0.079 101.583 M 140.199 101.615 C 139.125 102.779, 139.176 103.130, 140.493 103.636 C 142.561 104.429, 143.405 103.537, 142.342 101.678 C 141.619 100.414, 141.317 100.405, 140.199 101.615 M 180.991 101.511 C 179.962 102.750, 180.111 103, 181.878 103 C 183.045 103, 184 102.577, 184 102.059 C 184 100.327, 182.240 100.006, 180.991 101.511 M 18.015 103.250 C 18.028 105.069, 18.216 105.213, 19 104 C 20.253 102.061, 20.253 101, 19 101 C 18.450 101, 18.007 102.013, 18.015 103.250 M 132 101.845 C 132 102.570, 130.065 103, 126.800 103 C 123.163 103, 121.916 103.316, 122.652 104.052 C 123.235 104.635, 126.493 104.969, 129.965 104.802 C 136.202 104.501, 136.218 104.493, 134.113 102.595 C 132.948 101.545, 132 101.208, 132 101.845 M 117.500 104 C 115.870 104.701, 115.812 104.872, 117.191 104.930 C 118.121 104.968, 119.160 104.550, 119.500 104 C 120.211 102.850, 120.176 102.850, 117.500 104 M 0.223 120.628 L 0.445 137.500 0.753 121.500 C 0.958 110.859, 1.381 106.002, 2.015 107 C 2.540 107.825, 2.976 107.993, 2.985 107.372 C 2.993 106.752, 2.325 105.685, 1.500 105 C 0.175 103.901, 0.026 105.727, 0.223 120.628 M 105.750 104.662 C 106.438 104.940, 107.563 104.940, 108.250 104.662 C 108.938 104.385, 108.375 104.158, 107 104.158 C 105.625 104.158, 105.063 104.385, 105.750 104.662 M 49.394 106.416 C 49.095 107.194, 49.013 109.107, 49.210 110.666 C 49.504 112.979, 49.660 112.718, 50.061 109.250 C 50.567 104.877, 50.345 103.936, 49.394 106.416 M 23 112.910 C 23 116.079, 22.680 116.815, 21.500 116.362 C 20.358 115.924, 20 116.554, 20 119 C 20 121.494, 20.348 122.081, 21.552 121.618 C 22.442 121.277, 22.843 121.445, 22.493 122.011 C 22.157 122.555, 22.322 123, 22.859 123 C 23.397 123, 24.452 123.236, 25.204 123.525 C 26.151 123.888, 26.642 123.112, 26.803 121 C 26.954 119.015, 26.498 117.745, 25.494 117.359 C 24.350 116.920, 24.111 115.926, 24.566 113.498 C 24.930 111.562, 24.735 109.954, 24.090 109.556 C 23.372 109.112, 23 110.258, 23 112.910 M 34.079 110.583 C 34.127 111.748, 34.364 111.985, 34.683 111.188 C 34.972 110.466, 34.936 109.603, 34.604 109.271 C 34.272 108.939, 34.036 109.529, 34.079 110.583 M 36.408 110.575 C 36.675 112.393, 38 113.669, 38 112.108 C 38 111.434, 38.508 111.196, 39.130 111.580 C 39.798 111.993, 40.082 111.747, 39.826 110.977 C 39.239 109.216, 36.155 108.853, 36.408 110.575 M 68.500 110 C 68.840 110.550, 69.316 111, 69.559 111 C 69.802 111, 70 110.550, 70 110 C 70 109.450, 69.523 109, 68.941 109 C 68.359 109, 68.160 109.450, 68.500 110 M 104.015 111.750 C 104.035 115.282, 105.413 117.439, 107.210 116.750 C 108.224 116.360, 108.475 115.121, 108.099 112.354 L 107.576 108.500 106.930 112.500 C 106.344 116.127, 106.260 116.220, 106.023 113.500 C 105.880 111.850, 105.816 110.162, 105.882 109.750 C 105.947 109.338, 105.550 109, 105 109 C 104.450 109, 104.007 110.237, 104.015 111.750 M 109 110.453 C 109 113.192, 111.340 117.083, 112.678 116.570 C 113.405 116.291, 114.032 116.611, 114.070 117.281 C 114.109 117.952, 114.527 117.600, 115 116.500 C 115.473 115.400, 115.891 115.063, 115.930 115.750 C 116.036 117.635, 118.967 117.250, 119.735 115.250 C 120.305 113.768, 120.516 113.883, 121.115 116 C 121.817 118.482, 121.827 118.484, 122.518 116.286 C 123.130 114.342, 123.393 114.250, 124.679 115.536 C 126.952 117.809, 127.633 117.294, 127.204 113.625 C 126.831 110.426, 126.608 110.253, 122.920 110.307 C 120.781 110.338, 118.723 110.057, 118.348 109.682 C 117.081 108.415, 116.171 108.989, 115.072 111.750 C 114.181 113.989, 114.060 114.064, 114.421 112.151 C 114.784 110.229, 114.514 109.894, 112.932 110.307 C 111.870 110.585, 111 110.405, 111 109.906 C 111 109.408, 110.550 109, 110 109 C 109.450 109, 109 109.654, 109 110.453 M 8.507 110.989 C 8.157 111.555, 8.558 111.723, 9.448 111.382 C 11.180 110.717, 11.497 110, 10.059 110 C 9.541 110, 8.843 110.445, 8.507 110.989 M 13.076 116.250 C 12.443 119.688, 12.020 123.625, 12.136 125 C 12.252 126.375, 12.013 128.512, 11.606 129.750 C 10.835 132.093, 12.425 133.011, 13.338 130.750 C 14.301 128.363, 14.013 132.836, 13.038 135.399 C 12.509 136.791, 12.449 138.159, 12.904 138.441 C 13.359 138.722, 14.161 136.287, 14.686 133.028 C 15.211 129.770, 15.318 127.303, 14.925 127.547 C 14.531 127.790, 13.922 127.240, 13.571 126.324 C 13.220 125.409, 13.510 124.293, 14.216 123.845 C 15.242 123.194, 15.245 123.028, 14.230 123.015 C 13.375 123.005, 13.148 122.104, 13.535 120.250 C 14.696 114.686, 15.249 110, 14.745 110 C 14.460 110, 13.709 112.813, 13.076 116.250 M 71 111.107 C 71 112.194, 74.328 112.681, 77 111.984 C 79.110 111.434, 78.838 111.263, 75.250 110.890 C 72.912 110.646, 71 110.744, 71 111.107 M 128 112.946 C 128 114.926, 128.596 115.923, 130 116.290 C 131.692 116.732, 132 116.320, 132 113.619 C 132 111.142, 131.551 110.392, 130 110.275 C 128.437 110.157, 128 110.741, 128 112.946 M 133 114 C 133 119.413, 135.437 119.410, 135.678 113.997 C 135.807 111.117, 135.458 110, 134.428 110 C 133.429 110, 133 111.200, 133 114 M 137.226 113.999 C 137.377 116.198, 137.838 117.998, 138.250 117.999 C 139.008 118, 139.358 116.477, 139.092 114.325 C 139.012 113.679, 139.409 112.865, 139.973 112.516 C 141.695 111.452, 141.120 110, 138.976 110 C 137.235 110, 136.990 110.560, 137.226 113.999 M 208.710 112 C 208.423 113.100, 208.543 114, 208.977 114 C 209.411 114, 210.002 113.100, 210.290 112 C 210.577 110.900, 210.457 110, 210.023 110 C 209.589 110, 208.998 110.900, 208.710 112 M 172.252 112.127 C 171.109 112.536, 172.152 113.010, 175.250 113.491 C 177.863 113.896, 180 114.696, 180 115.269 C 180 115.841, 180.977 115.453, 182.172 114.405 C 183.569 113.180, 184.052 113.035, 183.525 114 C 182.860 115.219, 182.959 115.266, 184.053 114.250 C 184.794 113.563, 186.408 113, 187.641 113 C 188.874 113, 190.091 112.662, 190.346 112.250 C 190.905 111.346, 174.740 111.236, 172.252 112.127 M 164.629 113.523 C 164.153 114.766, 164.409 114.851, 166.023 113.988 C 168.341 112.747, 168.560 112, 166.607 112 C 165.841 112, 164.951 112.685, 164.629 113.523 M 117.079 114.583 C 117.127 115.748, 117.364 115.985, 117.683 115.188 C 117.972 114.466, 117.936 113.603, 117.604 113.271 C 117.272 112.939, 117.036 113.529, 117.079 114.583 M 140 114.059 C 140 114.641, 140.450 114.840, 141 114.500 C 141.550 114.160, 142 113.684, 142 113.441 C 142 113.198, 141.550 113, 141 113 C 140.450 113, 140 113.477, 140 114.059 M 145.500 114 C 143.592 114.820, 143.603 114.863, 145.750 114.930 C 146.988 114.968, 148 114.550, 148 114 C 148 113.450, 147.887 113.032, 147.750 113.070 C 147.613 113.109, 146.600 113.527, 145.500 114 M 44.393 116.582 C 44.727 117.452, 45 118.577, 45 119.082 C 45 119.587, 45.450 120, 46 120 C 46.550 120, 47 118.875, 47 117.500 C 47 115.870, 46.440 115, 45.393 115 C 44.338 115, 43.995 115.544, 44.393 116.582 M 50.607 116.582 C 50.273 117.452, 50.014 119.139, 50.030 120.332 C 50.054 122.037, 50.242 122.179, 50.909 121 C 52.464 118.252, 53.150 115, 52.174 115 C 51.646 115, 50.941 115.712, 50.607 116.582 M 41 116.488 C 41 116.848, 41.724 117.866, 42.608 118.751 C 44.085 120.228, 44.187 120.208, 43.858 118.512 C 43.527 116.804, 41 115.015, 41 116.488 M 48.232 119 C 48.232 120.925, 48.438 121.713, 48.689 120.750 C 48.941 119.787, 48.941 118.213, 48.689 117.250 C 48.438 116.287, 48.232 117.075, 48.232 119 M 140 117 C 140 117.550, 140.477 118, 141.059 118 C 141.641 118, 141.840 117.550, 141.500 117 C 141.160 116.450, 140.684 116, 140.441 116 C 140.198 116, 140 116.450, 140 117 M 166.477 117.038 C 166.191 117.500, 166.249 119.706, 166.606 121.939 C 166.994 124.361, 166.861 126, 166.278 126 C 165.063 126, 165.667 133.498, 167.192 137.342 C 168.092 139.611, 168.035 140.381, 166.910 141.158 C 165.885 141.865, 166.115 141.958, 167.750 141.498 C 169.345 141.049, 170 141.290, 170 142.326 C 170 143.754, 172.687 145.499, 174.324 145.134 C 174.778 145.033, 174.886 145.375, 174.565 145.895 C 174.244 146.414, 174.773 147.630, 175.741 148.598 C 177.318 150.175, 177.532 150.190, 177.811 148.745 C 178.155 146.956, 183.284 145.439, 185.130 146.580 C 185.846 147.023, 186.043 146.879, 185.633 146.215 C 185.243 145.585, 185.707 145.100, 186.728 145.072 C 190.491 144.969, 196 143.745, 196 143.013 C 196 142.591, 195.385 141.734, 194.633 141.110 C 193.590 140.245, 192.954 140.351, 191.953 141.557 C 191.202 142.462, 189.791 142.917, 188.658 142.621 C 187.568 142.336, 185.737 142.554, 184.588 143.107 C 182.583 144.070, 182.576 144.050, 184.390 142.593 C 186.172 141.161, 186.185 140.931, 184.617 138.538 C 183.123 136.257, 183.114 136, 184.536 136 C 185.406 136, 185.840 135.550, 185.500 135 C 185.160 134.450, 185.329 134, 185.876 134 C 187.300 134, 187.055 117.940, 185.625 117.479 C 183.012 116.638, 166.953 116.267, 166.477 117.038 M 89.250 118.747 L 76 119.058 76 126.529 L 76 134 80 134 C 82.380 134, 83.899 134.443, 83.750 135.093 C 83.612 135.694, 84.395 136.707, 85.489 137.343 C 86.582 137.979, 88.382 139.104, 89.489 139.843 C 91.393 141.113, 91.367 141.148, 89 140.490 C 87.625 140.108, 85.175 139.158, 83.556 138.378 C 81.142 137.215, 80.378 137.193, 79.313 138.258 C 78.248 139.323, 79.802 140.335, 87.944 143.877 C 97.580 148.069, 100 148.392, 100 145.486 C 100 144.683, 101.485 143.812, 103.500 143.434 C 107.335 142.714, 107.486 142.407, 105.961 138.398 C 105.178 136.339, 105.240 135.465, 106.211 134.848 C 107.163 134.244, 107.042 134.027, 105.750 134.015 C 104.251 134.002, 104 132.994, 104 127 C 104 122.740, 103.585 120, 102.941 120 C 102.359 120, 102.160 119.550, 102.500 119 C 102.840 118.450, 102.979 118.098, 102.809 118.218 C 102.639 118.338, 96.537 118.577, 89.250 118.747 M 105 120.695 L 105 123.031 133.237 122.766 C 158.519 122.528, 161.506 122.328, 161.790 120.855 C 162.076 119.367, 159.731 119.193, 137.303 119.042 C 123.661 118.950, 110.813 118.759, 108.750 118.616 C 105.413 118.387, 105 118.615, 105 120.695 M 168 119.750 C 168 120.529, 168.534 120.989, 169.188 120.771 C 171.001 120.166, 171.257 118.333, 169.528 118.333 C 168.688 118.333, 168 118.971, 168 119.750 M 172 122 C 172 123.467, 172.563 124.667, 173.250 124.667 C 173.938 124.667, 174.500 123.467, 174.500 122 C 174.500 120.533, 173.938 119.333, 173.250 119.333 C 172.563 119.333, 172 120.533, 172 122 M 177.250 119.631 C 178.213 119.914, 179 121.069, 179 122.196 C 179 123.852, 178.728 124.019, 177.580 123.067 C 176.437 122.117, 176.212 122.239, 176.426 123.694 C 176.882 126.801, 179.500 125.795, 179.500 122.514 C 179.500 120.263, 179.007 119.477, 177.500 119.321 C 175.946 119.161, 175.890 119.230, 177.250 119.631 M 183 120.559 C 183 121.416, 182.550 121.840, 182 121.500 C 181.450 121.160, 181 121.359, 181 121.941 C 181 122.523, 181.417 123, 181.927 123 C 182.436 123, 183.059 123.787, 183.311 124.750 C 183.562 125.713, 183.820 124.813, 183.884 122.750 C 183.948 120.688, 183.775 119, 183.500 119 C 183.225 119, 183 119.702, 183 120.559 M 83.456 123 C 83.479 124.715, 84.032 126, 84.748 126 C 86.269 126, 86.400 124.365, 84.951 123.470 C 84.235 123.027, 84.273 122.376, 85.074 121.411 C 85.988 120.309, 85.935 120, 84.830 120 C 83.917 120, 83.430 121.062, 83.456 123 M 86.348 121.045 C 85.477 121.921, 85.592 122.669, 86.820 124.102 C 89.160 126.836, 90.021 126.451, 89.850 122.750 L 89.700 119.500 89.186 122.500 L 88.671 125.500 88.085 122.692 C 87.642 120.567, 87.220 120.166, 86.348 121.045 M 91 123 C 91 125, 91.500 126, 92.500 126 C 93.500 126, 94 125, 94 123 C 94 121, 93.500 120, 92.500 120 C 91.500 120, 91 121, 91 123 M 95.150 122.750 C 95.044 125.039, 95.444 126, 96.500 126 C 97.550 126, 97.964 125.025, 97.882 122.750 L 97.763 119.500 97.046 122.500 L 96.329 125.500 95.814 122.500 L 95.300 119.500 95.150 122.750 M 92.158 123 C 92.158 124.375, 92.385 124.938, 92.662 124.250 C 92.940 123.563, 92.940 122.438, 92.662 121.750 C 92.385 121.063, 92.158 121.625, 92.158 123 M 112.554 124.902 C 110.696 125.629, 110.707 125.690, 112.804 126.238 C 114.012 126.554, 115 126.436, 115 125.976 C 115 125.516, 116.013 124.944, 117.250 124.706 C 119.338 124.304, 119.319 124.268, 117 124.206 C 115.625 124.170, 113.624 124.483, 112.554 124.902 M 123 124.924 L 119.500 125.584 122.750 126.119 C 124.537 126.413, 126 126.282, 126 125.827 C 126 125.372, 126.436 125, 126.969 125 C 127.501 125, 127.684 125.787, 127.374 126.750 C 126.942 128.095, 127.038 128.183, 127.788 127.132 C 128.325 126.380, 129.380 125.374, 130.132 124.897 C 131.740 123.878, 128.476 123.891, 123 124.924 M 189.813 126.683 C 190.534 126.972, 191.397 126.936, 191.729 126.604 C 192.061 126.272, 191.471 126.036, 190.417 126.079 C 189.252 126.127, 189.015 126.364, 189.813 126.683 M 80.297 130.001 C 80.098 132.778, 80.189 132.830, 84.797 132.545 C 87.384 132.384, 89.838 132.196, 90.250 132.127 C 91.388 131.935, 91.147 127, 90 127 C 89.450 127, 88.986 128.238, 88.968 129.750 C 88.939 132.250, 88.816 132.341, 87.608 130.750 C 86.877 129.787, 85.767 129, 85.140 129 C 84.513 129, 84 128.646, 84 128.213 C 84 127.780, 83.213 127.367, 82.250 127.295 C 81.006 127.203, 80.441 127.985, 80.297 130.001 M 92.818 130.213 C 93.303 133.517, 93.484 133.482, 94.337 129.917 C 94.756 128.163, 94.544 127.333, 93.675 127.333 C 92.834 127.333, 92.540 128.320, 92.818 130.213 M 97.249 128.845 C 97.560 130.032, 97.405 130.751, 96.907 130.442 C 96.408 130.134, 96 130.509, 96 131.274 C 96 132.040, 96.675 132.667, 97.500 132.667 C 99.282 132.667, 99.556 128.461, 97.842 127.403 C 97.049 126.912, 96.863 127.366, 97.249 128.845 M 168.500 128 C 168.160 128.550, 168.411 129, 169.058 129 C 169.768 129, 170.047 129.976, 169.761 131.470 C 169.501 132.828, 169.674 133.702, 170.144 133.411 C 171.310 132.690, 171.235 127, 170.059 127 C 169.541 127, 168.840 127.450, 168.500 128 M 172.500 128 C 172.160 128.550, 172.359 129, 172.941 129 C 174.430 129, 174.266 132.726, 172.750 133.338 C 172.063 133.615, 172.422 133.878, 173.549 133.921 C 175.313 133.989, 175.541 133.513, 175.190 130.500 C 174.787 127.049, 173.708 126.046, 172.500 128 M 177.960 127.954 C 179.224 128.753, 179.197 129.125, 177.761 130.712 C 176.072 132.578, 176.493 134.299, 178.750 134.750 C 179.438 134.887, 180 134.588, 180 134.083 C 180 133.579, 179.438 132.977, 178.750 132.746 C 177.768 132.416, 177.787 131.978, 178.836 130.706 C 180.265 128.975, 179.649 126.990, 177.691 127.015 C 176.958 127.025, 177.061 127.386, 177.960 127.954 M 180.796 129.288 C 180.197 132.418, 180.862 134, 182.774 134 C 184.100 134, 184.042 133.742, 182.441 132.532 C 181.244 131.626, 181.002 131.051, 181.809 131.032 C 182.529 131.014, 182.809 130.500, 182.431 129.888 C 182.053 129.277, 182.364 128.384, 183.122 127.904 C 184.233 127.200, 184.184 127.028, 182.867 127.015 C 181.952 127.007, 181.041 128.007, 180.796 129.288 M 129.094 129.387 C 128.227 130.431, 128.207 131.010, 129.018 131.511 C 129.631 131.890, 130.403 131.930, 130.733 131.600 C 131.063 131.270, 130.696 130.993, 129.917 130.985 C 128.732 130.972, 128.741 130.817, 129.971 130.039 C 130.780 129.527, 131.182 128.848, 130.864 128.530 C 130.545 128.212, 129.749 128.597, 129.094 129.387 M 7.079 130.583 C 7.127 131.748, 7.364 131.985, 7.683 131.188 C 7.972 130.466, 7.936 129.603, 7.604 129.271 C 7.272 128.939, 7.036 129.529, 7.079 130.583 M 39.449 132.418 C 39.097 134.297, 39.204 136.542, 39.687 137.406 C 40.299 138.499, 40.632 137.462, 40.783 133.988 C 41.034 128.229, 40.380 127.459, 39.449 132.418 M 139.872 130.750 C 138.629 132.336, 138.664 132.371, 140.250 131.128 C 141.916 129.821, 142.445 129, 141.622 129 C 141.415 129, 140.627 129.787, 139.872 130.750 M 84.500 131 C 84.160 131.550, 84.359 132, 84.941 132 C 85.523 132, 86 131.550, 86 131 C 86 130.450, 85.802 130, 85.559 130 C 85.316 130, 84.840 130.450, 84.500 131 M 3 131.686 C 3 132.199, 3.661 133.491, 4.468 134.559 C 5.702 136.190, 5.941 136.240, 5.968 134.872 C 5.986 133.977, 5.325 132.685, 4.500 132 C 3.675 131.315, 3 131.174, 3 131.686 M 35.252 134.500 C 35.263 136.700, 35.468 137.482, 35.707 136.238 C 35.946 134.994, 35.937 133.194, 35.687 132.238 C 35.437 131.282, 35.241 132.300, 35.252 134.500 M 17.158 134 C 17.158 135.375, 17.385 135.938, 17.662 135.250 C 17.940 134.563, 17.940 133.438, 17.662 132.750 C 17.385 132.063, 17.158 132.625, 17.158 134 M 24 133 C 24 133.550, 24.702 134, 25.559 134 C 26.416 134, 26.840 133.550, 26.500 133 C 26.160 132.450, 25.459 132, 24.941 132 C 24.423 132, 24 132.450, 24 133 M 88.776 134.733 C 91.128 134.945, 94.728 134.942, 96.776 134.727 C 98.824 134.512, 96.900 134.339, 92.500 134.343 C 88.100 134.346, 86.424 134.522, 88.776 134.733 M 112.813 134.683 C 113.534 134.972, 114.397 134.936, 114.729 134.604 C 115.061 134.272, 114.471 134.036, 113.417 134.079 C 112.252 134.127, 112.015 134.364, 112.813 134.683 M 126.135 134.667 C 127.035 134.907, 128.025 136.375, 128.336 137.931 C 129.495 143.723, 130.520 144.018, 148.821 143.817 C 161.352 143.679, 163.533 143.492, 157.588 143.067 L 149.677 142.500 148.132 138.250 L 146.587 134 135.543 134.116 C 129.470 134.180, 125.236 134.428, 126.135 134.667 M 202.469 135.050 C 201.551 136.536, 202.281 137.062, 203.886 136.071 C 204.745 135.539, 204.848 135.024, 204.176 134.609 C 203.605 134.256, 202.837 134.455, 202.469 135.050 M 23.500 136 C 23.840 136.550, 24.316 137, 24.559 137 C 24.802 137, 25 136.550, 25 136 C 25 135.450, 24.523 135, 23.941 135 C 23.359 135, 23.160 135.450, 23.500 136 M 59.624 136.710 C 59.281 137.053, 59 138.158, 59 139.167 C 59 140.175, 58.550 141, 58 141 C 57.450 141, 57 141.450, 57 142 C 57 142.550, 57.392 143, 57.872 143 C 58.352 143, 63.414 147.539, 69.122 153.087 C 80.668 164.311, 83.102 166.124, 82.513 163.070 C 82.308 162.003, 81.674 160.260, 81.105 159.196 C 80.536 158.133, 80.334 156.999, 80.657 156.677 C 81.520 155.813, 76.500 147.653, 72.874 144.028 C 71.117 142.270, 69.109 141.128, 68.315 141.433 C 67.535 141.732, 67.160 141.549, 67.483 141.027 C 68.158 139.935, 60.568 135.765, 59.624 136.710 M 6.063 141.417 C 6 146.347, 6.697 147.170, 7.483 143.091 C 7.713 141.891, 7.503 139.918, 7.015 138.705 C 6.312 136.960, 6.114 137.526, 6.063 141.417 M 53.012 142.250 C 52.360 145.137, 51.591 148.344, 51.306 149.375 C 50.969 150.590, 51.178 151.008, 51.900 150.562 C 52.713 150.060, 52.709 150.544, 51.888 152.346 C 50.985 154.329, 51.083 155.280, 52.380 157.133 C 53.271 158.404, 54 158.921, 54 158.282 C 54 157.642, 53.550 156.840, 53 156.500 C 51.424 155.526, 51.834 153.999, 53.500 154.638 C 54.554 155.043, 55 154.558, 55 153.011 C 55 151.800, 55.761 149.520, 56.692 147.945 C 58.281 145.255, 58.281 144.967, 56.692 143.212 C 54.749 141.065, 54.443 139.538, 56.170 140.605 C 56.968 141.098, 57.127 140.773, 56.670 139.582 C 56.301 138.622, 56 137.648, 56 137.418 C 56 137.188, 55.595 137, 55.100 137 C 54.605 137, 53.665 139.363, 53.012 142.250 M 102 139 C 101.099 139.582, 100.975 139.975, 101.691 139.985 C 102.346 139.993, 103.160 139.550, 103.500 139 C 104.267 137.758, 103.921 137.758, 102 139 M 181.453 138.924 C 181.767 139.433, 181.335 140.062, 180.493 140.323 C 179.308 140.689, 179.343 140.763, 180.648 140.648 C 182.531 140.483, 183.821 138, 182.024 138 C 181.396 138, 181.139 138.416, 181.453 138.924 M 25.079 140.583 C 25.127 141.748, 25.364 141.985, 25.683 141.188 C 25.972 140.466, 25.936 139.603, 25.604 139.271 C 25.272 138.939, 25.036 139.529, 25.079 140.583 M 50.079 140.583 C 50.127 141.748, 50.364 141.985, 50.683 141.188 C 50.972 140.466, 50.936 139.603, 50.604 139.271 C 50.272 138.939, 50.036 139.529, 50.079 140.583 M 3 141.500 C 3 142.325, 3.450 143, 4 143 C 4.550 143, 5 142.325, 5 141.500 C 5 140.675, 4.550 140, 4 140 C 3.450 140, 3 140.675, 3 141.500 M 34.567 141.710 C 37.370 144.513, 38.987 149.540, 39.665 157.561 C 40.028 161.857, 40.642 164.579, 41.086 163.861 C 41.516 163.165, 41.646 162.237, 41.375 161.798 C 41.104 161.359, 41.359 161, 41.941 161 C 42.523 161, 42.955 159.762, 42.900 158.250 L 42.801 155.500 42 158 C 41.560 159.375, 41.145 159.825, 41.080 159 C 40.152 147.383, 37.558 140, 34.406 140 C 33.071 140, 33.093 140.236, 34.567 141.710 M 152.269 140.693 C 153.242 140.947, 154.592 140.930, 155.269 140.656 C 155.946 140.382, 155.150 140.175, 153.500 140.195 C 151.850 140.215, 151.296 140.439, 152.269 140.693 M 199.015 140.893 C 199.063 142.777, 201.038 144.223, 202.899 143.737 C 204.056 143.434, 204.780 143.547, 204.507 143.988 C 204.235 144.430, 204.653 145.037, 205.437 145.338 C 206.453 145.727, 206.748 145.287, 206.463 143.807 C 206.243 142.664, 205.791 141.458, 205.459 141.126 C 204.655 140.322, 198.996 140.118, 199.015 140.893 M 17.195 143.500 C 17.215 145.150, 17.439 145.704, 17.693 144.731 C 17.947 143.758, 17.930 142.408, 17.656 141.731 C 17.382 141.054, 17.175 141.850, 17.195 143.500 M 75.698 141.636 C 74.327 143.006, 75.090 143.657, 81.960 146.980 C 89.476 150.617, 91.632 153, 87.406 153 L 84.874 153 87.687 155.854 L 90.500 158.708 92.227 156.104 C 93.177 154.672, 94.644 152.563, 95.488 151.417 C 96.857 149.558, 96.858 149.333, 95.502 149.333 C 93.092 149.333, 84.018 144.781, 84.588 143.857 C 84.872 143.398, 84.332 143.319, 83.388 143.681 C 82.267 144.112, 81.910 143.955, 82.358 143.230 C 82.765 142.571, 82.325 142.151, 81.272 142.194 C 80.297 142.234, 78.801 141.968, 77.948 141.602 C 77.094 141.237, 76.082 141.252, 75.698 141.636 M 92 141.415 C 92 142.288, 98.139 145.194, 98.732 144.602 C 99.032 144.302, 98.025 143.580, 96.495 142.998 C 94.964 142.416, 93.327 141.702, 92.856 141.411 C 92.385 141.120, 92 141.122, 92 141.415 M 0.286 146.500 C 0.294 149.250, 0.488 150.256, 0.718 148.736 C 0.947 147.216, 0.941 144.966, 0.704 143.736 C 0.467 142.506, 0.279 143.750, 0.286 146.500 M 176.872 143.750 C 175.629 145.336, 175.664 145.371, 177.250 144.128 C 178.916 142.821, 179.445 142, 178.622 142 C 178.415 142, 177.627 142.787, 176.872 143.750 M 49.195 145.500 C 49.215 147.150, 49.439 147.704, 49.693 146.731 C 49.947 145.758, 49.930 144.408, 49.656 143.731 C 49.382 143.054, 49.175 143.850, 49.195 145.500 M 111.728 143.722 C 113.503 143.943, 116.653 143.946, 118.728 143.730 C 120.802 143.513, 119.350 143.333, 115.500 143.328 C 111.650 143.324, 109.952 143.501, 111.728 143.722 M 125.269 143.693 C 126.242 143.947, 127.592 143.930, 128.269 143.656 C 128.946 143.382, 128.150 143.175, 126.500 143.195 C 124.850 143.215, 124.296 143.439, 125.269 143.693 M 11.731 145.920 C 11.296 147.583, 11.426 147.974, 12.168 147.232 C 12.750 146.650, 13.028 145.585, 12.788 144.863 C 12.538 144.114, 12.085 144.568, 11.731 145.920 M 22 145 C 21.099 145.582, 20.975 145.975, 21.691 145.985 C 22.346 145.993, 23.160 145.550, 23.500 145 C 24.267 143.758, 23.921 143.758, 22 145 M 25.390 144.724 C 25.754 145.087, 27.025 145.533, 28.215 145.715 C 31.035 146.145, 29.959 145.070, 27 144.500 C 25.751 144.259, 25.027 144.360, 25.390 144.724 M 196.325 144.658 C 196.687 145.020, 196.473 145.930, 195.850 146.681 C 194.960 147.753, 195.053 147.917, 196.281 147.446 C 198.533 146.581, 199.298 144, 197.302 144 C 196.403 144, 195.963 144.296, 196.325 144.658 M 32.007 145.715 C 32.010 146.147, 32.907 147.850, 34 149.500 C 35.093 151.150, 35.997 153.400, 36.009 154.500 C 36.026 156.058, 36.227 156.189, 36.921 155.094 C 37.769 153.754, 37.464 149.560, 36.392 147.825 C 35.616 146.570, 31.999 144.829, 32.007 145.715 M 201 146.059 C 201 146.641, 201.450 146.840, 202 146.500 C 202.550 146.160, 203 145.684, 203 145.441 C 203 145.198, 202.550 145, 202 145 C 201.450 145, 201 145.477, 201 146.059 M 24.006 146.857 C 24.002 147.675, 23.380 147.976, 22.438 147.615 C 21.322 147.186, 20.966 147.539, 21.188 148.854 C 21.360 149.865, 20.874 151.447, 20.108 152.369 C 18.895 153.832, 18.927 153.965, 20.359 153.416 C 22.732 152.505, 22.377 153.728, 19.879 155.065 C 18.587 155.756, 18.007 155.797, 18.396 155.169 C 18.746 154.602, 18.568 153.851, 18 153.500 C 17.432 153.149, 17.269 152.373, 17.638 151.776 C 18.010 151.176, 17.849 150.975, 17.280 151.327 C 16.713 151.677, 16.250 153.097, 16.250 154.482 C 16.250 156.575, 16.724 157, 19.060 157 C 26.331 157, 28.497 154.098, 25.506 148.364 C 24.685 146.789, 24.010 146.111, 24.006 146.857 M 59 147.313 C 59 148.306, 59.419 148.859, 59.931 148.543 C 60.443 148.226, 61.144 148.425, 61.490 148.984 C 61.835 149.543, 61.526 150, 60.802 150 C 59.855 150, 59.586 151.265, 59.843 154.500 C 60.040 156.975, 60.620 159, 61.132 159 C 62.679 159, 63.222 156.283, 62.095 154.178 C 61.291 152.676, 61.367 152.073, 62.410 151.673 C 64.651 150.813, 67.345 159.212, 66.544 164.558 C 66.111 167.442, 66.250 169, 66.939 169 C 67.522 169, 68 168.523, 68 167.941 C 68 167.359, 68.563 167.200, 69.250 167.588 C 70.250 168.152, 70.250 168.024, 69.250 166.947 C 67.435 164.991, 67.719 162.865, 69.750 163.206 C 70.713 163.368, 74.127 165.637, 77.337 168.250 C 80.548 170.863, 83.583 173, 84.082 173 C 84.581 173, 82.770 170.637, 80.058 167.750 C 61.985 148.510, 59 145.613, 59 147.313 M 91.733 147.124 C 92.412 147.808, 93.219 148.115, 93.526 147.807 C 93.834 147.499, 93.279 146.940, 92.293 146.564 C 90.868 146.022, 90.753 146.136, 91.733 147.124 M 179.872 148.664 C 178.617 150.186, 178.713 150.217, 181 149.028 C 184.352 147.286, 184.605 147, 182.789 147 C 181.940 147, 180.627 147.749, 179.872 148.664 M 99.330 151.750 C 94.184 158.171, 93.792 159.424, 94.957 165.725 C 95.535 168.850, 96.456 171.856, 97.004 172.404 C 98.417 173.817, 98.280 172.306, 96.432 166.083 C 94.722 160.326, 94.784 160.156, 102.044 150.750 C 105.291 146.543, 102.753 147.478, 99.330 151.750 M 49.079 150.583 C 49.127 151.748, 49.364 151.985, 49.683 151.188 C 49.972 150.466, 49.936 149.603, 49.604 149.271 C 49.272 148.939, 49.036 149.529, 49.079 150.583 M 85 150.393 C 85 150.609, 85.698 151.054, 86.552 151.382 C 87.442 151.723, 87.843 151.555, 87.493 150.989 C 86.906 150.038, 85 149.583, 85 150.393 M 161.288 153.238 C 160.751 153.932, 159.930 155.175, 159.464 156 C 158.733 157.293, 158.850 157.311, 160.308 156.128 C 161.239 155.373, 162 155.185, 162 155.711 C 162 156.237, 162.655 156.667, 163.456 156.667 C 164.257 156.667, 164.680 156.292, 164.397 155.833 C 163.606 154.554, 165.426 154.845, 167.002 156.250 C 168.189 157.309, 168.207 157.239, 167.116 155.794 C 166.407 154.855, 166.118 153.618, 166.473 153.044 C 166.828 152.470, 166.641 152, 166.059 152 C 165.477 152, 165 152.505, 165 153.122 C 165 153.946, 164.636 153.943, 163.633 153.110 C 162.604 152.257, 162.023 152.288, 161.288 153.238 M 43.826 158.027 C 43.615 160.236, 43.883 162.483, 44.422 163.022 C 45.059 163.659, 44.982 164, 44.200 164 C 42.511 164, 42.665 171.477, 44.384 172.904 C 45.506 173.835, 45.895 173.371, 46.443 170.450 C 46.815 168.469, 46.713 166.320, 46.217 165.674 C 45.721 165.028, 45.432 162.366, 45.574 159.757 C 45.891 153.950, 44.359 152.434, 43.826 158.027 M 168.813 154.683 C 169.534 154.972, 170.397 154.936, 170.729 154.604 C 171.061 154.272, 170.471 154.036, 169.417 154.079 C 168.252 154.127, 168.015 154.364, 168.813 154.683 M 0.168 168.750 C 0.342 180.925, 0.764 179.534, 1.231 165.248 C 1.379 160.709, 1.163 156.996, 0.750 156.998 C 0.337 156.999, 0.076 162.287, 0.168 168.750 M 11.813 157.683 C 12.534 157.972, 13.397 157.936, 13.729 157.604 C 14.061 157.272, 13.471 157.036, 12.417 157.079 C 11.252 157.127, 11.015 157.364, 11.813 157.683 M 15.583 159.643 C 15.237 160.547, 15.159 161.492, 15.410 161.743 C 16.205 162.538, 18 160.942, 18 159.441 C 18 157.479, 16.361 157.617, 15.583 159.643 M 191.174 159.603 C 192.070 160.499, 193.283 161.067, 193.869 160.866 C 194.455 160.665, 193.722 159.931, 192.240 159.237 C 189.749 158.069, 189.668 158.097, 191.174 159.603 M 2 161 C 2 161.550, 2.450 162, 3 162 C 3.550 162, 4 161.550, 4 161 C 4 160.450, 3.550 160, 3 160 C 2.450 160, 2 160.450, 2 161 M 173.954 162.086 C 172.349 165.084, 173.174 165.248, 175.686 162.428 C 177.201 160.727, 177.433 160, 176.460 160 C 175.695 160, 174.568 160.939, 173.954 162.086 M 19.667 161.667 C 19.300 162.033, 19.014 163.046, 19.030 163.917 C 19.055 165.217, 19.251 165.174, 20.122 163.675 C 21.199 161.823, 20.887 160.447, 19.667 161.667 M 50.205 162.828 C 50.567 164.706, 53.131 165.108, 53.708 163.377 C 53.913 162.760, 53.137 162.008, 51.983 161.706 C 50.402 161.292, 49.963 161.569, 50.205 162.828 M 134.013 163.448 C 132.644 164.205, 131.224 164.638, 130.856 164.411 C 130.488 164.183, 130.424 164.906, 130.715 166.017 C 131.719 169.859, 141 174.295, 141 170.933 C 141 170.340, 140.157 170.133, 139.105 170.467 C 137.968 170.828, 136.516 170.373, 135.471 169.329 C 134.345 168.202, 134.134 167.455, 134.872 167.209 C 135.499 167, 135.790 166.469, 135.517 166.028 C 135.245 165.587, 135.692 164.671, 136.511 163.991 C 137.625 163.066, 138 163.052, 138 163.937 C 138 164.586, 138.419 164.859, 138.932 164.542 C 139.445 164.225, 140.007 165.211, 140.182 166.733 C 140.568 170.090, 143.360 170.487, 143.820 167.250 C 143.995 166.012, 143.631 165, 143.011 165 C 142.390 165, 142.203 164.480, 142.595 163.845 C 143.021 163.156, 142.871 162.961, 142.224 163.362 C 141.627 163.731, 140.856 163.575, 140.510 163.016 C 139.649 161.623, 136.991 161.799, 134.013 163.448 M 14.158 165 C 14.158 166.375, 14.385 166.938, 14.662 166.250 C 14.940 165.563, 14.940 164.438, 14.662 163.750 C 14.385 163.063, 14.158 163.625, 14.158 165 M 187.962 166.072 L 184.500 169.144 188.250 166.453 C 191.564 164.076, 192.642 163, 191.712 163 C 191.554 163, 189.866 164.382, 187.962 166.072 M 174.500 166 C 174.160 166.550, 173.009 167, 171.941 167 C 170.349 167, 170.015 167.675, 170.086 170.750 C 170.168 174.343, 170.207 174.384, 171.006 171.725 C 171.465 170.199, 172.889 168.076, 174.170 167.008 C 175.452 165.940, 176.189 165.052, 175.809 165.033 C 175.429 165.015, 174.840 165.450, 174.500 166 M 18.684 166.750 C 18.446 167.162, 18.612 168.400, 19.055 169.500 C 19.757 171.246, 19.868 171.151, 19.930 168.750 C 19.999 166.037, 19.531 165.286, 18.684 166.750 M 30.733 167.124 C 31.412 167.808, 32.219 168.115, 32.526 167.807 C 32.834 167.499, 32.279 166.940, 31.293 166.564 C 29.868 166.022, 29.753 166.136, 30.733 167.124 M 8.367 168.199 C 8.738 169.387, 8.462 169.731, 7.449 169.342 C 6.453 168.960, 6 169.477, 6 171 C 6 172.536, 6.450 173.041, 7.468 172.651 C 8.275 172.341, 9.202 172.518, 9.527 173.044 C 9.852 173.570, 9.191 174, 8.059 174 C 5.318 174, 5.282 178.040, 8 180.500 C 9.100 181.495, 10 181.960, 10 181.533 C 10 181.105, 10.675 181.315, 11.500 182 C 12.709 183.004, 13.003 182.979, 13.015 181.872 C 13.028 180.778, 13.219 180.798, 13.961 181.971 C 14.473 182.780, 15.253 183.081, 15.694 182.639 C 16.136 182.198, 15.823 181.309, 14.998 180.665 C 14.174 180.020, 13.387 178.932, 13.250 178.246 C 12.930 176.649, 15.702 176.605, 16.233 178.199 C 16.484 178.952, 16.875 178.768, 17.282 177.707 C 17.748 176.494, 17.103 175.588, 15 174.500 C 13.092 173.514, 12.269 172.463, 12.641 171.492 C 12.960 170.661, 12.662 170, 11.967 170 C 11.282 170, 10.072 169.213, 9.279 168.250 C 7.964 166.655, 7.884 166.650, 8.367 168.199 M 162.733 170.124 C 163.412 170.808, 164.219 171.115, 164.526 170.807 C 164.834 170.499, 164.279 169.940, 163.293 169.564 C 161.868 169.022, 161.753 169.136, 162.733 170.124 M 26.789 171.169 C 25.930 171.726, 26.242 171.902, 27.724 171.695 C 28.948 171.525, 30.185 171.148, 30.474 170.859 C 31.335 169.998, 28.187 170.263, 26.789 171.169 M 47 172.306 C 47 172.474, 48.125 174.136, 49.500 176 C 50.875 177.864, 52 180.146, 52 181.072 C 52 181.998, 52.675 183.315, 53.500 184 C 54.732 185.023, 55 184.945, 55 183.563 C 55 182.639, 55.405 182.132, 55.901 182.439 C 56.396 182.745, 56.650 184.684, 56.464 186.748 C 56.188 189.815, 56.343 190.214, 57.313 188.936 C 58.105 187.892, 59.967 187.412, 62.901 187.494 L 67.303 187.616 63.901 184.769 C 62.031 183.203, 59.375 181.677, 58 181.377 C 56.625 181.078, 54.982 180.677, 54.350 180.486 C 53.717 180.295, 52.890 178.308, 52.512 176.070 C 51.930 172.625, 51.454 172, 49.412 172 C 48.085 172, 47 172.138, 47 172.306 M 165.658 173.449 C 165.287 174.416, 165.582 174.714, 166.545 174.344 C 167.339 174.040, 167.740 173.388, 167.435 172.895 C 166.669 171.655, 166.303 171.769, 165.658 173.449 M 47.647 180.271 C 46.999 182.853, 49.859 191.833, 52.163 194.450 C 53.558 196.034, 53.107 189.554, 51.507 185.019 C 50.686 182.692, 50.305 180.315, 50.661 179.739 C 51.021 179.158, 50.833 178.985, 50.240 179.352 C 49.652 179.715, 48.984 179.451, 48.755 178.764 C 48.526 178.077, 48.027 178.755, 47.647 180.271 M 57.733 179.124 C 58.412 179.808, 59.219 180.115, 59.526 179.807 C 59.834 179.499, 59.279 178.940, 58.293 178.564 C 56.868 178.022, 56.753 178.136, 57.733 179.124 M 62 179.944 C 62 180.860, 66.966 182.367, 67.669 181.664 C 67.907 181.426, 66.729 180.753, 65.051 180.168 C 63.373 179.583, 62 179.482, 62 179.944 M 0.355 189.500 C 0.352 194.450, 0.521 196.601, 0.731 194.280 C 0.940 191.959, 0.943 187.909, 0.736 185.280 C 0.530 182.651, 0.358 184.550, 0.355 189.500 M 102 181.893 C 102 182.384, 102.739 183.069, 103.641 183.416 C 105.014 183.943, 105.076 183.796, 104.019 182.523 C 102.579 180.788, 102 180.607, 102 181.893 M 39 182.430 C 39 182.705, 39.900 183.411, 41 184 C 42.100 184.589, 43 184.845, 43 184.570 C 43 184.295, 42.100 183.589, 41 183 C 39.900 182.411, 39 182.155, 39 182.430 M 70.357 183.500 C 71.182 184.325, 72.339 185, 72.929 185 C 74.567 185, 74.203 183.292, 72.418 182.607 C 69.686 181.559, 68.800 181.943, 70.357 183.500 M 75.215 184.750 C 75.425 185.765, 76.380 186.428, 77.488 186.328 C 78.540 186.233, 80.773 186.847, 82.450 187.692 C 86.615 189.790, 84.410 187.693, 79.720 185.094 C 75.129 182.551, 74.755 182.523, 75.215 184.750 M 107.861 185.944 C 110.009 187.814, 111.407 187.986, 123.361 187.844 L 136.500 187.688 123.468 186.996 C 116.300 186.615, 109.325 185.760, 107.968 185.095 L 105.500 183.887 107.861 185.944 M 154.013 186.971 C 152.834 187.716, 152.976 187.878, 154.693 187.748 C 155.886 187.658, 156.641 187.228, 156.372 186.792 C 155.773 185.823, 155.835 185.819, 154.013 186.971 M 138.269 187.693 C 139.242 187.947, 140.592 187.930, 141.269 187.656 C 141.946 187.382, 141.150 187.175, 139.500 187.195 C 137.850 187.215, 137.296 187.439, 138.269 187.693 M 145.750 187.706 C 146.988 187.944, 149.012 187.944, 150.250 187.706 C 151.488 187.467, 150.475 187.272, 148 187.272 C 145.525 187.272, 144.512 187.467, 145.750 187.706 M 194 190 C 194 190.550, 194.450 191, 195 191 C 195.550 191, 196 190.550, 196 190 C 196 189.450, 195.550 189, 195 189 C 194.450 189, 194 189.450, 194 190 M 59.405 192.172 C 58.357 193.366, 58.082 194.003, 58.794 193.586 C 59.505 193.169, 60.743 193.372, 61.544 194.036 C 62.721 195.013, 63 194.922, 63 193.563 C 63 192.639, 62.550 192.160, 62 192.500 C 61.450 192.840, 61 192.641, 61 192.059 C 61 190.714, 65.674 190.664, 66.500 192 C 66.840 192.550, 67.597 193, 68.181 193 C 68.852 193, 68.785 192.446, 68 191.500 C 66.174 189.299, 61.612 189.656, 59.405 192.172 M 75.980 191.524 C 75.284 192.362, 75.004 193.337, 75.357 193.691 C 75.711 194.044, 76 193.808, 76 193.167 C 76 192.476, 77.736 191.959, 80.250 191.900 C 83.860 191.816, 84.124 191.680, 82 191 C 78.218 189.789, 77.358 189.864, 75.980 191.524 M 79.239 194.666 C 78.545 194.946, 77.487 196.089, 76.889 197.208 C 76.014 198.842, 76.065 199.075, 77.150 198.396 C 77.893 197.930, 79.287 197.679, 80.250 197.838 C 81.213 197.996, 82 197.599, 82 196.956 C 82 196.309, 81.306 196.052, 80.448 196.382 C 79.558 196.723, 79.157 196.555, 79.507 195.989 C 80.415 194.520, 82.731 194.786, 85.785 196.711 L 88.500 198.422 86.595 196.211 C 84.790 194.116, 82.038 193.538, 79.239 194.666 M -0 212 C -0 219.333, 0.200 225.133, 0.445 224.888 C 1.143 224.190, 1.303 199.970, 0.615 199.281 C 0.277 198.943, -0 204.667, -0 212 M 42.686 202.750 C 44.784 204.813, 46.677 206.082, 46.893 205.572 C 47.343 204.508, 41.500 199, 39.921 199 C 39.344 199, 40.589 200.688, 42.686 202.750 M 137.750 199.723 C 139.537 199.945, 142.463 199.945, 144.250 199.723 C 146.037 199.502, 144.575 199.320, 141 199.320 C 137.425 199.320, 135.963 199.502, 137.750 199.723 M 186.267 201.897 C 186.379 203.379, 186.858 203.624, 188.455 203.017 C 189.580 202.589, 190.838 202.186, 191.250 202.120 C 191.662 202.054, 192 201.775, 192 201.500 C 192 201.225, 192 200.720, 192 200.378 C 192 200.035, 191.365 200.282, 190.589 200.926 C 189.624 201.727, 188.973 201.765, 188.530 201.049 C 187.475 199.341, 186.113 199.852, 186.267 201.897 M 5.573 209.521 C 4.513 210.323, 3.878 211.212, 4.162 211.496 C 4.447 211.780, 5.496 211.110, 6.494 210.006 C 8.621 207.657, 8.277 207.476, 5.573 209.521 M 94.269 211.693 C 95.242 211.947, 96.592 211.930, 97.269 211.656 C 97.946 211.382, 97.150 211.175, 95.500 211.195 C 93.850 211.215, 93.296 211.439, 94.269 211.693 M 130.762 211.707 C 132.006 211.946, 133.806 211.937, 134.762 211.687 C 135.718 211.437, 134.700 211.241, 132.500 211.252 C 130.300 211.263, 129.518 211.468, 130.762 211.707 M 48 213.970 C 48.825 214.520, 51.037 214.976, 52.917 214.985 C 57.400 215.005, 56.601 214.438, 51 213.625 C 47.855 213.168, 46.952 213.272, 48 213.970" stroke="none" fill="#8a2d00" fill-rule="evenodd"/>
</svg>